<?xml version="1.0" encoding="UTF-8"?>
<svg id="Calque_1" data-name="Calque 1" xmlns="http://www.w3.org/2000/svg" version="1.1" viewBox="0 0 943.4 376.1">
  <defs>
    <style>
      .cls-1 {
        stroke: #a19998;
        stroke-linecap: round;
        stroke-linejoin: round;
        stroke-width: 10px;
      }

      .cls-1, .cls-2 {
        fill: none;
      }

      .cls-3 {
        fill: #a19998;
      }

      .cls-3, .cls-4, .cls-2, .cls-5, .cls-6 {
        stroke-width: 0px;
      }

      .cls-4, .cls-7 {
        fill: #000;
      }

      .cls-5 {
        fill: #fbbe11;
      }

      .cls-6 {
        fill: #fff;
      }

      .cls-8 {
        display: none;
      }

      .cls-7 {
        font-family: ArialMT, Arial;
        font-size: 21px;
        isolation: isolate;
      }
    </style>
  </defs>
  <g id="Calque_3" data-name="Calque 3" class="cls-8">
    <rect class="cls-3" x="1399.6" y="569.5" width="496.6" height="167.6"/>
    <rect class="cls-3" x="236.3" y="96.5" width="371.1" height="169.9"/>
    <path class="cls-3" d="M292.9,690.7c-.5,0-1-.4-1-1,0-1.7.3-13,.5-15.5.3-4.5.9-5.1,1.2-5.4.7-.7,1.9-.8,3.3-1,1,0,2.2-.2,2.9-.6,1.4-.8,2.3-2.4,2.4-3.1-.2-.2-.7-.4-.9-.6-.6-.3-1.1-.6-1.2-1.2,0-.3,0-.6.2-.9.5-.6,1.2-.5,2.3-.5.4,0,1.1,0,1.4,0,0-.1,0-.3,0-.4,0-.5,0-1.3.5-2,.2-.3.3-.5.5-.8.5-.7.9-1.3.9-1.8,0-.2-.2-.4-.5-.8-.5-.6-1.2-1.5-1.8-3-.4-1.1-.6-2.5-.9-4.1-.4-2.4-.8-5.1-2-7.3-1.5-2.7-7.6-3-9.8-2.9-.6,0-1-.4-1.1-1s.4-1,1-1.1c0,0,2.3-.1,4.7.3,3.5.5,5.8,1.8,6.9,3.7,1.4,2.5,1.9,5.5,2.2,8,.2,1.5.4,2.8.8,3.6.5,1.2,1,1.9,1.5,2.4.5.6.9,1.1,1,2,0,1.2-.6,2.2-1.2,3.1-.2.2-.3.5-.5.7-.2.3-.2.7-.2,1.1,0,.6,0,1.5-1,2-.3.2-.7.2-1.1.3.2.3.3.6.3.9,0,1.4-1.5,3.9-3.4,5-1.1.6-2.5.8-3.7.9-.7,0-1.7.2-2,.4-.5.9-1.2,14.8-1.1,19.4,0,.6-.5,1-1,1,0,0,0,0,0,0Z"/>
    <path class="cls-3" d="M299,651.4c.6,0,1.2.6,1.2,1.4s-.5,1.4-1.2,1.4-1.2-.6-1.2-1.4.5-1.4,1.2-1.4Z"/>
    <path class="cls-3" d="M281.9,691.1s0,0,0,0c-.6,0-.9-2.8-.8-3.3,0-2.2.3-17.5.9-19.4.5-1.6,2.4-1.7,3.9-1.8.9,0,2.1-.1,2.4-.5,0,0,0,0,0,0,0,0-.2-.4-.3-.7-.3-.6-.7-1.3-.6-2.3,0-1.3,1.1-2.8,1.9-4,.2-.2.4-.5.5-.8-.4-.4-1.2-1.2-2.1-1.8-.3-.2-.5-.6-.4-1,0-.4.4-.7.8-.8.1,0,2.3-.5,3.4-.8,0-.2,0-.5,0-.8-.1-.7-.2-1.5-.1-2.2.1-1,.5-1.7.9-2.3.1-.2.3-.5.4-.6,0,0-.2-.1-.3-.2-.7-.4-1.9-1.1-2.1-3.3,0-.3,0-.7-.1-1.2-.2-3-.8-9.4-2.7-13.2,0-.1-.1-.2-.2-.3-.4-.8-1.1-2.3-1.7-2.2-4.8.9-8.3-.3-8.5-.3-.5-.2-.8-.8-.6-1.3.2-.5.8-.8,1.3-.6,0,0,3.2,1.1,7.4.3,2.1-.4,3.2,1.9,3.9,3.3,0,.1.1.2.2.3,2.1,4.2,2.6,10.6,2.9,14,0,.5,0,.9.1,1.2.1,1.2.6,1.4,1.1,1.8.4.3,1,.6,1.2,1.3.2.9-.2,1.6-.6,2.3-.3.5-.6.9-.6,1.4,0,.5,0,1.2.1,1.7.2,1.1.4,2.6-1,2.9-.3,0-1.1.3-1.9.4,1.4,1.3,1.4,1.8,1.4,2.1,0,.5-.3,1-1,2-.6.8-1.5,2.3-1.5,3,0,.5.2.9.4,1.3.4.7.9,1.8,0,2.9-.9,1.1-2.5,1.2-3.9,1.2-.5,0-2,.1-2.1.4-.4,1.2-.8,13.9-.8,18.7,0,.6-.7,3.3-1.2,3.3Z"/>
    <path class="cls-3" d="M286.4,644.3c.6,0,1.1.7,1.1,1.5s-.5,1.5-1.1,1.5-1.1-.7-1.1-1.5.5-1.5,1.1-1.5Z"/>
    <path class="cls-3" d="M268.3,688c-.5,0-1-.4-1-1-.1-3.1-.6-17.4.9-19.5.9-1.2,2.5-1.1,4.2-1.1,2.5.1,4.4,0,5.5-1.8.4-.7,0-2.3-.5-3.6-.3-1-.6-1.8-.6-2.6,0-1.5.6-2.5,1.1-3.2.1-.2.2-.4.3-.5-.5-.5-2.1-1.4-3.7-2-.5-.2-.7-.7-.6-1.2.1-.5.7-.8,1.2-.7,1.6.3,3.5.6,4.4.6,0-.3-.2-.7-.3-1-.3-.9-.6-1.9-.5-2.7,0-1.1.9-2,1.7-2.8s.9-.9,1-1.2c-.1-.2-.5-.5-.8-.7-.9-.7-2.1-1.8-3-3.7-.4-.9-.5-2.5-.7-5.7-.2-3.9-.6-9.2-1.9-12.3-1.1-2.7-1.9-2.9-2.3-2.8-7.7,2.4-12-1.4-12.2-1.6-.4-.4-.4-1,0-1.4s1-.4,1.4,0c0,0,.9.8,2.6,1.3,2.3.7,4.8.7,7.6-.2,2.7-.8,4.2,2.8,4.8,4,1.5,3.5,1.8,8.7,2,13,.1,2.2.3,4.4.5,5,.7,1.5,1.7,2.3,2.5,3,.8.7,1.6,1.4,1.5,2.5-.1.9-.9,1.7-1.5,2.4-.5.5-1.1,1.1-1.1,1.5,0,.5.2,1.3.4,2,.4,1.2.7,2.3,0,3-.2.2-.4.5-1.5.5.4.5.7.9.6,1.5-.1.6-.4,1.1-.8,1.6-.4.6-.8,1.1-.7,1.9,0,.5.3,1.3.5,2.1.5,1.8,1.1,3.7.3,5.2-1.8,3-5,2.9-7.3,2.8-1,0-2.3,0-2.5.2-.7,1-.8,12.2-.5,18.1,0,.6-.4,1-1,1.1,0,0,0,0,0,0ZM280,651.4h0Z"/>
    <path class="cls-3" d="M271.9,636.1c.8,0,1.4.8,1.4,1.9s-.6,1.9-1.4,1.9-1.4-.8-1.4-1.9.6-1.9,1.4-1.9Z"/>
    <path class="cls-3" d="M250.6,681.4c-.5,0-1-.4-1-.9-.5-5.9.6-10.6,2.9-12.1,1-.6,2.3-.7,3.9-.7,3.4,0,5.6-.4,6.2-3.1.3-1.1-.4-2.1-1-3.2-.5-.9-1.1-1.8-1.1-2.8,0-1.7,1.9-4.1,3-5.4l-4.5-5.7c-.2-.3-.3-.7-.1-1s.5-.6.9-.6c2.5-.1,5.1-.6,5.8-1,0-.7-.9-2.7-1.4-3.8-.8-1.8-1.3-2.8-1.3-3.6,0-1.1,1-1.9,1.9-2.6.6-.5,1.3-1,1.3-1.4,0-.5-1.7-1.6-2.5-2.1-1.1-.7-2.1-1.4-2.6-2.2-.3-.4-.9-1.2-1.1-12.3,0-5.3,0-10.5,0-10.6,0-.6.5-1,1-1h0c.6,0,1,.5,1,1,0,9.6.2,20.3.8,21.7.4.5,1.3,1.1,2.1,1.6,1.8,1.2,3.5,2.3,3.4,3.9,0,1.3-1.2,2.2-2.1,2.9-.4.3-1,.7-1,1,0,.4.7,1.8,1.1,2.7,1.3,2.8,2,4.5,1.4,5.6-.3.6-1.1,1.2-4.3,1.7-.4,0-.9.1-1.3.2l3.8,4.9c.3.4.3,1,0,1.3-1.5,1.5-3.1,3.7-3.1,4.5,0,.5.4,1.2.8,1.8.8,1.3,1.7,2.9,1.2,4.8-1.1,4.4-5.4,4.6-8.2,4.7-1.2,0-2.4,0-2.9.4-1.1.7-2.5,4-2,10.2,0,.6-.4,1-.9,1.1,0,0,0,0,0,0ZM265.7,644.8h0ZM265,637.6h0ZM262.8,628.2h0Z"/>
    <path class="cls-3" d="M254.4,625.6c1.2,0,2.1,1.1,2.1,2.5s-1,2.5-2.1,2.5-2.1-1.1-2.1-2.5,1-2.5,2.1-2.5Z"/>
    <rect class="cls-3" x="811.5" y="559.8" width="457" height="162.2"/>
    <polygon class="cls-5" points="748.3 721.9 748.3 559.3 822.7 559.5 899.8 721.8 748.3 721.9"/>
    <polygon class="cls-5" points="1386.8 737.1 1386.8 569.4 1561.1 569.5 1513.5 636.1 1520.8 737 1386.8 737.1"/>
    <path class="cls-5" d="M1509.8,669.7l22.2,26.1s52.6,9.7,53.6,9.7,108.3-13.2,108.3-13.2l6.4,44.7h-185.9l-4.7-67.2"/>
    <rect class="cls-2" x="661.1" y="384.7" width="20" height="23.8"/>
    <text class="cls-7" transform="translate(661.1 398.1)"><tspan x="0" y="0">1</tspan></text>
    <rect class="cls-2" x="661.6" y="831.8" width="20" height="23.8"/>
    <text class="cls-7" transform="translate(661.6 845.2)"><tspan x="0" y="0">2</tspan></text>
    <rect class="cls-2" x="1271.8" y="379.4" width="20" height="23.8"/>
    <text class="cls-7" transform="translate(1271.7 392.8)"><tspan x="0" y="0">3</tspan></text>
    <rect class="cls-2" x="1272.2" y="826.5" width="20" height="23.8"/>
    <text class="cls-7" transform="translate(1272.2 840)"><tspan x="0" y="0">4</tspan></text>
    <rect class="cls-2" x="1893.5" y="378" width="20" height="23.8"/>
    <text class="cls-7" transform="translate(1893.5 391.4)"><tspan x="0" y="0">5</tspan></text>
    <rect class="cls-2" x="1894" y="825.1" width="20" height="23.8"/>
    <text class="cls-7" transform="translate(1894 838.6)"><tspan x="0" y="0">6</tspan></text>
    <path class="cls-6" d="M409.3,244.8c-.9,0-1.6-.7-1.6-1.6,0-2.6.4-20.4.7-24.3.5-7.1,1.5-8,1.9-8.4,1.1-1.1,3-1.3,5.1-1.5,1.6-.2,3.4-.3,4.5-1,2.1-1.2,3.6-3.8,3.8-4.8-.3-.3-1-.7-1.4-.9-1-.5-1.7-.9-1.9-1.9-.1-.5,0-1,.3-1.4.7-.9,1.9-.9,3.6-.7.6,0,1.7.1,2.3,0,0-.2,0-.4,0-.6,0-.9.1-2,.8-3.2.3-.4.5-.8.8-1.2.7-1.1,1.4-2.1,1.3-2.8,0-.3-.3-.7-.9-1.3-.8-1-1.9-2.3-2.8-4.6-.7-1.7-1-3.9-1.4-6.4-.5-3.7-1.2-7.9-3.1-11.4-2.4-4.2-11.9-4.7-15.3-4.6-.9,0-1.6-.6-1.7-1.5,0-.9.6-1.6,1.5-1.7.1,0,3.6-.2,7.5.4,5.5.9,9.2,2.8,10.8,5.8,2.2,4,2.9,8.7,3.5,12.5.3,2.3.6,4.3,1.2,5.7.8,1.9,1.6,2.9,2.3,3.8.8.9,1.5,1.8,1.6,3.1.1,1.9-.9,3.5-1.9,4.9-.2.4-.5.7-.7,1.1-.3.5-.3,1.1-.4,1.7,0,1-.1,2.4-1.5,3.2-.5.3-1,.4-1.7.4.3.4.5.9.5,1.4,0,2.2-2.3,6.1-5.4,7.8-1.7,1-3.9,1.2-5.8,1.4-1,.1-2.7.3-3.2.6-.8,1.4-1.9,23.2-1.7,30.5,0,.9-.7,1.6-1.6,1.6,0,0,0,0,0,0Z"/>
    <path class="cls-6" d="M419,183.2c1,0,1.8,1,1.8,2.2s-.8,2.2-1.8,2.2-1.8-1-1.8-2.2.8-2.2,1.8-2.2Z"/>
    <path class="cls-6" d="M392.1,245.5s0,0,0,0c-.9,0-1.3-4.3-1.3-5.2,0-3.4.5-27.5,1.5-30.4.8-2.5,3.8-2.6,6.1-2.8,1.4,0,3.3-.2,3.8-.8,0,0,0-.1,0-.1,0-.2-.2-.7-.4-1-.4-.9-1-2.1-1-3.7.1-2.1,1.7-4.4,3-6.3.3-.4.6-.9.8-1.2-.6-.7-1.9-1.9-3.3-2.9-.5-.4-.7-1-.6-1.6.1-.6.6-1.1,1.2-1.2.2,0,3.5-.9,5.3-1.3,0-.4-.1-.8-.1-1.2-.1-1.1-.3-2.3-.2-3.5.2-1.5.9-2.6,1.4-3.6.2-.3.5-.8.5-1-.1,0-.3-.2-.4-.3-1.1-.7-3-1.8-3.3-5.2,0-.5-.1-1.2-.2-1.9-.4-4.8-1.2-14.7-4.3-20.8,0-.2-.2-.3-.3-.5-.6-1.2-1.8-3.6-2.7-3.4-7.6,1.4-13.1-.4-13.3-.5-.8-.3-1.3-1.2-1-2,.3-.8,1.2-1.3,2-1,0,0,5,1.7,11.7.4,3.3-.6,5.1,3,6.2,5.1,0,.2.2.3.2.5,3.4,6.6,4.2,16.6,4.6,21.9,0,.7.1,1.4.2,1.9.2,1.8.9,2.2,1.8,2.8.7.4,1.6.9,1.9,2.1.4,1.4-.3,2.6-1,3.6-.5.8-.9,1.5-1,2.3,0,.8,0,1.8.2,2.7.2,1.7.6,4.1-1.6,4.6-.5.1-1.7.4-2.9.7,2.2,2,2.2,2.8,2.2,3.3,0,.8-.5,1.6-1.5,3.1-.9,1.3-2.4,3.5-2.4,4.7,0,.7.3,1.4.6,2.1.5,1.1,1.4,2.8,0,4.6-1.4,1.7-3.9,1.8-6,1.9-.9,0-3.1.2-3.2.6-.6,1.8-1.2,21.8-1.3,29.4,0,.9-1,5.2-1.9,5.2Z"/>
    <path class="cls-6" d="M399.2,171.9c1,0,1.8,1.1,1.8,2.4s-.8,2.4-1.8,2.4-1.8-1.1-1.8-2.4.8-2.4,1.8-2.4Z"/>
    <path class="cls-6" d="M370.7,240.6c-.9,0-1.6-.7-1.6-1.5-.2-4.8-.9-27.3,1.5-30.5,1.4-1.9,4-1.8,6.7-1.7,4,.2,6.9,0,8.6-2.8.7-1.1-.1-3.6-.7-5.6-.5-1.5-.9-2.9-1-4.1-.1-2.3,1-3.8,1.7-5,.2-.3.4-.6.5-.8-.8-.8-3.3-2.1-5.9-3.2-.8-.3-1.1-1.2-.9-1.9.2-.8,1-1.3,1.8-1.1,2.5.5,5.5.9,7,.9-.1-.5-.3-1-.4-1.5-.4-1.4-.9-2.9-.8-4.3.1-1.8,1.5-3.1,2.7-4.4.6-.6,1.4-1.4,1.5-1.8-.2-.2-.7-.7-1.2-1.1-1.3-1.1-3.4-2.8-4.7-5.9-.6-1.4-.8-4-1.1-8.9-.4-6.1-.9-14.4-3-19.3-1.8-4.3-3-4.6-3.6-4.4-12.1,3.7-18.9-2.2-19.1-2.5-.6-.6-.7-1.6-.1-2.3.6-.7,1.6-.7,2.3-.1,0,0,1.5,1.3,4.1,2.1,3.6,1.1,7.6,1,11.9-.3,4.3-1.3,6.7,4.4,7.5,6.3,2.3,5.4,2.8,13.7,3.2,20.4.2,3.4.4,6.9.8,7.8,1.1,2.4,2.6,3.7,3.9,4.7,1.2,1.1,2.5,2.1,2.3,3.9-.2,1.5-1.3,2.6-2.4,3.7-.7.7-1.7,1.7-1.8,2.3,0,.8.4,2.1.7,3.1.6,1.9,1.1,3.6.1,4.8-.3.3-.7.8-2.4.8.7.7,1.1,1.5.9,2.3-.2,1-.7,1.7-1.2,2.4-.6.9-1.2,1.8-1.1,3,0,.8.4,2,.8,3.3.9,2.8,1.8,5.9.4,8.2-2.8,4.7-7.8,4.5-11.5,4.3-1.6,0-3.6-.2-4,.4-1.2,1.6-1.2,19.1-.8,28.5,0,.9-.6,1.6-1.5,1.7,0,0,0,0-.1,0ZM389.2,183.2h0Z"/>
    <path class="cls-6" d="M376.4,159.2c1.2,0,2.2,1.3,2.2,2.9s-1,2.9-2.2,2.9-2.2-1.3-2.2-2.9,1-2.9,2.2-2.9Z"/>
    <path class="cls-6" d="M343,230.2c-.8,0-1.5-.6-1.6-1.5-.8-9.2,1-16.6,4.5-18.9,1.5-1,3.7-1.1,6.2-1.1,5.2-.2,8.8-.6,9.8-4.9.4-1.7-.6-3.3-1.6-5.1-.9-1.4-1.7-2.8-1.7-4.3-.1-2.6,2.9-6.4,4.7-8.4l-7-8.9c-.4-.5-.5-1.1-.2-1.6s.8-.9,1.4-.9c4-.2,8.1-.9,9.1-1.6,0-1.1-1.5-4.2-2.2-5.9-1.3-2.8-2-4.4-2-5.6,0-1.8,1.5-3,2.9-4,.9-.7,2.1-1.6,2.1-2.2,0-.7-2.6-2.5-3.9-3.4-1.7-1.1-3.2-2.2-4.1-3.4-.5-.7-1.4-1.9-1.7-19.2-.1-8.4,0-16.5,0-16.6,0-.9.7-1.6,1.6-1.6h0c.9,0,1.6.7,1.6,1.6-.1,15.1.3,31.9,1.2,34,.5.7,2,1.7,3.2,2.6,2.8,1.9,5.4,3.7,5.3,6.2-.1,2.1-1.9,3.5-3.3,4.6-.6.4-1.5,1.2-1.6,1.5,0,.6,1,2.8,1.7,4.3,2,4.4,3.1,7.1,2.2,8.8-.5.9-1.7,1.9-6.8,2.7-.7.1-1.4.2-2,.2l6,7.6c.5.6.5,1.5-.1,2.1-2.4,2.4-4.9,5.9-4.8,7.1,0,.7.7,1.8,1.3,2.9,1.2,2,2.7,4.5,2,7.4-1.7,7-8.4,7.2-12.8,7.3-1.9,0-3.8.1-4.5.6-1.7,1.1-3.9,6.3-3.1,16,0,.9-.6,1.7-1.5,1.7,0,0-.1,0-.2,0ZM366.7,172.9h0ZM365.6,161.5h0ZM362,146.7h0Z"/>
    <path class="cls-6" d="M348.9,142.6c1.9,0,3.4,1.8,3.4,3.9s-1.5,3.9-3.4,3.9-3.4-1.8-3.4-3.9,1.5-3.9,3.4-3.9Z"/>
  </g>
  <g id="Calque_5" data-name="Calque 5">
    <polygon class="cls-3" points="0 .1 943.4 .1 943.4 376.4 0 375.9 0 .1"/>
    <polygon class="cls-5" points="943.4 376.4 0 375.9 0 .1 192 -.1 315.4 261.6 580.1 301 751.1 262.3 943.4 197.7 943.4 376.4"/>
    <g>
      <path class="cls-6" d="M815.5,210c1.4,5.8.5,11-2.8,15.7-3.3,4.7-8.2,7.8-14.8,9.4-4.5,1.1-8.7,1.1-12.7.2-1.4-.4-2.7-.7-3.8-1.1-1.1-.4-3.2-1.4-6.5-3l4.2-10.4c3.7,2.1,7.1,3.4,10.1,4,2,.4,4,.3,6-.2,3.3-.8,5.8-2.4,7.4-4.6s2-4.9,1.3-7.9c-1.6-6.6-7.8-8.5-18.6-5.9l-1,.2-3.4.9-2.3-9.6,2.1-.5c11.5-2.8,16.4-7.6,14.7-14.5-.6-2.6-2-4.4-4.2-5.6s-4.8-1.4-7.6-.7c-2,.5-3.8,1.4-5.5,2.9-2,1.7-3.8,4.6-5.5,8.6l-9-5.4c2.8-5.4,5.5-9.2,8.3-11.5,2.6-2.1,5.6-3.6,9.2-4.4,6-1.5,11.4-.9,16.1,1.6s7.7,6.5,9,11.9c.9,3.8.6,7.2-.8,10.4-.8,1.7-2.2,3.6-4.2,5.8,3.2.9,5.7,2,7.5,3.3,3.5,2.5,5.9,5.9,6.9,10.3Z"/>
      <path class="cls-6" d="M867.4,196.8c1.5,6,.7,11.4-2.4,16.1-3.1,4.7-7.8,7.9-14.2,9.4-6.3,1.5-11.8.9-16.6-1.9-4.8-2.8-7.9-7.1-9.3-13.1-1.3-5.4-.7-10.2,1.8-14.3,1-1.7,2.8-3.6,5.5-5.8-3.2-1.1-5.5-2.2-7.1-3.4-2.7-2-4.5-4.8-5.3-8.4-1.3-5.2-.6-9.8,2-13.7,2.6-3.9,6.8-6.6,12.5-8s10.7-.9,14.9,1.4c4.2,2.3,6.9,6,8.2,11.2.9,3.8.6,7.3-.9,10.5-.8,1.6-2.2,3.4-4.2,5.5,3.9,1.3,6.7,2.7,8.6,4.1,3.3,2.5,5.5,6,6.6,10.4ZM856.5,200c-.8-3.2-2.6-5.6-5.5-7.3-1.8-1-4.4-1.9-7.8-2.4-2.7,1.9-4.7,3.8-5.8,5.6-1.7,2.7-2.2,5.6-1.4,8.9.7,3,2.2,5.2,4.5,6.6s4.9,1.6,8,.9,5.4-2.3,6.9-4.5c1.5-2.3,1.9-4.8,1.2-7.7ZM847.1,169.1c-.6-2.4-1.8-4.1-3.8-5.2-1.9-1.1-4.2-1.3-6.7-.7-2.5.6-4.3,1.8-5.6,3.6-1.2,1.8-1.6,3.9-1,6.2.7,2.7,2.4,4.8,5.1,6.2,1.4.8,3.3,1.2,5.7,1.4,2-1.1,3.5-2.3,4.5-3.6,1.9-2.4,2.5-5.1,1.8-8Z"/>
    </g>
    <path class="cls-4" d="M347.8,310.7s-22.3-8.1-40.7-22.9c-18.4-14.9-39.8-40.4-50.5-58.8s-17.8-53.4-19-72.4c-1.2-19,5.3-48.1,5.3-48.1l-35.6-76c-4.8-8.3-16-8.9-16-8.9,0,0-26.1.6-32.1.6s-13.7,12.5-13.7,12.5L25.6,315l51.5,1.4s3.2-.2,10.3-5.6,17.8-29.7,17.8-29.7l12.9-30,124.7-1.3c13.9,30.6,24.7,54.5,25.1,56.2,1.2,4.8,12.5,6.5,12.5,6.5,0,0,24.4,3,44,1.8l23.5-3.8ZM131.9,219l46.8-108.8s25.5,55.4,49.2,107.4l-96,1.4Z"/>
    <path class="cls-6" d="M346.3,99.5s3-3,8.3-3.6,9.5,4.8,9.5,4.8c0,0-5.9,6.5-8.9,5.9-3-.6-8.9-7.1-8.9-7.1Z"/>
    <path class="cls-6" d="M409.8,120.9c2.3,0,4.2,2.1,4.2,4.8s-1.9,4.8-4.2,4.8-4.2-2.1-4.2-4.8,1.9-4.8,4.2-4.8Z"/>
    <circle class="cls-6" cx="452.3" cy="149.1" r="2.7"/>
    <path class="cls-6" d="M493.5,164.8c-2.4,2.4-3,5.3-3,5.3l4.2,3s-4.2,5.9,0,0c4.2-5.9-1.2-8.3-1.2-8.3Z"/>
    <path class="cls-6" d="M515.5,168.4c-1.2-2.4-.6-6.5-.6-14.2s-6.5-21.4-16.6-27.3c-7-4.1-19-4.5-25.5-4.4,0-8.9-.1-27.3-.6-33-.6-7.7-10.7-7.1-19-5.3-8.3,1.8-15.4,3-19.6-3-4.2-6-3.6-15.5-3.6-15.5,0,0-2.4-9.3-6.5-9.5-11.3-.6-31.5,4.8-37.4,2.4s-5.3-19-5.3-19l-10.7,4.8s-.6,58.2,1.8,64.1c2.4,5.9,8.3,12.5,8.3,12.5l-4.8,14.9,5.9,13.7s-3,4.8-9.5,4.2-10.1,4.2-10.1,4.2l15.4,22s-3.6,9.5-3,14.2,3.6,11.3,3.6,11.3c0,0,1.2,1.8-1.8,4.2s-19.6,2.4-19.6,2.4l-17.8,14.2,5.9,16.6s6.5-16.6,14.2-18.4,22,0,25.5-3,8.3-12.5,8.3-12.5c0,0-8.9-11.9-7.1-14.2s7.7-8.9,7.1-11.9-11.9-12.5-11.3-16,13.1-5.9,13.1-5.9c0,0,1.8-4.8,1.2-7.1s-7.7-11.3-7.7-17.8,6.5-8.3,5.9-14.2-7.7-6.5-10.1-11.3-3-45.7-3-45.7c0,0,0,7.1,13.1,5.9l13.1-1.2s6.5-2.4,9.5-1.2,4.2,4.2,4.2,4.2l2.4,67.7s5.9,7.7,5.9,10.1-5.3,12.5-5.3,12.5l2.4,11.9-11.9,1.8s4.2,3,5.9,3,4.8-.6,4.8-.6l-4.2,17.2s3,8.3,1.2,11.9c-1.8,3.6-3,5.9-7.7,5.9s-11.9-1.2-12.5,3-.6,52.3-.6,52.3l9.5,3.6-1.8-43.9s1.8-6.5,4.8-7.1,10.1,2.4,16.6-5.9.6-12.5,0-17.2,3.6-13.7,5.3-16.6,2.4-5.3,1.8-8.9c-.6-3.6-3.6-11.9-3.6-11.9,0,0,9.5-4.2,9.5-9.5s-11.3-10.7-11.9-17.2c-.6-6.5-.6-42.8-.6-42.8,0,0,3.6,5.9,10.7,5.3,7.1-.6,16.6-4.2,19-.6,2.4,3.6,3.6,49.3,3.6,49.3,0,0,3.6,6.5,5.3,10.7s1.8,16,0,17.8c-1.8,1.8-14.9,1.8-14.2,5.3.6,3.6,6.5,7.7,6.5,7.7,0,0-3,5.9-3.6,8.9s-1.8,5.9-1.8,5.9c0,0,9.5,3.6,7.1,5.3-2.4,1.8-9.5-1.2-13.1,2.4-3.6,3.6-6.5,1.8-6.5,9.5s3.6,69.5,3.6,69.5l10.7,1.2-2.4-71.3s11.9,1.2,13.1-.6,5.3-6.5,5.9-9.5-6.5-12.5-6.5-12.5c0,0,9.5-5.3,8.9-8.9-.6-3.6-8.3-4.8-8.3-4.8l9.5-3.6-1.8-14.2,4.2-8.9-7.1-13.7-.5-10.7h8.2c10.1,0,19,6.5,23.8,13.1s1.8,23.8,1.8,27.3,5.3,6.5,5.3,6.5l-4.2,5.9s.6,13.7-4.8,21.4-18.4,6.5-22.6,10.1-1.2,71.9-1.2,71.9l9.5,4.8s-2.4-70.1-1.2-73.6,7.7-1.8,13.1-3.6,7.1-1.8,11.9-7.1c4.8-5.3,4.2-17.8,4.8-22,.6-4.2,3-7.7,3-7.7,0,0-3.5-7.1-4.7-9.5Z"/>
    <path class="cls-4" d="M914.3,221.2c-41.1,13.9-105,32.6-137.5,42.2-62.3,18.4-184.7,46.9-244.7,49.3-60,2.4-114,2.4-170.4-21.4s-82-57-96.8-95c-14.9-38-17.2-83.1,7.7-122.3s68.3-50.5,101.6-51.7,68.9,18.4,68.9,18.4c0,0-102.7-14.9-126.5,60.6-14.9,47.3,4.2,124.1,58.2,149.1,36.5,16.9,52.3,30.6,131.8,35,96.2,5.3,164-9.3,262.5-35,39.9-10.4,103.2-28.4,145.2-42.5v13.4Z"/>
    <path class="cls-4" d="M660.4,230.1c-1.2-14.9-14.2-20.8-29.7-22.6-15.4-1.8-42.8,3.6-42.8,3.6l.9,16.5c0,.4,0,.7,0,1.1l2.1,34.9.6,11.1h0s4.4,74.6,4.4,74.6c.2,3.6,3.2,6.5,6.8,6.5s.3,0,.4,0c3.8-.2,6.7-3.5,6.4-7.2l-4.7-79.8c1.4-.1,7.5-.9,26.4-6.5,22-6.5,30.3-17.2,29.1-32.1ZM632.5,239c-1.8,20.2-26.7,15.4-26.7,15.4l-1.8-35,13.1-1.8s17.2,1.2,15.4,21.4Z"/>
    <path class="cls-4" d="M743.8,215.7c-1.2-14.9-14.2-20.8-29.7-22.6-15.4-1.8-42.8,3.6-42.8,3.6l.9,16.5c0,.4,0,.7,0,1.1l2.1,34.9.6,11.1h0s4.4,74.6,4.4,74.6c.2,3.6,3.2,6.5,6.8,6.5s.3,0,.4,0c3.8-.2,6.7-3.5,6.4-7.2l-4.7-79.8c1.4-.1,7.5-.9,26.4-6.5,22-6.6,30.3-17.2,29.1-32.1ZM715.9,224.6c-1.8,20.2-26.7,15.4-26.7,15.4l-1.8-35,13.1-1.8s17.2,1.2,15.4,21.4Z"/>
    <path class="cls-4" d="M573.2,255.2s6.9,0,6.9-4.6-8.7-22-17-28.5c-9.6-7.4-29.8-11.9-50,3.2-12.8,9.6-9.6,29.4-3.7,35.8,6,6.4,17.9,16.1,32.1,15.6,14.2-.5,27.1-1.8,31.2-3.2,4.1-1.4,5.5-1.8,5.5-5.5s-2.3-4.1-6-3.7-18.4,1.8-21.6,1.8-13.8-3.7-14.7-7.8c-.9-4.1,37.2-3.2,37.2-3.2ZM534.2,246.5s.9-12.4,15.2-14.2c14.2-1.8,16.5,12.9,16.5,12.9l-31.7,1.4Z"/>
  </g>
  <g id="Calque_4" data-name="Calque 4" class="cls-8">
    <path class="cls-1" d="M432.3,149.4s41.8-2.1,52.5,16.8,9.4,43.8,14.3,56.2c4.9,12.3,11.5,14.8,11.9,20.1s-4.1,10.2-7.4,15.6c-3.3,5.3-.4,11.5-4.1,13.5-3.7,2-16-.8-17.2.8-1.2,1.6,10.7,4.9,10.7,9.4s-5.7,15.2-14.3,20.1c-8.6,4.9-24.6,2.5-29.1,7s-5.7,38.5-5.3,56.6"/>
    <path class="cls-3" d="M472.9,220.3c3.2,0,5.7,3,5.7,6.8s-2.6,6.8-5.7,6.8-5.7-3-5.7-6.8,2.6-6.8,5.7-6.8Z"/>
    <path class="cls-1" d="M366.7,96.5s16.4,5.7,39,1.5c7.2-1.3,11.5,8.8,14.6,14.9,11.5,22.5,13.1,59.8,14.3,72.5,1.2,12.7,10.2,11.5,11.5,16,1.2,4.5-5.3,9-6.1,16.4s3.3,17.6-.4,18.4-18.9,4.5-18.9,4.5c0,0,12.7,9.8,12.7,12.7s-11.9,16-12.3,24.2c-.4,8.2,7.4,12.6,2.9,18-6.1,7.4-27,.8-29.9,9.4-2.9,8.6-3.7,70.9-3.7,70.9"/>
    <path class="cls-3" d="M411.2,185.1c3.1,0,5.5,3.3,5.5,7.4s-2.5,7.4-5.5,7.4-5.5-3.3-5.5-7.4,2.5-7.4,5.5-7.4Z"/>
    <path class="cls-1" d="M288,47.8s19.3,17.6,54.9,6.7c8.4-2.6,14.2,9.6,17.2,16.7,11.1,26.2,8.4,78.6,12.7,88.1,7,15.6,19.7,18,18.9,24.2-.8,6.1-12.7,12.3-13.1,19.3-.4,7,6.1,18.9,3.7,21.7s-27.5-2.1-27.5-2.1c0,0,22.5,9.4,21.7,14.3s-7.8,9-7.4,18c.4,9,9.5,24.8,4.5,33.2-12.3,20.5-41,4.9-48,14.3-7,9.4-4.1,72.1-4.1,72.1"/>
    <path class="cls-3" d="M339.9,145.3c3.7,0,6.8,4.1,6.8,9.2s-3,9.2-6.8,9.2-6.8-4.1-6.8-9.2,3-9.2,6.8-9.2Z"/>
    <path class="cls-1" d="M286.4-.2s-.8,101.6,4.5,109c5.3,7.4,26.2,16,25.8,24.2s-15.6,12.7-15.6,19.3,16,32.8,12.7,38.5c-3.3,5.7-32.8,7.4-32.8,7.4l24.6,31.1s-16.8,17.2-16.4,25.8c.4,8.6,13.2,18.6,10.2,30.7-6.6,27-41.4,14.8-52.1,21.7-8.4,5.5-14.3,25.4-11.9,54.5"/>
    <path class="cls-3" d="M254.2,93.7c5.8,0,10.4,5.5,10.4,12.3s-4.7,12.3-10.4,12.3-10.4-5.5-10.4-12.3,4.7-12.3,10.4-12.3Z"/>
  </g>
</svg>