<svg xmlns="http://www.w3.org/2000/svg" viewBox="0 0 787 590"><defs><style>.st0{fill:#fe9191}.st2{fill:#f0bf60}</style></defs><path d="M186.3 563.7c-.5-.3-1-.3-1.6 0l-6.2 3.9-14.8-8.6.4-7.2c0-.7-.4-1.2-.9-1.5-1-.6-2.3-.3-2.4 1.1l-1.7 29.5c0 .7.3 1.2.8 1.5.5.3 1.2.4 1.7 0l24.9-16c1.1-.7.6-2.1-.3-2.7Zm-23.8 14.5 1-16 12.4 7.2-13.4 8.8Zm-9.8-36.1c-3.1-2.2-9.3-4.8-12.6-.1-3.3 4.6.8 8.1 4.6 11.4 2.8 2.3 5.6 4.3 3.9 6.6-1.6 2.3-5.5.9-7.7-.6-1.7-1.2-4.7-3.6-3.9-6.3.5-1.8-2.5-2.9-3.2-.8-1.1 4.3 2.6 7.5 5.4 9.6 3.6 2.5 9.3 4.1 12.1.1 3.3-4.6-.8-8-4.5-11.2-2.8-2.4-5.6-4.5-3.9-6.9 1.8-2.6 6.4-.7 8.2.6 2.7 1.9 4.9 5 4.1 6.9-1 2.1 2.3 3.2 2.9 1.4 1.9-4.2-2.2-8.5-5.3-10.7Zm-20.2-11.9c2.5 2.1 4.5 5.3 3.5 7.2-1.2 2 2 3.4 2.8 1.6 2.2-4.1-1.5-8.6-4.4-11.1-2.9-2.4-8.9-5.5-12.6-1.1-3.7 4.3 0 8.1 3.6 11.7 2.6 2.6 5.2 4.7 3.3 6.9-1.8 2.2-5.6.5-7.6-1.2-1.6-1.3-4.4-3.9-3.4-6.6.7-1.7-2.3-3.1-3.1-1.1-1.4 4.2 1.9 7.7 4.6 10 3.3 2.8 8.9 4.8 12 1.1 3.6-4.3-.1-8-3.6-11.5-2.6-2.6-5.2-4.9-3.3-7.2 2-2.4 6.4-.2 8.1 1.3Zm-16.2-19c-4.8-4.9-12-4.8-16.9 0-4.6 4.6-4.9 11.9 0 16.8 4.8 4.8 12 4.9 16.6.2 4.8-4.8 5.4-12 .4-17.1ZM101.5 526c-3-3-4-8.1.3-12.5 3.2-3.2 8.6-3.7 12.2 0 3.6 3.6 3.2 8.8-.2 12.2-4.2 4.2-9.2 3.4-12.3.3Zm-2.8-34.1c-2.1-2.6-5.4-4.2-8.8-4.2-2.3 0-1.9 3.1 0 3 2.7-.1 5 1.3 6.5 3.1 3.2 3.9 2.2 9-1.5 12.1-3.9 3.3-9.1 3.2-12.2-.5-1.4-1.7-2.3-4-1.9-6.5.3-1.9-2.6-2.5-2.9-.6-.6 3.6.3 6.3 2.3 8.8 5.8 7 13.2 4.4 16.7 1.5 5.2-4.3 6.2-11.3 1.8-16.6Zm-9.4-11.2c-.5-.7-1.4-1-2.2-.4l-16.1 12c-.8.6-.7 1.5-.2 2.2.5.7 1.4 1.1 2.2.5l16.1-11.9c.8-.6.7-1.6.2-2.2Zm-23.9 15.6h-.2c-.8.8-.8 1.8-.3 2.4.5.7 1.5 1.1 2.3.4h.2c.8-.8.7-1.8.2-2.4-.5-.7-1.4-1.1-2.3-.5Zm14.5-30c-1.5-2.2-4.5-4.3-7.4-4l1.6-1.1c.8-.5 1.1-1.4.5-2.3-.5-.8-1.5-1.1-2.3-.5l-16.6 10.8c-.8.5-1 1.5-.5 2.3.6.9 1.5 1 2.3.5l1.3-.8c-1.4 2.8-.5 5.8.9 8 3.5 5.4 9.8 7.7 16.4 3.5 6.3-4.1 7.4-10.8 3.8-16.4Zm-5.6 13.6c-3.9 2.5-9 2.3-11.9-2.4-2.1-3.5-1.8-7.5 2-9.9l3-2c3.7-2.4 7.6-1 9.9 2.3 1.6 2.5 2.6 8.3-2.9 11.9Zm-22.1-19.3 10.9-5.9c3.8-2.1 6.7-5.2 4-9.9-.6-1.1-1.3-2-2.4-2.7-2-1.3-3.6 1.4-1.7 2.5.5.3 1.1 1 1.5 1.6 1.5 2.7-.7 4.4-3 5.6l-10.9 5.9-2.4-4.3c-1-1.8-3.4-.5-2.4 1.3l2.4 4.4-4.7 2.6c-1.9 1-.3 3.9 1.6 2.9l4.7-2.6 1.4 2.6c1 1.8 3.5.5 2.4-1.3l-1.4-2.6Zm-8.5-13.2 18-8.8c.9-.4 1-1.4.6-2.2-.4-.7-1.2-1.2-2.1-.8l-18 8.8c-.9.4-.9 1.4-.6 2.1.4.7 1.2 1.3 2.1.8Zm-7.8.1h-.2c-.9.6-1 1.6-.7 2.3.4.8 1.3 1.3 2.2.8h.2c.9-.6 1-1.6.6-2.3-.4-.8-1.2-1.3-2.2-.9Zm12.8-11.4c6.3-2.6 9.6-9 6.8-15.7-2.6-6.3-9.3-9-15.7-6.3-6 2.5-9.1 9.1-6.4 15.5 2.6 6.3 9.2 9 15.3 6.5ZM41.3 417c4.2-1.8 9.4-.2 11.3 4.6 2 4.7-.3 9.4-4.8 11.2-5.5 2.3-9.8-.3-11.5-4.4-1.6-3.9-.7-9 5-11.4Zm7.4-12.7c-.3-1-1-1.4-2-1.1l-9.7 3c-4.7 1.5-9.4-1.4-10.7-5.6-1.1-3.5.7-7.6 4.7-8.8l11.2-3.5c1-.3 1.3-1.1 1-2.1-.3-1-1.1-1.4-2-1.1L30 388.6c-6.3 1.9-8.2 7.8-6.7 12.9 1 3.4 3.4 6.3 7.1 6.9l-2.5.8c-1 .3-1.3 1.3-1.1 2 .2.8 1 1.4 2 1.1l19-5.9c1-.3 1.3-1.1 1-2.1Zm-10.3-38.4c-.2-.8-.8-1.5-1.8-1.3l-19.7 3.9c-.9.2-1.3 1.1-1.1 1.9.2.8.8 1.6 1.8 1.4l19.6-3.9c1-.2 1.3-1.1 1.1-1.9Zm-28.3 3.9h-.2c-1 .2-1.4 1.2-1.2 2 .2.8.9 1.6 1.9 1.4h.2c1-.2 1.4-1.2 1.2-2-.2-.8-.8-1.6-1.9-1.4Zm26.6-12.4c-.1-1-.8-1.5-1.8-1.4l-10.1 1.3c-4.9.6-9.1-3-9.6-7.4-.5-3.7 2-7.4 6.1-7.9l11.6-1.5c1-.1 1.5-.9 1.4-1.9-.1-1-.8-1.5-1.8-1.4l-11.6 1.5c-6.5.9-9.5 6.3-8.8 11.6.5 3.5 2.3 6.8 5.8 8l-2.6.3c-1.1.1-1.5 1-1.4 1.8.1.8.8 1.6 1.8 1.4l19.7-2.6c1-.1 1.5-.9 1.4-1.9Zm-25.9-23.8c.1 2 2.9 2 2.8-.1l-.2-3 12.4-.6c4.3-.2 8.2-1.8 8-7.2 0-1.2-.3-2.4-1-3.5-1.2-2-3.8-.3-2.7 1.5.3.4.6 1.4.6 2.1.2 3.1-2.5 3.6-5.1 3.8l-12.4.6-.3-5c-.1-2-2.9-1.9-2.8.1l.3 5-5.4.3c-2.1.1-2 3.4.2 3.3l5.4-.3.2 3Zm10.4-17.8c6.9.2 12.2-4.4 12.3-11.5.1-3-.6-6-2.5-8.2-1.8-1.8-3.7.5-2.3 2.1 1.3 1.8 1.8 4 1.8 6.1-.1 4.5-3.4 7.7-7.2 8.2l.4-18c0-1.9-1-2.3-2-2.3-8.2 0-12 5.5-12.1 11.7-.1 5.8 3.9 11.7 11.6 11.9Zm-.2-20.4-.4 17.1c-5.4-.5-7.9-4.5-7.8-8.8 0-3.8 2.8-8 8.3-8.4Zm-8.5-9.5 19.7 1.9c1 0 1.7-.5 1.7-1.5 0-.9-.5-1.7-1.4-1.8l-10.4-1c-4.6-.4-8.1-2.8-7.6-7.5.1-1-.4-1.8-1.4-1.9-1-.1-1.7.5-1.8 1.6-.2 2.6.3 5.4 3.2 7.1l-1.8-.2c-1-.1-1.7.6-1.7 1.4 0 .8.4 1.7 1.4 1.8Zm11.2-13c6.6 1.1 12.6-2.7 13.7-9.5.5-3.3-.3-6.8-2.6-9.4-1.5-1.8-3.6.6-2.3 1.9 1.9 1.9 2.3 4.6 1.9 7-.8 5-5.3 7.6-10.1 6.8-5-.8-8.4-4.7-7.6-9.5.4-2.2 1.5-4.3 3.7-5.7 1.6-1 .2-3.7-1.5-2.6-3.1 1.9-4.6 4.3-5.1 7.5-1.5 9 5.3 12.9 9.8 13.6Zm3.7-23.7c6.6 1.7 13.1-1.5 14.8-8.5 1.7-6.7-2-12.8-8.8-14.5-6.3-1.6-12.7 1.9-14.4 8.6-1.7 6.6 2 12.8 8.4 14.4ZM22 235.6c1.1-4.1 4.9-7.6 10.9-6.1 4.4 1.1 7.6 5.5 6.3 10.4-1.3 4.9-5.9 7.3-10.6 6.1-5.7-1.5-7.6-6.2-6.6-10.4Zm3.4-18.3 18.5 7.3c1 .4 1.7-.2 2.1-1 .3-.8.1-1.7-.8-2.1l-9.6-3.8c-4.7-1.9-6.4-6.9-4.8-11 .5-1.3 1.3-2.4 2.4-3.3 2-1.5 4.7-1.5 7.1-.6l10.5 4.2c.9.4 1.7 0 2.1-1 .4-.9 0-1.8-.9-2.2l-9.3-3.7c-4.9-1.9-6.8-6.7-5-11.2 1.4-3.6 5.2-5.4 8.9-4.1l11.2 4.4c.9.4 1.7 0 2.1-.9.4-.9 0-1.8-.9-2.2l-11.3-4.5c-5.8-2.3-11 1.3-12.9 6.2-1.5 3.8-1.2 8.1 2 11.2-4.3-.2-7.5 2.7-8.9 6.4-1.3 3.3-1.2 6.8 1.2 9.7l-2.5-1c-.8-.3-1.7 0-2.1.9-.3.8 0 1.8.9 2.1Zm18.8-45.9 17.1 10.2c.9.5 1.7 0 2.2-.7.4-.7.4-1.7-.5-2.2l-8.8-5.3c-4.4-2.6-5.2-7.8-2.9-11.7.7-1.2 1.7-2.2 2.9-2.8 2.2-1.1 4.9-.7 7.1.6l9.7 5.8c.9.5 1.7.2 2.2-.6.5-.9.4-1.7-.5-2.3l-8.6-5.1c-4.5-2.7-5.6-7.7-3.2-11.8 2-3.3 6-4.5 9.4-2.6l10.4 6.2c.9.5 1.7.3 2.2-.6.5-.9.4-1.7-.5-2.3l-10.5-6.3c-5.4-3.2-11-.4-13.7 4.1-2.1 3.5-2.5 7.9.2 11.3-4.2-.9-7.8 1.5-9.9 4.9-1.8 3-2.2 6.5-.4 9.7l-2.3-1.4c-.7-.4-1.7-.3-2.2.6-.5.8-.2 1.8.5 2.2Zm25.7-41.7 9.5 7.5c5.1 4.1 11.1 2.3 14.4-1.8 2.2-2.8 3.2-6.4 1.6-9.8l2.1 1.7c.9.7 1.8.4 2.3-.3.5-.6.6-1.6-.2-2.3l-15.9-12.6c-.8-.6-1.7-.5-2.3.4-.6.8-.6 1.7.2 2.3l8.4 6.6c3.9 3.1 4.2 8.6 1.5 12-2.3 2.9-6.7 3.7-9.9 1.1l-9.5-7.5c-.8-.6-1.7-.5-2.3.3-.6.8-.6 1.7.2 2.3Zm33.4-9.2c.7.7 1.6.6 2.3-.1.7-.8.7-1.6 0-2.3l-7.3-7.1c-3.6-3.4-3.3-8.9-.3-12.1 2.6-2.7 7-3.1 10-.2l8.4 8.1c.7.7 1.6.6 2.3-.1.7-.8.7-1.6 0-2.3l-8.4-8.1c-4.7-4.5-10.8-3.4-14.5.4-2.5 2.6-3.9 6.1-2.6 9.5l-1.9-1.8c-.8-.8-1.7-.5-2.3 0-.6.6-.7 1.6 0 2.3l14.3 13.7ZM132 95.3c2-1.7 3.7-5 3-7.9l1.3 1.5c.7.8 1.5.9 2.3.2.8-.7.9-1.6.2-2.3l-12.9-15c-.6-.7-1.6-.8-2.3-.1-.8.7-.8 1.6-.2 2.3l1 1.1c-3-1-5.8.3-7.8 2-4.9 4.2-6.3 10.8-1.3 16.7 4.9 5.7 11.7 5.9 16.7 1.6Zm-13.4-15.8c3.2-2.5 7.1-2.8 10.1.6l2.3 2.7c2.9 3.3 2 7.4-1 10.1-2.2 1.9-7.9 3.7-12.2-1.3-3-3.5-3.5-8.6.8-12.1Zm25 3.9c.5.7 1.5.8 2.3.2.7-.5.9-1.5.4-2.2l-16.5-21.8c-.5-.7-1.5-.8-2.2-.2-.8.6-.9 1.6-.4 2.2l16.5 21.8Zm16.8-9.6c2.5-1.6 4.6-4 5.2-6.8.5-2.5-2.5-2.7-3.1-.7-.7 2.1-2.2 3.8-4 4.9-3.8 2.5-8.2 1.6-10.8-1.2l15-9.9c1.6-1 1.3-2.1.7-3-4.7-6.8-11.4-6.6-16.5-3.2-4.9 3.2-7.4 9.9-3.1 16.3 3.8 5.7 10.5 7.5 16.5 3.5Zm-11.5-17.4c3.2-2.1 8.2-2.3 11.6 2l-14.3 9.5c-2.7-4.8-.8-9.1 2.7-11.5Zm34.5-23.3c-2.5 1.2-4.7 3.9-5 6.9l-.9-1.8c-.4-.9-1.1-1.2-2.1-.8-.9.5-1.3 1.3-.8 2.2l12.2 25.3c.9 1.9 3.9.4 3-1.4l-4.3-8.8c2.3 1.6 5.5 1.4 8.2 0 6.1-3 8.2-9.3 5.6-15.2-3.3-7.3-10.3-9.1-16-6.3Zm9 18.9c-3.8 1.6-7.8.4-9.6-3.2l-1.6-3.2c-1.9-4 0-7.9 3.8-9.7 4.1-2 9.2.2 11.4 5 1.8 4.1.8 8.8-4 11.1Zm32.7-23.2c-3-7.7-9.6-9.1-15.3-6.9-5.5 2-9.4 8-6.7 15.2 2.4 6.4 8.6 9.7 15.3 7.2 2.8-1 5.4-2.8 6.6-5.4 1-2.3-1.8-3.2-2.8-1.3-1.2 1.9-3 3.2-5 3.9-4.3 1.6-8.4-.3-10.2-3.6l16.8-6.3c1.7-.7 1.7-1.8 1.4-2.7Zm-19.3 6.4c-1.5-5.3 1.2-9.1 5.3-10.5 3.6-1.3 8.5-.4 10.8 4.6l-16.1 6Zm37.3-2.6c-.4.4-1.3.9-1.9 1.1-3 .9-4.1-1.7-4.8-4.1L233 17.7l4.8-1.4c2-.6 1.2-3.2-.8-2.7l-4.8 1.4-1.5-5.2c-.6-2.1-3.8-1.2-3.1.9l1.5 5.2-2.9.8c-1.9.6-1.3 3.3.8 2.7l2.9-.8 3.4 11.9c1.2 4.2 3.6 7.6 8.8 6.1 1.2-.3 2.2-.8 3.2-1.7 1.7-1.7-.5-3.8-2.1-2.2Zm4.6-20.3c-.2-.9-1.1-1.2-1.9-1-.8.2-1.5.9-1.3 1.9l4.7 19.5c.2 1 1.1 1.3 2 1.1.8-.2 1.5-.9 1.2-1.8l-4.7-19.5Zm-4.9-6c.2 1 1.2 1.3 2 1.1.8-.2 1.6-.9 1.3-1.9v-.2c-.3-1-1.3-1.3-2.1-1.2-.8.2-1.6.9-1.3 2v.2ZM268.1 27c-.4.4-1.3.8-2 .9-3 .6-4-2-4.5-4.6l-2.4-12.2 4.9-.9c2-.4 1.5-3.1-.5-2.7l-4.9.9-1-5.3c-.4-2.1-3.6-1.5-3.2.6l1 5.3-2.9.6c-2 .4-1.6 3.1.5 2.7l2.9-.6 2.4 12.2c.8 4.2 2.9 7.9 8.2 6.9 1.2-.2 2.3-.6 3.3-1.4 1.8-1.5-.2-3.9-1.9-2.4Zm13.7-22.6c-5.8.7-11 5.5-10.2 13.1.8 6.8 6 11.4 13.1 10.6 2.9-.3 5.9-1.5 7.7-3.6 1.6-2-1-3.6-2.4-2-1.6 1.6-3.7 2.4-5.8 2.6-4.5.5-8.1-2.3-9.1-6L293 17c1.9-.2 2.1-1.3 2-2.3-1.1-8.2-7.1-11.1-13.2-10.4Zm-7 12c-.2-5.5 3.4-8.5 7.6-9 3.8-.4 8.3 1.6 9.4 7l-17 2Zm48.6-14.1c-5.8-.1-11.7 4-11.8 11.6-.1 6.9 4.4 12.1 11.6 12.3 3 .1 6-.7 8.2-2.6 1.8-1.8-.5-3.7-2.1-2.3-1.8 1.3-4 1.8-6.1 1.8-4.5 0-7.7-3.4-8.2-7.1l18 .4c1.9 0 2.2-1 2.3-2 0-8.2-5.6-11.9-11.7-12.1Zm-8.6 11c.5-5.5 4.5-8 8.8-7.9 3.8 0 8 2.8 8.4 8.2l-17.1-.3Zm39.1-8.9c-3.5-.4-7.2.6-9.2 3.7l.3-2.6c.1-1.1-.6-1.7-1.4-1.8-.8 0-1.7.4-1.8 1.4l-2.3 19.7c-.1 1 .5 1.7 1.5 1.8 1 .1 1.7-.4 1.8-1.4l1.2-10.1c.6-4.9 5.1-8.1 9.5-7.6 3.7.4 6.7 3.7 6.2 7.9L358.3 27c-.1 1 .5 1.7 1.5 1.8 1 .1 1.7-.4 1.8-1.4l1.4-11.6c.8-6.5-3.8-10.7-9.1-11.3Zm30.9-.4c-1.1-1.2-2.4-2-3.9-2.2-3.4-.7-7.2 1.1-8 5.1l-.2 1.2-2.4-.5c-1.7-.3-2.3 2.4-.6 2.7l2.4.5-3.5 18c-.2 1 .5 1.6 1.4 1.8.8.2 1.7-.2 1.9-1.2l3.5-18 4.3.8c1.6.3 2.1-2.4.5-2.7l-4.3-.8.2-1.2c.5-2.4 2.6-3.2 4.4-2.9.8.2 1.6.6 2 1.2 1.1 1.4 3.6-.3 2.3-1.9Zm21.6 11.6c-1-.3-1.8.2-2 1.2l-.4 1.4c-.9-3-3.5-4.7-6-5.4-6.2-1.7-12.5.8-14.5 8.3-2 7.3 1.7 13 8.1 14.7 2.6.7 6.2.2 8.2-2l-.5 1.9c-.3 1 .1 1.7 1.2 2 1 .3 1.8-.2 2.1-1.1l5.2-19.1c.2-.9-.2-1.8-1.2-2Zm-4.2 9-.9 3.5c-1.2 4.3-5 5.8-8.9 4.8-2.9-.8-7.5-4.4-5.7-10.8 1.2-4.5 5.2-7.7 10.4-6.2 3.9 1.2 6.3 4.4 5.1 8.7Zm24.7-2.4c-3.3-1.3-7.1-1.2-9.8 1.4l.9-2.5c.4-1-.2-1.8-1-2.1-.8-.3-1.7 0-2.1.9l-7 18.6c-.4.9 0 1.7 1.1 2.1 1 .4 1.7 0 2.1-.9l3.6-9.5c1.7-4.6 6.9-6.6 11-5 3.4 1.3 5.6 5.2 4.1 9.1l-4.1 10.9c-.4.9 0 1.7 1 2.1 1 .4 1.7 0 2.1-.9l4.1-10.9c2.3-6.1-1.1-11.3-6.1-13.2Zm32 18.4c-1-3.5-2.8-5.6-5.8-7-8.2-4-13.8 1.5-15.8 5.6-2.9 6.1-1 12.9 5.2 15.9 3 1.4 6.6 1.6 9.8.2 2.1-.9.4-3.6-1.2-2.8-2.4 1.2-5.1.9-7.2-.1-4.5-2.2-5.7-7.3-3.6-11.7 2.2-4.6 6.9-6.7 11.3-4.6 2 1 3.7 2.7 4.4 5.1.5 1.8 3.5 1.2 2.9-.7Zm16.3 4.8c-5-3-12.1-2.3-16 4.3-3.5 5.9-2.2 12.7 4 16.4 2.5 1.6 5.6 2.4 8.4 1.8 2.5-.7 1.4-3.5-.7-3-2.2.3-4.4-.4-6.2-1.5-3.9-2.3-5-6.7-3.6-10.2l15.4 9.2c1.6 1 2.5.2 3-.7 4.1-7.1 1.1-13.1-4.2-16.3Zm1.8 14.1-14.7-8.8c3.1-4.5 7.8-4.7 11.5-2.5 3.3 2 5.6 6.4 3.2 11.3Z" class="st0"/><path d="M486.1 221.5h-.2c.1.3.2.3.2 0Zm16.4 12.1c.5 0 .7-.2.6-.6-.5 0-.8.1-.6.6Zm4.9-14.2c.2-.4 0-.6-.3-.6-.2.5-.1.7.3.6ZM255 232.7c.6.5.4-.6.4-.9-.5 0-.9.5-.4.9Zm252.7-2.1v-.2h-.3v.2h.3Zm1 .7c.4 0 1.3-.2.8-.8-.4-.6-1 .4-.8.8Zm-20.8-10.2c.2-.3 1-.4.9-.7-.7-.4-1.1 0-1.6.4-.1.4.4.7.7.3Zm-232 9.5h.2v-.3h-.2v.3Zm244.6 5.1h.3v-.4h-.3v.4Zm1.4-2.1v-.9c-.5-.5-1.5-.5-1.7.3 0 .4-.2.7-.5.8v.3c.5 0 1-.3 1.4-.4-.1-.2-.2-.5-.3-.7.7-.3.7.4 1 .7Zm-70.1 105.5-.6-.6c-.2-.5.5-1 .6-1.5-.1-.5-.2-1-.2-1.4 1.1-.3.6-.8.4-1.6.3-.1.6-.2 1-.2v-1.3c-.3-.1-.5-.3-.7-.5 0-.7.7-1.3 1-2-.1-.3-.1-.6-.1-.9.4 0 .7 0 1-.2 0-.3-.3-.5-.7-.7-.3-.8-.2-1.4.7-1.6 0-.2-.1-.3-.5-.4.2-.2.3-.4.5-.6-.3-.7-.8-.7-1.3-1 .8 0 1.3.4 2.1.2-.3-1.1-1.2-.8-2-1.3.7.1 1.1-.2 1.2-.9-.4-.1-.6-.3-.5-.6.9-.1.5-.6.7-1.3.3 0 .6-.2.9-.3-.2-.5-1-.5-1.1-1 .1-.6.4-1 .3-1.5.1-.6.8-.7.7-1.3-.3-.3-1.3-.5-1.3-.9l.7-.2c0-1.1-.5-2.6.5-3.4-.5-.7-.4-.5.2-1.1-.1-.4-.4-.5-.9-.2v-.4c.5 0 1 0 1.3-.2 0-.3-.2-.5-.6-.7.3-.3.5-.6.5-1-.4-.2-.8-.4-1.2-.4.4-.6.5-.6.3-1.3.3-.1.6-.2 1-.2-.2-.5-.4-1-.8-1.4 0-.3.2-.5.7-.6-.1-.7-.4-1.5-.7-2.1l.3-.6c-.5-.5-1-.9-.9-1.7-.3-.7-.6-1.2-.8-2 .3-.1.6-.1.9-.1-.2-.3-.1-.5 0-.8-.5-.4-1-1 0-1.1-.6-.9-.5-1.7-.4-2.7-.4-.4-.6-.9-1.2-1.2 0-.9 0-1.7-.5-2.5-.4-.6-.3-.6.3-.8-.1-.4-.2-.6-.1-.9-.3-.3-.4-.7-.3-1.2-.3-.1-.5-.3-.6-.5 0-.7.5-.7 1-.9v-.8c-.3-.3-.8-.4-1.2-.4.1-.9-.3-1.2-.4-1.9h1.2c-.2-.2-.4-.5-.5-.8l-.9-.3c0-.5.4-.9.6-1.3-.7-.9-.2-1.9-1.3-2.5-.2-.7-.2-1.5-.4-2.2l.6-.3c-.2-.3-.5-.6-.7-.9-.2 0-.5.2-.7.5l-.3-.2c.4-1.6-.1-2.8-.9-4.2 0-1.1-.8-1.2-1.4-1.9.7-1.2-.1-1.7-.2-2.9-.6-.3-.5-.9-1-1.4-.2-.5.2-1.2-.3-1.5-.4-.3-.4-.6-.2-1-.8-.2-1.3-.8-2.1-1 .2-.7.2-.5-.2-1.1 0-.3.4-.5.8-.6-.2-.3-.3-1-.8-.8l-.5.4c-.4-.1-.8-.4-1-.7.1-.2.3-.4.4-.6-.6-.7-1-1.7-1.7-2.3-.2 0-.4 0-.6.2-.3-.2-.4-.5-.4-.8.2.1.5.2.7.3.6-.6-.3-1-.7-1.3v-.5c-1.4-.2-.6-1.3-.8-2.3-.4-.6-.7-.3-1.3-.3-.3-.6-.4-1.1-1.2-1.1-1.1 0-1-1.4-1.3-2.1-.3 0-.6 0-.9-.1 0-.5.1-.9.1-1.4-.7-.3-1.3-.5-1.4-1.3-.2-.9-1-.4-1.5-.8 0-.2.2-.4.6-.5v-.8c-.7-.3-.7-.6-1.4 0-.9 0-.5-1-.6-1.5-.6-.9-1.3 0-2.1-.6-1-.5-.6-1.5-1.4-2-.4-.4-1.2 0-1.6.4.3-1-.2-1.7-1.1-2-.5-.4-.8-.6-1.4-.9-.3-.5-.7-1.1-1.2-1.5-.2 0-.4 0-.6.1-.2-.3-.3-.7-.3-1.2-1.1.1-1.5 0-1.5-1.2-.1 0-.3.2-.3.6-.4 0-1-.3-1.2-.7.1-.2.3-.4.4-.6-.6-.8-1.3-.9-2.2-1.1-.8 0-.2-1-1-.8-.6.6-1.3.6-1.8-.2 0-.2.2-.4.3-.6-.4-.5-.8-.5-1.4-.4-.6-.3-1.1-.6-1.9-.6-.4-.4-.5-1.7-1.1-1.7.1.3.2.6.3 1h-1c-.2-.5-.2-1.1-.3-1.6-.3 0-.7 0-1 .3-.5-.3-1.4-1-1.3.1-.4-.5-.9-.6-1.3-1 0-.2 0-.4.2-.6-.3 0-.5-.2-.8-.4 0 .8-.6.6-1.1.4-.4-.3-.7 0-1.2 0-.3-.7-1-.7-1.4-1.3-.5 0-.7.4-1.1 0-.5-.7-1.1-.4-1.8-.5-.6-1-1.8-.4-2.7-1.2-.1-.3-.2-.6-.3-.8-.9-.2-1.5.3-2.3-.4-.4-.6-1.1-.3-1.7-.7-.9-.4-1.4.5-2.3-.3 0-.2 0-.4.1-.5-.7-.6-1.3-1.2-2.1-.4-.5-.2-1-.8-1.5-.5-.8.3-1.5-.1-2.3.2-.7-.3-1.3-.1-2-.2-.9-.3 0-1.3-1-1.1.3.4.4.7.2 1-1.1 0-1.4-1.2-2.4-1.3-.6.2-1.3.3-1.8-.2-.6-.5-1-.2-1.5.2-.4-.1-.8-.4-1.1-.6-.5.2-1.1.2-1.3.6l-.6-.6c-.9.4-1.5-.2-2.3.1-.8.3-1.2-.2-2 0-.7-.1-.9-.7-1.7-.3-1.1.4-1.4-.4-2.5-.6-.6.2-1.4.5-2 0-.7.3-1.4-.3-2.2-.5-.5-.4-1.8-.4-2.1.3-.7-.6-.9-.7-1.8-.3-1.2.8-2.4-.5-3.6-.4-.5.3-.7-.2-1 0-.6.1-2.2-.8-2.1.2s-.5-.4-.5-.4c-.3.3-.6.5-.9.8-.4-.2-.5-.6-1-.6-.5.2-1 .3-1.5.2-1 0-2.8.7-3.5-.3-.5 0-1.2.1-1.5.6-.6.5-1.3 1.1-1.8.1-1.1.2-2 0-3.1 0-.6.5-1.4.6-2 0-.8-.1-1.5.9-2.1 1-1-.6-2.5 0-3.5.2-.9 0-1.8 0-2.5.7-1.1-.1-2 .5-3.1.8-.6.8-.7 1-1.8.8-1.2.3-2.2-.2-3.3 0 .9-.3.9-.8 1.2-1.6.5-.1.9-.2 1.3-.2.4.6-.4.8-.3 1.4.7-.4 1.9-.8 1.3-1.8v-.3h.4c0 .4 0 .7.1 1 .7.7.9-.4.9-1 .4.2.9.2 1.4.1.3-.4-.3-1-.7-.9-.7 0-1.3-.5-1.9-.6-.2.2-.5.3-.8.5-.7-.2-1.1-1-1.9-.4 0 .5.2.7.6 1-.3 0-.6.2-.8.4-.6-.9-1.4-.6-1.5.4-.3-.1-.6-.4-.9-.5-.4.1-.6.3-1 0 0 .3-.1.6-.3.8-.6 0-.8-.5-1.4-.5-.6.4-1.2.6-1.7 1.1-.7.2-1.7.4-2.2 1-.7.3-.8.8-1.6.4 0 1.4-1.5 0-1.7 1.4-.5-.3-.8-.5-1.4-.2-.3 1.2-.9 1.1-1.9.7h-.3c0 .4.1.7.2 1-.6 0-.8.2-1.1-.4-1 .5-1.6 1-2.8.8.2.7-.2 1.7-.9 1-.6-.4-.6-.2-.7.4-.2 0-.5-.1-.7-.2-.5.5-.9.9-1.1 1.5-.5.1-.9.3-1.4.5-.3-.1-.7-.2-1-.2-.1.5.2 1.3-.5 1.3s-.9.6-.9 1.1c-.5-.2-.8 0-1.3-.2l-.3.9c-.3.1-.6.3-.8.5-.7 0-1.6 0-1.6.9.2.2.3.4.5.6-.7 0-.9.4-1-.5-.3 0-.6 0-1 .1-.2 1.3-1 .9-1.8 1.7-1.5-.7-.4 1.3-1.9 1.1-.2-.5-.8-.9-.6-1.4 0-.9.6-.6 1.1-1-.7-.2-1.2-.4-1.9-.4.6.4.7 1.2.2 1.7-.3.2-.4.5-.3.8.9-.3 1.3-.2 1.3.9-.5.7-1.5.3-1.7 1.4l-.8.2c0 .2 0 .4.2.5-.5 0-.8.2-.8.8-.7 0-.8.2-1-.5h-.2c0 .6-.2 1-.5 1.2-.4-.1-.8-.2-1.2-.1.2.4.2.8 0 1.1-.5.4-1.1-.2-1.2-.7.7-.7-.1-.8-.1-1.6h-.3c.1.4 0 .8 0 1-.6 0-.3-.9-1.1-.6.1.5.3 1 .5 1.4 0 .6-.3 1.2.5 1.1-.3-.4-.4-.8-.3-1.1.4 0 .7.2 1 .6.3.7-.6 1.8-1.3 1.8l-.2.6c-.7.2-1.6-.6-2.3-.8-.2 0-.3.4-.3.9-.5.2-.7.5-.8.8 0 .7-.9.2-.7 1h.8c.2-.5.3-1 .9-.9.2.3.3.6.3.9-.6.8-1.9.5-2.3 1.3.1.3.4.5.8.6-.4 0-.7 0-1.1.1-.1.3-.2.7-.1 1l-.6.2c-.5 1.1-1.6 1.3-2.7 1.6 0-.3.2-.6.6-.9 0-.2-.1-.4-.2-.7.7-.5.5.8 1.1.7.2-.7 1.4-1.9.8-2.6-.5 0-.8 1-.9 1.4-.7-.3-.5-1.5-.9-2.2.4-.7 1-1.4.9-2.2.6 0 1.2.4 1.8.7.9-.2.5-1.3.5-1.9.4-.6 1.1-.2 1.7-.5 0-.2-.2-.4-.5-.6 1.5-1 1.4 1.8 2.9 1.1 0-.4-.5-.9-.7-1.3-.4-.2-.7.5-1.1 0 0-.6.6-1.3.8-1.9.3-.1.6-.2.9 0 0-.4-.1-.7-.2-1.1.4 0 .7 0 .9-.2 0-.3-.1-.5-.5-.6.6 0 1.2 0 1.7.2.3-.5.7-.9.8-1.5.7-.3 1 .2 1.3-.7 1 .2 2 .5 2.8.9 0-.9-.5-.2-1-.7-.5-.3-1.1-.4-1.6-.6-.9-.5.2-.7.7-.6.4-.6 0-.8-.5-.9.9 0 1.2 0 1.5-.9.2 0 .5.1.7.3.5-.3.4-.9 1.2-1 .6 0 .7-.7 1.4-.7-.5-.8-1.9-1.6-2.8-1.3 0 .3 0 .6.2.9-.2-.1-.4-.2-.7-.2 0 .3-.2.5-.3.8-.3 0-.5.2-.8.3 0 .3.1.5.6.6-1.2-.3-1.7 1.1-3 1 0 .8-.8 1-.9 1.8-.6.1-1 .6-1.5.8-.2 0-.4 0-.6-.1-.1.3-.2.6-.2.9-.2 0-.4-.1-.7-.1 0 1.4-.8 1.2-1.7 1.7-.2.5-.1.7 0 1.2-1-.2-1.1.3-1.2 1.1-1 .2-.5 1-1.3 1.1-1 0-1.4.6-2.1 1.2 0 .2.1.4.2.6-.8 1.1-1.7 1.9-2.8 2.5 0 1.1 0 1.3-.9 1.9 0 .4 0 .7-.1 1-.7.3-1.9.4-2.5 1 .4.4.9.9.8 1.5-.9 0-1.4 1.2-1.6 2-.2 0-.4-.1-.6-.2-.7.4-.6 1.2-1.5.8-.1.3-.2.7-.3 1 .3.8.9.6 1.3 1.1-1-.3-1.2 0-2.2.1-1 .5-.5 1.7-1.5 2 0 .7.2 1.3-.7 1.2-.3 1 0 1.4-1.1 1.9.3 1.2 0 1.5-1.1 1.9.2.6 0 1.1.2 1.7-.5.3-1.3.5-1.7 1 1 .8-.4 1.5-.8 2.3.2 1.2-.5 1.9-1.6 1.9-.3.7-.6 1.3-.4 2.1-.1.3-.4.5-.8.5 0 1.1-.6 1.4-.6 2.4-.3.7-.8 1.3-.4 2.1 0 .8.8.2.7.9-1-.2-1.3.2-1.2 1.2-.2-.2-.4-.3-.6-.5-.8.4-.7 2-.6 2.7-.4.2-.8.4-1.3.6 0 .6.6.9.7 1.5-.4.2-.7.4-.9.6 0 .2.2.4.2.6-.2.6-.7 1.1-1 1.7 0 .5.1.9.2 1.4 0 .2-.1.4-.2.6l.5.2c.1.8-.9.6-1.1 1.1-.1.5.4.9.3 1.4-.4 0-.7 0-.9.1-.2.5.2.9.2 1.4-1.3.6-.2 1-.8 1.9.1.2.2.4.4.6-.2.7-.9.7-.6 1.6-.1.9 0 .8.3 1.5-.2.7-1.1 1.3-1.5 1.9.3.6.5 1.1 1.1 1.4-.5.6-2 .6-1.4 1.7l-.6.6c.6 0 .8.5 1.1 1-.5.8-.6 1.6-1.1 2.3.3.5.6 1 .1 1.5-.4.7-.2 1.8.2 2.5-.3.4-.5.9-.7 1.4.4.7 1 1.3 0 1.8 0 .7-.2 1.4-.1 2.1-.6.8-.2 1.5-.3 2.5.4 0 .7.3.8.6-.2.7-.9.7-.8 1.5 0 .8.6 1 .5 1.9l-.5.3c0 .9 0 1.7-.2 2.5.3.6.2 1.2.6 1.7-1 1.2.4 1.5 0 2.9-.7 1.1-.2 2.2-.5 3.4.3.5.2 1 0 1.6-.2.7.3.9.7 1.4.2.9-.2 1.6.4 2.3.1.6-.6.8-.4 1.5-.4.9.5 1.3.5 2-.3-.3-.5-.8-1-.6-.3.3-.5.6-.6 1 .7.6.9 1 .8 1.9.9.4 1.6.8 1.1 1.9-.6.8-.3 1 .1 1.8 0 1.2-1.2 3.1-.8 4.1 0-.7 0-1.5.9-1.1.7.4.6 1.1-.3 1.1.3.3.7.5.8.9-.2.7.2 1.1.6 1.6.6.6 0 1.5.3 2.3.4.6.9 1.1 1.1 1.7-.5.7.6 1.5.8 2.2 0 .6-.7.7-.8 1.1 0 .8 1.9 1 1.6 1.8-.4.2-.8.7-1.2.7.2.2.3.5.4.8.5.2 1.3.4.8 1.1 1 .7 1.5 1.5 1.1 2.7.5.6 1.1.9 1.7 1.3.2 1.1 1.3 1.7.2 2.9.8.9 1.6 1.4 2.7 1.9.2.6-.6.3-.7.9-.4 1.4 1.6 2.9 2.4 3.9 0 .2-.1.4-.2.6.6 1 1.8.8 2.4 1.7 0 .7 0 1.2-.4 1.8.6.5 1.4.8 1.9 1.5 0 .2-.1.3-.1.5.4.2.7.5.9.9v1c.4.5 1.1.7 1.7 1 .3.8 1 1.3 1.7 1.7.4.9 1.1 1.1 1.7 1.7 0 .2-.1.4-.2.6.6.6.8 1.4 1.6 1.8.3 1.8 2.3 1.5 3.5 2.4 0 .3-.1.6-.2 1 .7 1 1.9 1.3 2.5 2.4.3.3.2.6-.1.9.5.6 1.3.9 2.1 1.1.6 1.2 1.8 1.8 2.9 2.4.5 1.2 1.8 1.5 2.7 2.3.5.6 1.2.5 1.6 1.1 1 1.2 2.2 1.4 3.6 1.8.3 1 1.1 1.4 1.9 1.9 1.2.2 2 .9 2.8 1.7 1 .7 2.3 1.1 3.4 1.7.3.7.3 1.3 1.3 1 .5.7 1 .3 1.7.2.9 1.2 1.9 1.4 3.3 1.7.2.7.8.9 1.4 1.2 1 .5 1.9.8 3 .6.8.2 1.4 1 2.3 1.1.7 0 1.1.6 1.7.9.8.2 1.4.5 2.2.3.7-.2.9.5 1.5.6.9.4 1.8.2 2.7.3 1 .7 1.7 1.3 3.1 1.2.7-.2 1.3-.5 1.9 0 .8.1 1.7.4 2.4 1 2.3 1 4.1.6 6.4.7 1.3-.2 2.7.3 3.9-.1.6 0 .9.4 1.5 0 .5.3 1.1.5 1.6.9.3 0 .6-.2.9-.2 0 1.2 1.3 1 2.2 1.1.8.2.9-.7 1.6-.1 1 .7 2.8-.6 2.9 1h.8c-.5 0-.8-.3-.9-.6.4-.9 1.9 0 2.6 0 .1.3.2.7.1 1.1.5 0 .9 0 1.2-.4-.6.1-1.1 0-1.2-.6.7-.9 1.8-.5 2.6 0 .7 0 1.3.3 1.9.4 1.6-.3 3-.8 4.6-.3.7-.4 1.4-.5 2.1-.4 4.3-11 10.3-20.4 17.9-28.1 2.8-2.8 6.4-5.8 11-8.6 0-.3 0-.6-.1-.9-.5-.1-.8.9-1.1 1.3-1-.2-1.3.8-2.4.5 0-1.1.2-1.5 1.4-1.1 0-.5-.7-.8-.9-1.1l.2-.3c1.2.1.6-.8 1.5-.7.6.5 0 .7.2 1.4.7 0 .8-.6 1.4-.9 1 .5.1 1.1-.1 1.8.5-.3 1.1-.6 1.7-.9-.6-.3-.5-1.1-1.4-1.2v-.2c.6-.2 1.3 0 1.6-.8-.2-.7-.6 0-1.1-.2 0-1.1.7-.7 1.4-.7v-.6c.5 0 .8.8 1.1 1.1.2.7 0 1.5-.6 2.1 7.4-3.9 17.1-6.8 29.5-7.2 8.3-.3 16 1.2 22.9 4.4h.2c0-.3 0-.4-.2-.6.6 0 1.2.2 1.5-.5.4-.8 1.2-.8 1.2-1.9.6-.3.9-.7 1.6-.7 0-.5-.3-.6-.6-1 .2-.7.3-1.2 1.1-1.2.2-.9 1-1.2 1.8-1.2.3-.8-.5-.4-.5-1.2.2 0 .4.1.6.2.2-.5-.1-1.3.4-1.6.5 0 .9-.4 1.4-.5.1-.7-.4-1.8-.2-2.5.8 0 1-1.2 1.3-1.8.4-.6 1.1-.1 1.7-.5 0-.7-.9-.7-1-1.4.4-.3.8-.4 1.3-.5 0-.4-.1-.7-.3-1.1 1.1-.2 1-1.4 2.2-1.3.3-.7-1-.8-.9-1.3 1-.1.8-1.1 1.7-1.3.2-.8-.6-.6-.6-1.3.6.3.8-.1 1.3-.3-.3-1 .7-1.3.8-2.2-.3-.7-.9-.5-1.3-1 .7.2 1.3-.2 2 0 .3-.4 0-1-.1-1.4-.4-.9.6-1.7 1.4-1.6.3-.6-.3-.7.3-1.4 0-.2-.1-.4-.5-.6-.3-1.3.7-2 1.2-3.3-.3-.4-.4-.7-.5-1.1.8-.1.7-1 1.1-1.6-.3-.5-.3-.8-.3-1.4.5.3.7.6 1.2 0-.2-.6.2-1 0-1.7-.4-.3-.6-.5-.6-.8 1.5-.1.1-.9.8-1.9.4-.2 1.1 0 .9-.8Zm-208.1-66.2c-.6.5-.9-1.1-.6-1.3.4-.1.8 1.1.6 1.3Zm5.8 100.5c-.7 0-1.5-.7-1-1.4-.3-.4-.6-.6-.9-1-.1-.7.8-1.1 1-.4.1.7.7.9 1.3 1.2 0 .5-.2 1.1-.4 1.6Zm65.7-152.1c-.5 0-.8-.1-1-.3.5-.4 1-1.1 1.6-1.1.2-.8.5-.9.8-.1.5-.1 1-.2 1.5-.1.4-.2.9-.5 1.3-.8.6 0 .7 0 1.2-.4.2 1 .7.3 1.1-.2.5 0 .7.4 1 0 .3-.4 1.1-.2 1.6-.4 1 1 1.8-1.6 2.4 0v.4c-.5 1-.6.1-1.2.1 0 .3 0 .6.3 1-.4.1-.7.1-1 0-.2-.7-.5-.8-1.2-.6 0 .3 0 .6.2.9-.7.6-1.2-.1-1.8-.4-.9.1-.9.8-.9 1.5h-.1c0-.3 0-.7-.1-1-.7-.2-.6.7-1.1.9-.8 0-.8 0-1 .8-.3-.3-.5-.7-.9-.8-.6.5-.6.5-.2 1.2-.1.2-.3.4-.5.4.3-.9-.9-1.9-1.6-1.4 0 .7.5 1.1.2 1.7-.6.1-.9.5-1.6.4v-.9c.5-.2 1.7 0 1.1-.9Zm14.3 19.9c.7.2 1.4-.2 2.1 0 .1.7-.6.6-1.1.7-.6-.2-.9.3-1.5.2-.9-.1-1.7.2-2.5 0 .8-.2 2.3-.4 3-.9Zm-1.9-5c.7 0 .7 1 0 .9-.1-.3-.1-.6 0-.9Zm-8.8 36.3c-.4.6-1 .3-1.6.4v-1.2c.7.2 1.3 0 1.6-.7.5 0 1.1-.1 1.6-.2.4.9-1.3.8-1.8 1.1 0 .2.1.5.2.7Zm1.7 125.2c.8.7 1.7.4 2.6.7 0 .4.2.7.4.9.4-.2.7-.4.9-.8.4.5 1.1.9 1.7 1.2.4 0 .8 0 1.2.2.5-.3 1.7-.4 1.8.3-1.5.2-3.2-.2-4.7-.1-.7-.2-1.4-.7-2.1-.7-.5 0-1.2.2-1.6-.2-.5-.6-1.4-.7-1.7-1.3.1-.2 1 .2 1.4 0Zm1.2-127.4v-.3h.3v.3h-.3Zm4.3 123.5c.2 0 .2.2.1.5-.7.5-.9-.3-.1-.5Zm1.2 1.6v-.2c.3-.1.6-.1.9 0 0 .3-.3.4-.9.2Zm-12.7-164.6c.3-.4 1-.8 1.3-.2 0 .6 0 1.1-.6 1.4.1-.8.1-1.2-.8-1.2Zm-.5 9.2c1.3-.6 2.8-1.8 4.3-1.4.6-.5 1.2-.3 1.9-.5.8-.6 1.6-1 2.7-1 .7.1 1.3-.7 1.9-.3.5.5.7.6 1.4.5.2.7-.8.5-1.2.8-.4.4-.6.6-1.2.4.2-.7 1.6-.5 1-1.3-.8.1-1.8.5-2.6.8 0 .2 0 .4.1.6h-1.2c-.4-.3-1.5-.7-1.3.2.2 0 .4.1.6.2-.3 0-.7 0-1-.1-.5.2-.9.8-1.3 1.2-.7.2-.2-.6-.9-.8-.6-.2-.9 0-1 .7-1 .2-2.2.7-3.1.5.2-.6.5-.6 1.1-.6Zm-1.7-19.2c.4.1.8.2 1.2.4.1 1-.9 1.2 0 2.4-.1.2-.3.3-.4.4.3-1.1-.8-1.7-1.6-1.4-.4 1-1.2 0-1.1-.6 1.2.2 1.2-.7 2-1.1Zm-13.6 5.4c1.1 0 1.5-.7 2.6-.5.1-.3.1-.7.1-1 .4 0 .8 0 1.1-.4.2.1.4.3.6.4.8 0 .9-.9 1.6-1.1.4 0 .8-.1 1.2-.4 1.1 0 1.9-.5 3-.4.1-.4.3-.6.5-.6.6.4.8 1.4 1.5 1.6h1c-.1.3-.2.6-.4.9-.3 0-.6-.1-1-.2l-.6.6h-.8v-.4c.9 0 1.8-.5.6-1.1-.5 0-2 .4-2.2.9.2.2.3.4.5.6-.7 0-1.2.1-1.8-.3-.8-.6-2.5 0-2.1 1.1-.3-.2-.6-.6-.9-.6 0 .9.9 2.2 1.6.9.9 0 .9 0 1.2-.8v1.2c-.2 0-.4-.1-.6-.2-.3.7-.4 1-1.2.9-.6.5-1.1.5-1.8.5 0-.6 1.2-.2 1-1.1-.5-.6-1.7.9-2.5.6 0-.5-.3-.7-.6-.6 0 .4 0 .8.2 1.1l-.2.3c-.8-.2-2.3-1-1.8-2.1Zm12.6 6c-.5 0-.6-.3-.3-.7.7-.4.9.4.3.7Zm.3 22.3h-.3v-.3h.3v.3Zm-1.2-22.4h-.2v-.2h.2v.2Zm-4.2 2.1v.2h-.2v-.2h.2Zm-2.5 1.3c-.6-.9.8-.7 1.3-.9.3.6-.9 1-1.3.9Zm-4.1-6.5c-.7.4-.7-.3-.2-.6.3 0 .4.2.2.6Zm-4.6 0c0-.2-.1-.4-.2-.6.3-.2.7-.4 1-.6.2.2.5.3.8.5.3 0 .4-.3.3-.8 1.2.2.4-1.4 1.4-.4-.1.3-.3.7-.4 1-.7.5-1.8.5-2.2 1.3-.3.7-1.8.3-1.8-.2.4 0 .7-.1 1.1-.2Zm3.1 1.1c-.7.6-1.2.2-1.7-.4 0-.6.8-.3 1.1 0 .5 0 .6.2.6.4Zm-4.6 1.7c0-.5-1.1-2.2 0-1.9 0 .3.1.6.1 1 1.1.4 1.7-.3 2.8 0-.4.6-.8.3-1.3.6-.4.9-1.4.9-2.2.9 0-.3.1-.5.6-.6Zm-3 .5c0-.2-.1-.4-.2-.7.2-.2.4-.4.4-.7.8-.3 1.7-1.1 2 .2-.5 1.1-1.5 0-2.1 1.5.2.7 1 0 1.6.2v.4c-.9.2-1.5.1-2.4 0 0-.8-.1-.7.6-.9Zm1.3 74.5h1.2v1.4c.1.2.3.4.4.6-.3.2-.5.5-.7.7-.6-.2-1.3-.6-1.4-1.3.1-.2.4-.3.7-.3 0-.3-.1-.7-.2-1Zm2.7 62.5c0 .5.1.8.5 1.1-.6 0-.6-.2-.9-.7-.1-.8-1.5-.7-1.6-1.4l.4-.3c.5.6 1.2.6 1.5 1.2Zm-4.3-52.5c0-.6.3-1.4 0-1.9 1 0 .9-.6.3-1-.3-.6.4-.7.7-1.1 0-.7-.5-1.1-.6-1.7.2.1.4.2.7.2v-.7c.4 0 .7 0 .9.1-.1.5 0 .8.4 1.2-.5.5-.4.9-.4 1.5-.6.5-.5 1.2 0 1.7 0 .6 0 1 .2 1.5-.1.7-.3.9.2 1.6-.4.6-.4.5-.2 1.2-.3.1-.6.2-.9.1.2.2.3.4.5.6 0 .7-.3 1.3 0 2-.5.7.5 1.2-.3 1.6-.7-.1 0-.8-1-1-.8-.9.3-1.3.5-2.2-.6-.7-.5-1.5-1.1-2.1-.3-.3-.3-.8-.5-1.2.5 0 .7 0 .9-.3Zm2.3 8.3c-.1.2-.4.3-.8.3 0-.3-.7-1.4-.2-1.4.3.4.8.7 1 1.2Zm-6.3-65.2c-.7 0-.8-.3-1.3.3-.2-.8 1.8-1.5 1.3-.3Zm-3.1 124c-.4 0-.6 0-.5-.2.4-.2.6-.1.5.2Zm-.4 10.6c.6.2 1.2.2 1.6.8.5 0 .8-.1 1 .4-.3.1-.5.2-.8.4-.7-.6-1.8-1.2-2.7-1.2-.1-.7.5-.5 1-.4Zm-21.4-151.4c.7-.1.2 1 .2 1.4-.5.2-.5-1.2-.2-1.4Zm-2.6 5.6c0-.3.1-.6 0-1-.4.1-.7.2-1 .3 0-.9.9-1.7 1.4-2.4.4-.2 1.1-.8 1.5-.6 0 .2 0 .5-.2.7-.5.6 0 1.3-.3 1.7-.8 0-.8 1-1.1 1.5-.9-.1-1 1.7-1.7.6.4-.4.8-.6 1.3-.9Zm-2.5 1.8c.7.2 0 .7.3 1.3-.8.2-1.2-1-.3-1.3Zm-5.7 123.2c.5-.1.9.6.3.8-.4-.1-.5-.4-.3-.8Zm33.7 38c-.4.1-.6 0-.5-.2.4-.2.6-.1.5.2Zm3.6-2.7c-.8 0-1.4-.4-2.1-.6-.1-.8-.7-.8-1.3-1 0-.2.1-.4.2-.6-.4-.5-.9-.5-1.4-.6-1.2-.4-2.3-.5-3.4-1.1 0-.4.4-.6.5-.9-1-.9-2.5-1.3-3.7-1.6-.6-.5-.8-1.2-1.6-1.5-.4 0-.7 0-.9-.2 0-1.3-1.2-1.6-2.2-1.7-.2-.6-.4-.8-.8-1.2h.6c.1-.8-1-.8-1.5-.8-.6-.4-1.3-.8-1.8-1.3.2-.3.9-.8.2-1-1.1-.7-2-1.1-3.2-1.5-.2-.6-1.7-1.3-.4-1.5-.4-.9-1.4-.5-1.8-1.3-.3-.6-.8-.7-1.4-.9-.3-.5-.5-.6-1.1-.8.2-1.8-1.9-.6-1.4-2.4-.3-.2-.6-.4-1-.6.1-.2.3-.5.5-.7-.6-1-2.1-1.4-2.9-2.3-.4-.4-.2-.6 0-1.1-.4 0-.7-.2-.9-.5.3-.2.5-.5.5-.7-.8-1-1.8-.2-2.5-1.2.4-.3.5-.7.5-1-1.4-.6-1.5-2.2-2.9-2.9v-.3c.2-.2.4-.3.7-.4.8.6.4 1.1 1.6 1 .3.8-.3 1 .7 1.3.2 1 .4.5 1.2.4.2.5 0 1.1.1 1.7.6.4.8 1 1.6.8 0 .6-.3 1.7.5 1.8.9.3 1.7.8 2.6 1.2 0 .6-.4 1.3.5 1.6.6.5 1.4.6 1.5 1.4.2 0 .4 0 .6-.2v2c.3 0 .6 0 1-.2l.2.6c1.1 0 1 1.2 2 1.1 0 .5.3.8.7.9.9.3.4 1.2 1.4 1.4.3 1 1.2.2 1 1.7.8 0 1.8.6 2.5 1.1-.1.3-.2.6-.2.9.4-.4.8-.5 1-.2 0 .2 0 .4-.2.6.7 0 1.6-.3 1.8.6l-.3.6h.7c0 1.2.7.6 1.5 1 .3.6.3 1 1 1.3 0 .4 0 .7.2 1 .2 0 .4 0 .6-.2.4.5.7.7 1.2 1 .2.5.3.9.7 1.2.6.1 1 .6 1.6.7.3.5.5 1 1.1 1.2.5 1 1.5.3 1.8 1.4.2 0 .3 0 .5-.2.2.2.5.4.7.4.1.8.8.9 1.1 1.5 1 .7 2.1.6 3.2 1.1.1.8.7 1.1.9 1.7-.6.3-1.3-.7-1.9-.8Zm6.5 3.5c-1.3-.7-2.9-.7-4.1-1.7v-.3c.3-.6.9-.8 1.4-.3.6.6 1.2.3 1.6 1.1.4.9 1.4.8 1.9 1.4-.2 0-.4 0-.7-.2Zm.8-10.8c-.9-.3-2.9-.3-3.1-1.5-.8-.3-1.1-1-2.1-1.1 0-.4-.3-.7-.6-.7-.8 0-1.4-.3-2.1-.4-.1-.2-.3-.5-.4-.8-.3-.2-.8-.2-1.1-.4h.1c1.1-.8 1.4.4 2.4.5.5.1.8.5 1.1.9.4 0 .7.3.8.7 1.3.1 1.5.2 2.4 1.1h.5c.6 0 1.4 1.3 1.9.7.3.4.9.7.8 1.2-.2 0-.4 0-.6-.3Zm4.4-151.6c-.3.2-.7.1-1.1 0-.2-.5-.4-1-1-1-.3.8.2 1-.8 1.2 0 .3-.1.6-.1.9-.8.5-1.1 1.3-2.2.9-.2.2-.3.6-.1 1-.7-.4-.2-1.9-1.4-1.1.3 1 .1 1.5 1.1 2.2-.7 0-1 0-1.6.4-.5 0-1-.3-.8-.8.2.1.4.2.7.2.1-.4.4-.9.2-1.4.5-.6.4-1.3 1.3-1.2.6-.2 2 .2 2.2-.6-.1-1-1-.2-.8-1 .4 0 .9.4 1.2 0 .2-.2.2-.5 0-.8 1 .3 1.5-.8 2.5-.7.6 0 1-.5 1.6-.5-.3-.6-.4-1 .5-1 0 .5.3.7.7.6.1-.6.4-1 .9-1.4v.6c.8.1.7-.7 1.1-1 .2.1.4.3.6.4.4 0 .8 0 1.2-.2 0-.8 1.5-1.3 2.1-1-.9 0-1.4.5-2 1.1-.8 0-1.4.3-2.1.6 0 .2 0 .4.2.6-.3 0-.5.2-.8.4-1.1-.3-1.3.2-2.2.5 0 .8-.8.9-.9 1.8Zm6.5 7.7c0 .4 0 .6-.2.9-.6-.1-1.1-.1-1.6 0v.6c-1.2.6-2 .8-3.2.9v-.9c.6.7 1.9.8 1.2-.4.3.1.7.2 1 .3.2-.3.2-.6.1-1 .6 0 1.2.2 1.8-.2 0-.2 0-.4-.2-.6.6 0 .8-.5 1.4-.4.5-.5.9-.3 1.5-.5.7-.9 1.6-.4 1.8-1.8h.8c0 .6.4 1 .4 1.6-.5-.4-1.7 0-1.6.8-.5-.4-.5 0-1 .1-.9-.2-1.2.7-2.2.6Zm5 19.7c-.3 0-.6-.1-.9-.2-.2.3-.2.6-.2 1h-1.2c-.1-.1-.3-.2-.4-.4.7-.1.8-.3 1.2-.8.4 0 .7 0 1.1-.1.1-.6.2-.9.7-1.3.6-.4.4-1.1 1.1-1-.1.2-.2.5-.3.7.3.1.6.2 1 .1 0 1.3-2 .5-2 2Zm4-23.1c-.3 0-.6-.1-1-.3-.1 1.3-1.1.6-1.9 1v-.5c.7-.2.9-.5 1.2-1.1.4 0 2 .2 1.7.8Zm.2 18.3c.3-.2 2-.1 1.3.5-.4.1-.9.7-1.3.5v-1ZM309 418.4c-.7.8-1.6.4-2.5.8h-1.9c-1-.4-2-.9-3.1-.8-1.2-.7-2.3-.6-3.7-.6-.4-.1-.7-.6-1.1-.9-.5-.2-1-.3-1.5-.4v-.4c.5 0 1.2-.2 1.6 0 .5.5 1 .9 1.7 1.1.7-.2 1 0 1.6.2 0-.6.4-.8.9-.4.3.6.5.9 1.1 1.2 1.2-.4 2.8-.3 4.1 0 .3-.3.5-.3.7-.2 0 1.3 1.5.9 1.9 0 .2.2.5.2.8 0v.8c-.2-.2-.4-.4-.6-.5Zm1.3-18c-.1-.4-.5-.8-.4-1.2.6-.1.9.4 1.2.7.1.6-.4.6-.9.5Zm-.2-4.8c-.7-.2-.2-1 .2-1 .4.2.8.3 1.2.3.1.5-1.2.4-1.5.7Zm1-158.6c-.9.3-1.4-.3-2.4 0 0-1.3 1.7-.9 2.5-.6.6-.6.5-.7 1.4-.6-.4.6-1.2.6-1.6 1.2Zm2.4 158.5h-.2v-.2h.2v.2Zm.2-178.2c-.8.4-2 .3-2.2 1.3-.1-.4-.4-.6-.6-.6-.2 1-.5.5-1.1.2-.7.5-.8.6-1.6.2-.6 0-.8.2-1.3-.5.3-.9 1.5.3 1.5-.9 1.5.3 2.6-.4 4 .1.3-1.2 1.9 0 2.5-.9.3.2.4.4.4.8-.7 0-1.1 0-1.7.3Zm97.1 33.8c.4-.1.6 0 .5.2-.4.2-.6 0-.5-.2Zm-20.1-18.3c.6 0 1.1.2 1.7.3.1 1 .8 1 1.6 1.1.2.9 1.3 1.5 2 2.2.5.5.8.8 1.4.1.4.4.8.7 1.2 1.1-.1 1.2.7 1.3 1.7 1.5.2.2.3.5.2.9.4.6 1 1.1 1.4 1.6.3.4 1.3 0 1.4.5 0 .3-.2.5-.3.8.5.8 1.2.7 1.9 1.4h1.1c-.2 1.8 1.9 1.5 1.9 3 .2.6.8.4.7 1-.6-.4-1.3-.4-2-.8 0-.3.2-.6.5-.9-.2-.7-1.5-.4-2.1-.9v-1.1c-.6-.2-1.1 0-1.6-.4-.6-.6-1.5-1-1.5-1.9-.4-.6-.9-.2-1.4-.1 0-.2.1-.4.2-.6-.3-.4-.7-.5-.8-1.1h-.5c-.2-.5-.8-1.2-1.3-.6-.2.2-.4.3-.6.2 0-.3.2-.7.4-1-.4-.3-.6-.6-.8-1-.5 0-1 0-1.3-.2 0-.2.1-.5.2-.7-.6-.3-1.6 0-2.1-.5-.2-.8.7-.1.5-.9-.6-.1-.7.7-1.4.5-.3-.1-.7-.2-1-.4-.3-.8.4-.8 1-.7 0-.2-.1-.5-.4-.7-.5 0-.9.6-1.3.6-.4-.6-.9-.6-1.4-1 .5-.4.4-1.1.9-1.3Zm7 30.5c0-.4 0-.7-.1-1-.7-.4-1.4-.5-1.2-1.6-.5-.4-1.1-.5-1.8-.6 0-.4.7-.6.7-1-.2-.6-1.3-.8-1.8-.9 0-.4-.2-.8-.3-1.2-.9-.4-1.8-.4-2.5-1 0-.2 0-.4.2-.6-.7-.7-1.5-1.1-2.4-1.5-.5-.8-1-1.2-1.9-1.6-1.2-.6-1.1-1.8-2.6-1.9-.1-.3-.3-.6-.5-.8.8.2 1.4-.1 2.1.4.5.3 1.1.2 1.6.3.8 0 .9 1.6 1.6 1.5v-.7c.4.2.6.7.9.9.5.3 1.1.3 1.6.7.3.4.5.8.9.9.8.3.8 1 1.4 1.6v1c.4.4.7.6.8 1.2.6 0 1.1.3 1.7.5.2 1-.1 1.3.6 2.2 1.6-.1 1 1.5 2.5 1.8.4.6-.1 1.9 0 2.6.8.4 1.7.8 2.5 1.3-.1.3-.1.6 0 .8h-.8c-.4-1.2-1.3-.5-2-1.4v-1.1c-.2-.4-.8-.5-1.2-.8Zm-13.2-33.2c.4 0 .6-.4.6-.9.2 1 1.2 1 1.9 1.6 1 0 1.5.2 2.4.7 0 .2-.1.4-.2.6.2.3.8.6.7 1.1-.1.3-.3.5-.4.8-.5 0-1-.8-1.5-1 .1-.3.2-.5.3-.7-.6-.6-.9-.5-1.4.1-.2-.2-.4-.5-.5-.8-.9 0-1.1-.3-1.8-.8-1 0-1.3-.4-1.5-1.2.2-.2.4-.4.7-.4.3.3.6.7.8 1Zm-5.1-3c.7-.2 1.6.1 2.4 0 .7.2 1.7.5 2 1.3 0 .9-1.1.3-1.6 1-.3-.2-.6-.5-.9-.8-.6 0-1-.4-1.6-.4-.3-.3-.4-.6-.3-1Zm3.1 21.2c-.7.3-1.3-.4-1.7-.9-.5-.7-1.4-.5-1.9-1.1h1.6c.7.2 1.2.6 1.9.7.3.5.4.9.1 1.3Zm-8.4-23.9c.9.5 2 .3 2.9.7.5.9 1.2 1.6 2.1 2.1-.4.3-.7.3-1.1 0-.5-.3-1 0-1.5-.3 0-.2.2-.4.6-.6-.6 0-.9 0-1.4.3-.2 0-.4-.3-.4-.7-.9-.2-1.3-.5-2.2-.1l.3-.6c-.5-.1-1-.4-1.5-.4v-.5c.6-.5 1.6.2 2.3.3Zm-8.7-6.7c.3 0 .3.1.2.5-.3 0-.4-.1-.2-.5Zm.9 3.5c.6.8 1.4.7 2.3.8v.8c-.6 0-1.5-.3-2.1 0-.5-.3-1.1-.5-1.6-.8.2 0 .4-.2.5-.5-1.1-.9-.9.2-1.7.2 0-.9 2.3-1.2 2.8-.5Zm-10.5 12c.9.2 1.1.8 1.7 1.2.3-.3.6-.5.9-.5.3.8.3 1 1.2 1.2-.6 0-1.2 0-1.8.3-.6.1-1 .3-1.2-.5-.3 0-.7.1-1 .2.4-.3.5-.7.4-1 0-.1-.6-.9-.4-.9Zm-2.5-.3c.3.3 1.4.7 1.5 1.1-1.2-.1-2.4 0-3.6-.5v-.4c.7.1 1.4-.1 2.2-.2Zm-5.2-.9c1 .2 1.3.9 2.3.7 0 .2-.2.4-.3.5-.9-.2-1.7 0-2.5 0 0-.4.5-.8.5-1.2Zm-5.6.4c.4-.1.8 0 1.2 0 .6-.1.8-.6 1.5-.4.7.2 1.3-.5 1.7.2-.2.4-.2.5 0 .9-.7 0-1.5-.2-2.2 0-.9.3-1.6-.2-2.5 0 .7-1-.7-1-1.2-.4v-.8c.7 0 .8 0 1.3.4Zm-8.4-2.1c.8-.2 1.2.3 2.1-.2l.6.4c.8-.5.7-.5 1.5 0 .2-.1.4-.3.6-.4.8.2.7.8 1.3 1 .3-.3.7-.4 1-.3.2.8-1.1.4-1.6.4 0-.8-.7-1.1-1.3-.6-.2.3-.2.6-.3 1-.5-.3-.4-1.1-1-1l-.2.6c-.5 0-.8 0-1.3-.3-.6 0-1 .4-1.5.5-.1-.3 0-.6 0-1Zm-7.6.5c.8-.9 1 .3 2.1 0 1-.6 2-.2 3.1-.5.4.2 1.3.2 1.1.8-.4.5-1.6.7-2.2.3-.5-.3-1.2 0-1.7-.1-.6-.2-1 .3-1.4-.1-.2-.2-.5-.3-1-.2Zm-8 187.1c.2-.6 1.3 0 1.5.3-.4.1-1.6.6-1.5-.3Zm11.2-91h-.2v-.2h.2v.2Zm4.1-24c-.6-.4-.1-1-1-1.2-.4 0-.6.3-.6.9h-.3c-.1-.9-.8-.5-1.4-.8-.6.7-1.6.5-2.5.7-.3-.2-.4-.5-.5-1-.4 0-.8-.1-1.2-.1-.2.1-.4.3-.6.4v-.4c.7 0 .9-.3 1.4-.7.2.1.4.3.7.3.2-.2.3-.4.5-.5.7 0 1.1.7 1.4-.3.2.2.3.4.6.6 1.3-.5 1.6.4 2.9.2.4.4.6.7 1.2.7-.1.2-.2.3-.2.5.5.4 1.1.3 1.8.2-.7.4-1.1.5-2 .4Zm9.7 68.3c-.5 0-1 0-1.4.3-.3-.3-.5-.5-.8-.6 0 1-1.2.6-1.8.7-.2-.5 1.2-.4 1.5-.4 0-.3-.2-.5-.5-.7-.2 0-.4 0-.6.2 0-.6.4-.4.8-.8.1.3.3.5.6.6.2 0 .4-.2.6-.3.6.4.7.9 1.5.8v.2Zm-.5-.8c.2-.4.3-.9.4-1.3.2.2.4.4.4.8.5-.2.8-.1.8.2-.4.6-1.1.7-1.6.3Zm2.2-.6c-.2-.4-.3-.8-.3-1.2.2-.4.8-.9 1.2-.4-.4.5-.4 1.2-.9 1.6Zm8-120.4c-.5-.3-.7-.4-1.3-.4l-.6-.6c-.3 0-.5.2-.5.5-.2-1-1-.5-1.5-1.2-.8.3-1.5.2-.8-.7-.7-.2-1-.1-1.6 0-.2-1.1-1.1-.3-1.5-1.2.2-.3.5-.4.8-.5-.1.2-.2.4-.2.6h.4c1-.2 1.6.3 2.5.3.4.5.7 1.1 1.3 1.4.5-.2.7-.5 1.2 0 .3.3.8.3 1.4.1-.1.8.5.9.4 1.6Zm1.3 135.7v-.3h.3v.3h-.3Zm2.2-10.4c0-.3.1-.5.3-.7.2.5.1.7-.3.7Zm4.5 9.1c-1-.3-1.2.9-2 .5 0-.7.8-.6 0-1.2.4-.6 0-1 0-1.6.4.1 1.5-.4 1.3.4-.2-.1-.5-.2-.7-.2-.3.3-.3.7.1 1.1.6.2.9-.6 1.4-.3v1.3Zm2.1-1.5c-.7 0-1 .4-1.4.8-.4-.9.3-1.1.8-1.6.3.2.5.3.9.3 0 .3 0 .5-.3.5Zm3.1-15.3c0 1.2-.9.1-.9 1.2.1.5-1.7.6-1.2-.2.3-.4.5-.8.3-1.2.2.1.4.2.6.2.2-.2.4-.3.6-.5h1.2v.8c-.2-.1-.4-.2-.6-.2Zm2.1-107.2-.3-1.2c-.9-.6-1.6-1-2.7-.7.1-.2.2-.4.2-.6-.8-.2-1-.8-1.7-1.1-.9-.7-2-.9-3-1.5 1.4-.6 2.2.3 3.2 1.1 1.3 0 2 1 3.3.8.9.5.8 1.3 2 1.4.8.8 0 1.6-.9 1.6Zm6.3 3.1h-.2v-.2h.2v.2Zm15.3 12.6v-.4c1-.2 1.4.6 2.4.7-.4 1.1-1.7-.2-2.4-.4Zm8.7 2.1v-.3h.3v.3h-.3Zm4.7 9.2v-.2c.4 0 .4.1 0 .2Zm1.2 4.6v-.2c.4 0 1.4-.5 1.4.3-.4.1-.8.1-1.4 0Zm2 .9c.2-1.2-.6-1.3-1.3-2 .1-.4.4-.6.9-.6-.2-.2-.3-.5-.4-.8-.6-.3-1.4-.5-1.5-1.2-.2-.5 0-1.1-.2-1.6l-.7-.2c-.2-1.1-1.3-1.3-.3-2.4-.6 0-.7-.5-1.2-.8 0-.4-.1-.9-.3-1.3l-.6.3c-.4-1-1-2-1.2-3 .4-.2.7-.3 1-.5-.7 0-1.1-.6-1.1-1.3-.5 0-.9 0-1.4-.1-.4-.9-.6-1.3-1.3-1.9.2-1.2 0-1.6-1.3-1.7v-.7c-1.1 0-.6-1.1-1.7-1.3-.5.3-.8.4-1.4.4 1-.6.3-1.8-.6-2.1-.3.2-.5.5-.6.8-.2-.5-.4-.8-.8-1.1.6-.2.9.7 1.2-.2-.2-.5-.5-.8-1-1.1-.3.3-.6.5-1 .5.3-.3.7-.4.6-1-.3-.2-.6-.2-1 .2-.6-.4-.4-.8-.5-1.3-1.1-.2-.1 1.1-1 1 .4-.5.6-.9.3-1.5-.6-.2-1.2-.1-1.9 0v-.4c.2.1.4.2.6.2.2-.4.3-1.5 0-1.9h-1.2c-.2-.4-.2-.8-.2-1.3-.5 0-1.3 0-1.7-.3 0-.2 0-.3.2-.5-.7-.2-1-.5-1.8-.5-.4-.4-.2-1-.5-1.4-.5-.2-.5-.5-.8-.8l-.2.6c-.7 0-1.3-.4-1.7-.9-.6-.8-2 .3-2.1-1-.8.4-1-.3-1.6-.8 0-.2.2-.4.2-.6-.1-.3-.2-.5-.4-.8-.8 0-1.2-.1-1.9-.4-.6-.5-1-1.1-1.7-1.4-.2-.3-.4-1-1-.8-.4.4-.7.4-1 .1 0-.4.2-.8.4-1.2.4-.2.8-.2 1-.6-.6.1-1.3.4-1.4 1.1-.5.1-1.1.2-1.6.1-1.1-1-2.7-1.8-4.2-2.1-.4-.7.2-1-.7-1.3-.4-.8-1-1.7-1.9-.9-.7-.2-1.3-.6-2-.8-.9-.4-2-1.3-.9-2.3-.1-.2-.3-.4-.4-.4 0 .6-.2.8-.9.8.1.2.2.4.4.6l-.6.6c-.6-.4-1.3-2.3-2.2-1.8 0 .3.1.5.2.7-.6-.3-1.3-.3-1.3-1.1-.5 0-.9-.2-1.3-.5-.2 0-.4.2-.6.3l-.6-.6c-.9.4-1.7-.2-2.3-.9-.8.4-.5.3-1.2-.3-.2 0-.4 0-.6.2-.6-.6-1.5-.4-2.2-.9-.2 0-.4 0-.5.1-.2-.2-.4-.3-.6-.5-.3 0-.5.1-.7.3-1.5-.3-2.7.3-3.9-1l-.5.4c-.8-.4-.6.4-1.4-.5-.2.1-.4.3-.6.5-.2-.3-.4-.6-.6-.8-.4 0-.8-.1-1.1-.4-1.4.3-3.1 0-4.6.2-.9.2-1.6-.5-2.3-.1-.4-.1-.6-.3-1 0-.3-.2-.5-.2-.8 0-.6-.3-1-.8-1.7-.6-.8-.2-.8-.4-1.5.2-.9 0-.9-.2-.5-.9-.7.2-1.1.3-1.8.3-.5.7-1.7-.6-1.2-1 .8 0 1.5.4 2.3.2.6 0 .9-.3 1.4 0 .2-.1.4-.3.7-.4.5.3 1.2-.1 1.8 0 1.4-1.1 3.9.3 5.2-.7 2-.1 4-.4 6-.5 1.8.3 3.6-.2 5.4.3 1.2.4 2.5.3 3.7.5.7.4 1.6.9 2.5 1 .6 0 1-.4 1.5-.2 1 0 1.4.8 2.3 1 .8.2 1.3 1.1 2.1 1.4 1.5.5 3.1.8 4.7 1.2 1 .5 2 .7 3.1.8.6.7.8 1.4 1.7 1.8.7 0 1.2.5 1.9.3 1.1-.2 2.3 0 2.8 1.1l-.3.6c.3.3.7.6 1.1.8 1.6.3 2.6 1.5 4.3 1.5.2.3.4.7.4 1.1.8.5 1.8.7 2.7.8.7.4 1.1 1.1 1.9 1.2.9 1 1.8 2 3 2.7.5 0 1.1.2 1.5.5 0 1 .9 1.4 1.8 1.6.4 1.2 1.7 2.8 3 2.8 0 .3 0 .6-.2.9.7.8 1.6.9 2.4 1.4.9.8 1.6 1.7 2.6 2.5.2.4.3.8.7 1.2-.4 1 .3 1.9 1 2.5.5.4 1.1.2 1.5.8-.2.2-.3.4-.4.6 1 1.1 2.3 2.1 3.3 3.1-.7 1 .5.8-.2 1.9.6.8 2.1 1.4 2.4 2.7.2.9 1 1.1 1.4 1.9-.3.5-.4.8-.3 1.4.5.6 1 .8 1.7 1 .3.9.9 2 1.7 2.6 0 .6-1.2 1.2-1.8 1 .7.6 1.2 1.2 1.9 1.7-.2 1 1 1 1.1 1.9 0 .4.5.8.7 1.2.3.5 0 1.2.2 1.7.4.5.9.9 1.3 1.4-.3.6 0 1.5-.5 1.7-.4.4-1.5.4-1.7-.2.2-.2.3-.4.5-.6h-.6c.1-.5.3-.7.5-.8-.2-.1-.5-.3-.6-.6Zm3.3 30.3v-1.4c.4-.2 1 0 1.3.5-.2.5-.8.7-1.3.9Zm2-3.3c-.4.5-.5 1.6-1.3 1.5-.4-.1-1.1-.6-1.1-1 .3 0 .7-.1 1-.2-.2-.4-.2-.7-.2-1 .6 0 1.8-.4 1.5.7Zm-1.6-2c.4-.4 1.7 0 1 .6-.3 0-1.2-.3-1-.6Zm2.2-5c-.1.3-.3.5-.4.8.5.8.6 1.9-.7 2 0 .2.2.3.6.4 0 .5-.2 1-.7 1.3-.7-.4-1.1-1.1-1.8-1.5 0-.2.3-.5.6-.7-.1-.2-.3-.4-.5-.6h.6c-.2-1.1-.5-1.9-.7-2.9-.2 0-.5.1-.7.2 0-.8.9-1.3.4-1.9v-.8c.6 0 .8-.2.9-.5-.3-.2-.5-.5-.8-.7V305c.1-.2.3-.4.4-.6-.8-.8 0-.7 0-1.5-.5-.1-.8-.5-1.4-.5-.9-.5 0-1.6.2-2.2-.2-1-1-1.5-.5-2.5-.2-.6-.7-.8-1.2-1.2.2-.6.6-.6.4-1.4h.3c0 .4.1.6.3.5 0-.5.2-.8.5-.9.7.3 1.2 1.2 1.7 1.7.2.6.3.7-.4.9 0 .5.5.9.5 1.4-.2.4-.6.6-.9 1 .5.5.4.3.9.2.3.2.5.5.4.8-.5.2-.9.5-1.4.1 0 1.2 1.5.5 1.9 1.8-.1.4-.5.6-.8.9.7 0 1.1.9.7 1.4-.3.1-.7.2-1.1.2.9.2 1.3.6 1.2 1.6.5.5.3.9.4 1.5.8.3.9 1.4.6 2.1.2.3.3.5.5.8-.3.6-.3.5 0 1.1Zm11.1-50.8c.2.4.4.7.4 1.1-.7.5-1.2-1.2-.4-1.1Zm-170.8-27.9c.5.2.9-.6 1.2-.8 0-.3-.2-.6-.4-.9-.4.1-.7 1.3-.9 1.7Zm188.9 158.3c-.8 0-1.5-.2-2.1.4-1.1-.3-.9-1.4-2.2-1.1-.2-.2-.5-.4-.8-.5 0-.3.1-.6.4-1-.6-.8-1.3-.4-2.2-.5-.2-.9-.4-.4-1-.4-.3-.5-.6-1-1-1.3-.4 0-.7 0-1-.1 0-.2.1-.4.2-.7h-1.2c.2.3.2.5 0 .8 1.3 0 1.2 1.6 2.1 1.7 0 .2 0 .4-.2.6 1.1-.2 2.3 0 3.2.6 0 .2-.2.4-.3.7.9.2 1.5.6 2.1 1.4 0 .9 1.1 1.2 1.2 1.9.4-.4.9 0 1.4.2 0 .4.3.7.8.7 0 .2 0 .4-.2.6.8.4 2 .7 2.5 1.4 0 .2 0 .4-.2.6.5-.1.7 0 1 .2.3-1.4.7-2.7 1.1-4.1-.7-.6-1.4-1.2-2.2-1.6-.7 0-1.2 0-1.3-.8Zm1.5 21.8v-.5c-.2 0-.5 0-.8.3 0 .4 0 .8-.3 1.2.2.3.4.5.4.8.3-.3.6-.4.9-.5 0-.3 0-.5-.1-.8-.2-.1-.1-.3 0-.5Zm16.5-164.4c.5 0 .9 0 1.2-.3.7.5 1.4.5 1.9 1.2 1.1.1 2.2 0 3.2 0 1-.2 1.9-.9 2.5-1.7 1.4-.4 2.8-1.4 4.1-2.1.9 0 1.1-.7 1.9-.9.2.1.4.3.6.4.2-.5.4-1 1.1-.8.7-.1 1.3-.2 1.8-.8.5 0 .4 1.3.9.6 0-.5-.4-.8-.3-1.4.7 0 1.1-.7 1.6-1.1.9-.3 1.3 0 2 0 .1-.4.4-.6.8-.7.3-.5.9-.9 1.5-1.1.2.3.5.6.8.8-.4.5-.6.5-.4 1.2l-.6-.6c-.5.1-1.1 0-1.5.3 0 .5.3.9.2 1.4 0-.5-.3-.8-.6-.9-.4.3-.7.5-1.1.7 0 .2 0 .4.2.6-.8 0-.4-1.2-1.7-.5.2.3 1.1 1.1.3 1.3-.8 0-.3.8-.9 1.1-.4-.2-.8-.5-1.1-.8-.2.2-.4.4-.6.5-.2 0-.4 0-.6-.1-.3.2-.5.5-.8.7 0 .4 0 .7-.1 1.1-.7.4-1.4-.2-1.8.5 0 .5-.3.7-.9.6 0-.2.1-.3.2-.5-.3-.1-.6-.3-.8-.4 0 .6 0 1.2-.1 1.7-.3 0-.5-.1-.6-.6 0 .5-.3.8-.8.8-.2.9-.9.4-1.3 1 .2.8.3.5-.2 1.1.1.7 1.2 0 1.6 0l.2-.7c.6-.2.7.8 1.3 1-.1-1 0-1 .9-1.1v-.3c-.3 0-.5-.2-.6-.3h.9l.3.9c1.2 0 2-.2 2.3 1.2v-.6c.5-.9.8.2.7.6.2-.2.4-.3.6-.4.6 0 1.3.6 1.4-.4.6.3.6-.2 1.2 0 .9-.4 1.7-.8 2.2-1.6.5-.2 1.7-.4 2-1 .3-1 .9-.3 1.5-.5-.3-.4-.3-.7-.2-.9.6 0 1.2-.1 1.7.1.6-.9 1-.8 1.9-1.1 0-1.1.5-.9 1.3-.7.2-.1.3-.4.3-.7.9-.2.8-.2.9-1.1.4 0 .6.6.9.6.1-.3.3-.5.5-.6.8-.2.1-.7 0-1.1.6-.3 1.2-.1 1.9-.2.8-.6 1.7-.6 2.5-1.2.2-.8 1.1-1.1 1.2-1.9 0 .2 0 .4.2.6.3 0 .6-.2.8-.7.2 0 .4.1.6.3.3-1.1.4-.4 1.2-.3 0-1 .7-1.2 1.4-1.8.2 0 .4.1.6.2.3-.2.5-.5.6-.9h1c.4-.6 1.2-.8 1.8-1.3.4-.4.9-.4 1.5-.5.5-.3 1-.6 1.6-.7 0-.8.3-1.4-.6-1.7-.7.5-.7-.2-1.4.2-.5-.3-.4-.8-.6-1.3-.4-.1-.6 0-.7.6-.3 0-.5-.2-.8-.3-.8.3-2.1 1.3-2.3 2.3-1-.5-1.2.1-2 .4-.3-.2-.5-.4-.8-.5-.9.6.5.4.5.9 0 .2.1.4.1.6-.6.2-.8.3-1.2.7-.4-.2-.4-.6-.7-.9-.6 0-.7.5-.5 1-1.1.2-.3-1.2 0-1.6.2-.6-.8-.6-1.2-.5.2.2.3.4.5.6 0 .8-.8.6-.4 1.6-.4.8-1.6.8-2 0 0-.3.3-.5.8-.6.1-.4.4-.6.9-.7-.1-.3-.3-.6-.4-.9-.4 0-.5.8-1.1.9-.4-.5-1.5-1-.6-1.6.7 0 1.1-.3 1.5-.8 1.3.6 1.8-.9 2.7-1.5.8-.4 2-1.3 2.9-.9.3.5.2 1.4-.4 1.7-.4-.5-.8-.6-1.1-.5.2.5 1 1.2 1.6.9.3-.2.6-.5.9-.7.2-.6-.8-.8-.9-1.4.2-.5.2-1.2.8-1.4.7-.4 1.4-.4 1.9-1.1.8 0 1.4-.3 2.1-.6.3-1.5 2.6-1.8 3.7-2.4.2-.4.3-.8.3-1.2.1-.5.8-.6 1.2-.7-.5-.4-.9 0-1-.9-.6-.2-1.3-.4-1.9-.5-.2.3-.2.6-.1 1 0-.2-.2-.3-.2-.5-.5 0-1-.4-1.5-.4-.2.8-.8.8-.6 1.6h-1.4c-.7.2-1.2.9-1.9.8-.3 0-.5.3-.6.8l-.6-.3c-.4.3-.8.4-1.2.6-.2 0-.4-.2-.6-.3v.7c-1.5.5-2.8.5-4.3.9-.3.4-.4.8-.7 1.2-.8.3-1.7.5-2.4 1.1-.7.5-1.4 0-2.1 0-.2-.3 0-.6.5-.9.6.4.9.7 1.3-.1.8-.2.8-.4.8-1.2.2.1.4.2.6.2.2-.3 0-.6-.3-1 1-.4.8.7 1.2 1.2 0-.8 1-1 .9-1.7-.2-.3-.3-.5-.3-.8.4-.8.8-.6 1.6-.6.7-.7 1.4 0 1.5-1.3h.4c.1.3.1.6 0 1.1.5 0 1.1-.4 1-1-.2.1-.4.2-.7.2-.3-.5-.1-1.2.5-1.4.7-.5 1.5-.3 2.3-.4.1-.3.2-.7.1-1.1.7-.5 1.6-.6 2.3-1.1.7-.5 1.8-.4 2.3-.9 0-.5.1-.7.6-.7.7-.5 1.4-1 2.3-1.1.8-.4 1.8-1.1 1.2-2.1-1.1-.5-2.1 0-3.2-.3-1-.5-2.2.4-3.1.2-.6-.3-1.4 1-1 1.5-.5.1-.9.2-1.4.4-.5-.2-1.2-.8-1.7-.8.2 1.1-.7 1.6-1.7 1.5-1-.1-1.6.4-2.5.5-.8.4-.8 1.5-1.7 1.8-.6.1-1.1.3-1.6.7-1 .9-2.6.6-3.5 1.5-.8 0-1.2 0-1.9.5-.8 0-1.2.5-1.9.8 0 .3-.1.6-.1 1-.5.3-.7-.1-.9-.4-.4.7-1 1-1.7.6-.9 0-1.8.3-2.7.5-1.1-.4-.6-1.3.5-1 0-.7.9-.7 1.4-.6.6.4 1.4.3 1.5-.5.1-.6.6-.8 1.1-.9 0-.2-.1-.4-.2-.5.6-.1.8-.3.9-.7.4.3.7.4.9.2 0-.2 0-.4-.2-.7.3.1.7.2 1 .3-.1-.9 1.5-1.5 2.2-1.6 0-.3.2-.6.2-.9.7.2 1.4 0 2 .4.6-.4.2-1.1.9-1.4.4-.2.6-.6 1-.9.6-.1 1.1-.4 1.7-.4 1.1.2 1-1 2.2-.7-.1-.3-.3-.5-.4-.8-.9-.3-1.5-1-2.5-.8-.5-.5-1.5-.9-1.7-1.5 0 .4 0 .9-.1 1.3-.6 0-1.3.6-1.8.2-.4.2-.8.3-1.2.3-.2.5-.5.9-.7 1.3-.7.6-1.8.3-2.4 1-.9.6-1.3 1.7-2.5.9-.8.3-1.3.8-2.2 1 0 .3 0 .6-.2.9-.6 0-1.6-.2-2.1.2 0 .5 0 .9-.2 1.4-1.1.4-2.1.2-3.1-.2 0 .4-.3.6-.6.6-.7-.3-1.6-.5-2.1.2-.7.2-2.3.4-2.1 1.4-.7.3-1.4.3-1.9.8-.8 0-1.5 0-1.6 1-.5 0-1.1 0-1.6.3.2 1.3-1.2 1-2 1.5-.1.3-.2.5-.4.8-.8 0-1.8 1.1-2.5.6-.8-.4-1.5 0-1.3.9-.3.2-.6.4-.7.8-.9.3-2.3 0-3 .5-.2 1.1-.4.2-1 .7 0 .2 0 .4.1.7-.9.3-1.6-.3-2.3.3-.2 0-.4-.1-.6-.2-.2.4-.3 1-.2 1.6.2.2.3.4.5.6-.5-.1-.8-.3-1.4 0-.5 0-1-.4-1.5-.6-.5.7-.3.8.2 1.4-.6.2-.9-.2-1.4-.5-.5.6-1.9.7-2.1 1.4.1.2.3.4.4.6-.7.1-1.6-.5-2.2-.6-1 .3-.5 1.4-.5 2.2-.6.9-.9-.7-1.8-.4-.9.3.6 1-.7 1.2-.1.3 0 .5.5.6 0 .2 0 .3-.1.5.7.7.9-.4.8-.9.6-.1 1.1.3 1.7.2 0-.2-.1-.4-.2-.6h1c0-.2-.1-.4-.2-.6.3-.3.8-.7 1.1-.2.4.5 1.1.6 1.6.3 0-1 .6-.8 1.3-.9.4.4.9-.2 1.2-.4.2 0 .4 0 .5.1v-.6c.8-.5.9.4 1.6.3 0-.2-.2-.4-.3-.6.9-1.2 1.9.5 2.6-.6 0-.2-.1-.4-.2-.6h.7c.5-.5 0-1-.2-1.4h1.6c.3.3.6.5 1 .5.3-.4-.2-.9-.3-1.4.5 0 .8.6 1.4.5.8.1 1.8 1.4 2.8.7.8-.2 1.7.3 2.6 0 .8.2.8-.7 1.4 0-.1.7-1.5.3-2 .8-.5-.2-1-.2-1.4.2-.2 1.2-1.5 1.2-2.4 1.4 0 1.3-.8 0-.9 1.4h-1c-.3.2-.6.5-.9.8-.6-.1-1.5.4-2 .8-.5.7-.2.3-1 .2-.2 1.2-.5 0-1.3.9-.4 0-.7 0-1 .2-.1.8-.4 1.4 0 2.2-.3-.2-.5-.2-.8 0 0-1.8-2.6-.2-1.7.9h.4c0-.4.1-.6.3-.6v.8c-.4 0-1.6 0-1.1.7.7.4 2-.6 2.1.6.7.2.6-.6 1.2-.6.8.1.4-.8.9-1.2h.8c0 .8.7 1 1.4.6.4-.3.5-1.3 1.1-1.4.9.3 2 0 2.3-.9-.2-.2-.3-.4-.5-.6.5-.7.8 0 1.6-.4-.2.2-.4.4-.5.6.2.7.8.6 1.4.8 0-.2.2-.4.3-.6.1.6.2 1.1.4 1.7.4-.4.5-.9 1.1-.4.6-.3 1.4.4 2.1 0 .7-.3 1.4 0 2.2 0v.4c-.3 0-.7-.1-1-.2-.1.8-.7 1.3-1.4.5-.7 1-1.5.5-2.4 1.1.3.6.2.6 0 1.3-.9-.1-1.6.3-2.3-.4-.5.3-1 .8-1.5.4 0 .5.1 1.2-.2 1.7-.6.2-.8.2-1.4-.2 0 .5-.2.7-.6.8-.2-.1-.4-.3-.6-.4-.1.8-.2.8-1 .9-.5 0-.9 1-.6 1.4l-.5.2c0 .2.1.5.2.7-1 0-1.1 0-1.4-1-.5-.2-.6.7-.9 1-.2 1 .4.6.8 1.1-.7 0-1.2-.4-1.5.5l-.2.2c0-.6-.2-1.1-.3-1.7-.6.5-.8 1.1-1.6 1.2.2 0 .4.1.6.2 0 .6-.9 1.7-.3 2.2.5 0 .9.4 1.4.4.3-.4.9-.5 1.2-.9.8 0 1 .1 1.6-.4.2.1.4.3.6.4.1-.8.8-.5 1.1-1.2.7 0 1.3-.3 2-.4.5-.5 1.1-.5 1.7-.7 0-.2-.2-.4-.2-.5Zm45.3-15.9v.3h-.3v-.3h.3Zm-9.8 3.3c-.4-.6 0-.9.6-.7 0 .3.1.6.3.9.5.3-.2 1.2-.6 1 0-.5-.4-.7-.9-.6 0-.3.1-.5.6-.6Zm-1.9 1.5c-.5 0-.3-.9-.5-1.2-.3-.2-.4-.3-.4-.5.9-.2 1.5 1.1.9 1.7Zm-.5-11.7h.2v.2h-.2v-.2Zm-3.5 12.2c0-.3.2-.6.3-.7.6-.2.8.4 1.2.8.6.2 1 0 1.4.6-.6 0-.9 0-1.4-.4h-1.6c-.5 0-1.3.7-1.7.4v-.8c.6 0 1.2 0 1.8.2Zm-2.3 2.7h.3v.3h-.3v-.3Zm-.1-1.5c-.1.3-.3.5-.7.3-.2-.4.7-1.1.7-.3Zm-1.5-8.1h.2v.3h-.2v-.3Zm9.6-20.1v.3h-.3v-.3h.3ZM465 242.2v.3h-.3v-.3h.3Zm-1.6 89.9c-.4.3-.6.7-1 .9-.5-.3-.8-.7-1.2-1.1-.4.2-.9.7-.6 1.1.4.5 1.2.4 1.8.4.4.2 1 1.3 1.3.5-.7-.6-.1-1-.3-1.8Zm-26 78.2c-.2.5-.1.7.2.6.1-.5 0-.7-.2-.6Zm27.8-76.5c.5.2 1.1 0 1-.7-.2-.3-1.2.3-1 .7Zm-1.2-2.1c-.2.7-.6 1.5.2 1.9.3-.2.8-.8.6-1.1-.3-.2-.6-.6-.9-.8Zm-31.1 62.9h-1.6c.3.6-.2.8-.1 1.3.9-.1.8.3 1.5.7.6-.2.2-1.4.2-1.9Zm-136.8 55.1c0-.5-.2-.7-.6-.6-.2.3-.2.6-.2 1-.4.4-.7.8-1.1 1.3-1.2 0-1.1-1.4-2.1-1.8 0 .5.1.9.2 1.4-.8.7-.6 1.4-.4 2.3-.2.2-.4.4-.5.6 0 .6 0 1.2-.3 1.8-.8.2-2.5.7-2.7-.4 0-.2-.3-.3-.5-.4.2-.7.8-2 .3-2.7-.2 0-.4.1-.6.2-.2-.1-.3-.3-.4-.4.3 0 .7 0 .9-.1-.1-.9 0-1 .7-1.6-.9-.8-.6-1.1 0-1.8-.3-.4-1.3-.3-1.7-.1-.1.7.4.6.6 1-.5.2-.9.2-1.3.6.5.7-.3.6.2 1.3-.4.5-.6.9-1.3 1.1.5.2 1 .3.9.9h-.6c.1.4.2.6.3.8-1.7.1.5 1 0 1.9-.3.2-.6.2-1 .1-.1.4.2.6 1 .5-.3.4-.7.6-.9 1 .4.9-.6 1.3-1.1.6.4-.4 0-1.3-.2-1.7-.5.1-.9.2-1.3.2-.2-1.4 1-1 1.3-2.2-.3-.7 0-1.1-.6-1.7.7-.5 1.6-1.3 1.2-2.3-.5 0-1.4-1.3-1-1.7.3 0 .4.1.6.6.3-.1.5-.3.8-.4-.7-.2-.6-.9-1.4-1 0-.2 0-.4.2-.6-.8 0-.8.7-1.8.6-.2 1-.3.5-1 .8-.2.8 1 .2 1.3.9-.8.5-1 .5-2 .4.1-.2.3-.4.4-.6-.3-.6-.8-.2-1.1.2-.5.6-.6 1.3-1.2 1.9-.1.9 0 1.8-.4 2.7-1.1-.5-1 .5-.8 1.2-.6 0-1.1 0-1.7-.1-.2.2-.2.5 0 .9 0 .7-.8 1.3-.3 2-.4 0-.7 0-1 .1-.4 1-.4 1.7.7 2.2-.4 0-.7 0-1.1.1-.2.8-.1.8-1 1-.2.7.6.2.8.7.4.6-.1.8-.4 1.2.8.3.5.4.1 1 0 .9-.2.6-.6 1.2 0 .5.1.9.2 1.4-.2-.1-.4-.2-.6-.2-.2.6-.1 1.3 0 1.9-.5.7-.7 2.1-.4 2.9-.9 0-1.2.6-.4 1.2-.5.7-.7.4-1.2 0 0 1 0 1.6.5 2.5-.2.7-.9 1.1-1.2 1.7.1.2.3.4.4.6-.9.7-1.1 1-1.2 2.1.4.5.4.7.4 1.3-.5 0-.8.3-.8.8-.5.3-.8.7-.8 1.3.1.4.3.8-.2 1.1-1 .4-.7 2.1.4 2.1.8.4.5 0 1.2 0 .6.8-.6 1.1-.2 2-.6.7-.5 1.4-.8 2.2.6.8.4 1.3-.4 1.8-.6.8-.6.9.2 1.5 0 .6-.4.8-.6 1.3.2.2.3.3.6.4.4-.3.5-.8 1-.4.2.2.3.5.4.8.7 0 1.6.4 1.7-.6.3 0 .6-.2 1-.2.5-.9.6-1.5.2-2.5.1-.2.4-.4.7-.5l-.3-.6c0-.5 1.2 0 1-.8-.3-.2-.8-.2-1.3-.1-.3-.7 1.8-.5 1.7-1.4l-1.2-.6c.9-.7 1.7-.2 2.6-.8.3-.5-.5-1.3 0-1.9.7-.6 1.2 0 2-.3-.3-.7-1.4.2-1.4-.6.2-.8.7 0 1.2 0 .5-.4.3-.9 1.1-.9.3 0 .5-.2.4-.6-.3-.1-.7 0-1.1.5-.3-.2-1.2-.2-1-.7.3 0 .7-.2 1-.5.8.2 1.5 0 2.2.4 0 .7-.1 1.3 0 2-.3-.1 0-1.2-.6-1-.2.7-.5 1.2-.2 1.9 0 1.1-1.8 1.4-1.2 2.5.6.5.8 1.3.7 2.1.2 0 .4-.1.5-.5.3-.2 1.1-.4 1.1-.9-.2-.1-.4-.2-.5-.4.5-.2 1.3.2 1.7-.2 0-.2-.1-.4-.2-.6.7 0 .9-.6 1.7-.3.5-.5 1.6.5.9.9-.3.1-.5.2-.8.3 0 .3.1.6.2.8 0 .5-.8.9-1.2 1.2 0 .5-.2.9-.4 1.3.7.1.6.9.9 1.5-.7-.6-1.6.6-2 1.1.8.2.9 1.1.7 1.7-.4 0-.7-.1-1-.5h-.8c0 .6.4.8.8 1.2.3.2.6.8 1 .8.6-.2.8.4 1.3.4 0-.5.2-.8.6-.8.5.4.7.5 1.3.4.2-.6.2-.9.9-1.1.9-.3 1.4-1.7.7-2.5.2-.2.4-.4.7-.5.1-.7.4-.9.8-1.4-.2-.8.1-1.2.4-1.9-.2-.2-.3-.4-.5-.6.4 0 .8-.2 1.2-.3.3-.6.2-1.1.3-1.8 0-.6.7-.9.5-1.6-.3-.3-.4-.6-.4-.9.8-.1 0 .8 1 .6.5-.6.7-1.3 1.5-1.6 1-.4.3-1 .5-1.8.7-.2 1.4 0 1.5-.9-.4-1.2.2-2.5 0-3.8.6-.5.6-.9.7-1.6.9-.6.6-1.4.6-2.4 0-.6 1-.8 1-1.5.1-1.1-.2-2 0-3.1 0-.4 0-.8-.2-1.2.5-.9.3-1.8 1.1-2.6 0-.6.2-1.2.4-1.8.8-.5 0-.9.8-1.6.3-.6-.8-.8-.1-1.3.2-.1.2-.4-.2-.8.1-.2.2-.4.4-.6-.5-.9-.2-1.5-.6-2.5l.6-.6-.3-.6c.4-.7-.7-1.8.5-1.9-.1-.7-.3-1.3.1-1.9.2-1.2-.5-1.3-.9-2.3-.2 0-.3 0-.5.1Zm-28 40.7h.3c.3.8-.6.7-.3 0Zm1.2-4.6c.4-.1.6 0 .6.2-.5.3-.7.2-.6-.2Zm11.3-35c.4-.2.6 0 .6.2-.3.5-.8.5-.6-.2Zm-.8 27.3c.7-.3 1.1.6.3.8-.8 0-.8-.4-.3-.8Zm-1.2 4.1v-.3h.3v.3h-.3Zm1.8 2.3h-.3v-.3h.3v.3Zm-.1-2.8c-.5 0-2.1 0-1.7-.8.2 0 .4 0 .5.1 0-.5 0-.9.2-1.3.2 0 .4 0 .5.1.2-.6.7-1 1.1-.2-.9.7.2 1.5-.7 2.1Zm.9-4.1h-.3v-.2h.3v.2Zm2.9 18.8c-.3-.2-.4-.4-.4-.6.5-.3.8.5.4.6Zm158.3-98-.6.6c-.5 0-.9-.5-.8-1.1-.2-.7-.7-1.2-1.4-1.4-.6 0-.3.5-.2.9-.8.1 0-.8-1-.6-.3.4 0 .9-.1 1.4-.4-.6-.4-1.5-1.2-1.6 0-.3 0-.5.2-.6.6.4.8.4 1.4 0 0-.2-.7-.9-.9-1-.1.4-.4.6-.9.5-.7.2-.5 1.1-.6 1.7.1.2.3.4.4.6h-.8c-.2-.4-.4-.9-.6-1.3-.7.1-1.3.7-1.6-.3-.2 0-.3.1-.4.5-.4.1-.6.3-.8.6-.2 1.1.9.6 1.2 1.3 0 .2-.1.4-.2.6.7.5 2.2 1.5 2.9.7l.4.4c-.2.2-.3.4-.4.6 0 1.1 1.6 1.7 2.1 2.7.3.6 1 .5 1.6.5.7.2.7.8 1.2 1.2.4 0 1 .4 1.4 0 .7.4.3.8.5 1.4h.1c.1-2.2.4-4.3.8-6.5l-.2-.2c-.2-.6-.7-1.2-1.3-1.5Zm-7.3.5c0-.3-.3-1.4.2-1.4.3.2.4 1.5-.2 1.4Zm4 1.5c0-.2-.2-.4-.3-.6-.3 0-.6.1-.9.2-.1-.3-.3-.5-.4-.8.6-.4 1.4-.3 1.5-1.2h.1c0 .8-.1 1.6 0 2.4Zm-2.8-5.6c-.2-.2-.6-.4-.9-.5-.5.2-.6.8-.7 1.3.4.2 1 .4 1.5.4.2-.3.2-.7.1-1.1Zm11.9-8.1c0-.2.2-.4.3-.6-.2 0-.4.3-.3.6Zm-166.3 59.2c0-.3-.1-.3-.5-.2 0 .3.1.4.5.2Zm-23.6-216.3c-.2.5-.2.7.2.6.4-.4.4-.8-.2-.6Zm-5.7 5c-.4-.5-.3-1.3-.8-1.6-.5 0 0 .9 0 1.1-.2.6.6 1.1.7.5Zm190 177.9c.4-.5-.4-.8-.7-1.2-.4-.5-.7-.2-1.1 0-.3-.5 0-.5-.7-.4-.3-.8-.4-.5-.9 0h-1c.1.7 0 .8-.4 1.2.9-.2 1 0 1.2.8 0-.6.3-.7.7-.4.3.2.6-.4.9-.4 0 .3.2.6.5.7.2-.2.5-.3.7-.4.2.2.6.9.8.3Zm-169 75.8c.4 0 1.5.5 1.4-.3-.2-.3-1.6 0-1.4.3Zm169.5-76.5Zm74.6-88.2h-.5c0 .2.2.4.2.6-.8.7-.7-.4-.9-.9-.8-.2-1.1.3-1.8.4-.6-.6-.8-.2-1.6-.4-.3.3-.6.4-.9.4.6-.9-.6-1.4-1.3-1.2-.6.7-1.9.2-2.7.3-.2.2-.4.3-.6.5 0-.5.3-.7 0-1.3.3 0 .6.1.9.2 0-.3.2-.7.2-1 .5-.3 1 .4 1.6.1-.2-.7-.2-.8.5-1.1.8.4 1.6.3 2.1 1 .3-.2.5-.4.8-.4l-.4-.4c-1.1 0-1.8-.1-2.7-.8l-.6.4c-.5-.4-1-.9-1.4-1.4.1-.5.8-.8 1.2-1 .3.2.6.2 1 0 .5.2.9.5 1.4.8.2-.2.4-.4.5-.6.5-.2.9-.3 1.4-.2.3-.2.5-.3.8-.4.2-.3.4-.9.8-.9.4 1 .9 0 1.5.9 0-.3.2-.6.4-.8-.6-1.5-2.2.1-2.7-1.5-.4 0-.7 0-1-.1-.2-.4-.4-1.6-.9-1.5.1.2.2.4.2.7-.5.3-1.3 0-1.7-.2-.2.9-1.1 1-1.7.5-1.1.2-1.9.8-3.1.6-.4-.3-.9-.3-1.4-.4.1.2.2.4.2.6-.5.4-.8.2-.9-.6-.8 0-1.2 0-1.8.5-.4-.1-.5-.2-.9 0-1-.4-1.2-1.5-2.2-1.2 0-.4-.5-.9-.9-.9-.6.6-.6 0-1.2 0-.3 1-.6.4-1.2 0-.8.7-.9.5-1.7 0-.9.7-1.9 0-2.9.6v-.6h-.2c-.9.7-2.4.3-3.4.4-.2.2-.4.4-.6.4-1-.5-2.3.5-2.9-.4-.3-.4-.5-.2-.7.4-.2-.1-.4-.2-.6-.4-.6 0-.6.7-1.1.9-.3-.1-.5-.3-.8-.5-.6.5-1.9.8-2.2 1.6.4.3.7.5 1.2.3.7-.1 1.5 0 2.2 0 .2-.1.4-.3.5-.5 0 1.1 2.2.9 2.7 1.3 0 .3-.2.6-.6.7-.7 0-1.1-.6-1.7-.5-.4.3-.9.5-1.3.7-.2-.2-.4-.3-.6-.3 0 .3-.1.6-.3.9-.4-.1-.8-.6-1.3-.5-.5.5-1.1.3-1.7.7-.4-.1-.7-.4-1-.6-1 0-1.5 0-2.4.3 0 .3 0 .6.2.9h-.7c-.3-.3-.8-1.3-1.3-.7-.3.6.4.4.4.8-.1.3-.3.5-.6.5-.3-.3-.6-1-1.1-1-.2.6.4 1.2.2 1.7-.9-.3-.4-2-1.7-1.7 0 .3-.2.6-.2.9-1.3-.4-1.2.7-1.1 1.6-.4-.1-.6-.7-1-.8-.3.2-.4.5-.5.8-.3 0-.6.2-.9.3-.4-.1-.7-.3-1-.6v-1c-.4-.1-.6.1-.4.6.3.8-.4 1-.9 1.4-.7 0-1.4-1.2-1.6.1h-.3c-.3-1.3-1.4 0-2 .3-.2-.2-.4-.3-.6-.5-.2.9.7.2.8 1.2 0-1.2.9-1 1.2 0 .7 0 1.1.4 1.7.6.3.6 0 1 .5 1.4 0-.5.2-.7.6-.8.5.4.9.4 1.6.4.6.3.7.6.9 1.1.8-1.2 1.6-.8 2.9-.8.7 0 .9.4 1.3.8 1.3-.1 1.7 1 2.9 0 .9.8 1.3-.1 2.3.4 1.1-1.2 1.9 0 3.2-.8.9.4 1.6.5 2.6.4.7-.1 1.3.5 1.9.7 1-.7.9 0 1.8.1-.1.6.1 1.1 0 1.7-.3 0-.5-.3-.7-.6-.4.6-1.6.8-2.3.8-.2.2-.4.3-.6.5-.1-.5-.3-.9-.6-1.3-.4 0-.6.6-1 .5-.6-.2-1.1 0-1.7-.2-.7.6.5 1.6 1 2.1.2 0 .4-.1.6-.2.2.2.5.4.8.5.6-.1 1.2-.5 1.8-.8.2 1.2 1.1.5 1.7 1.1.5-.2.8-1 1.4-.8.7.9 1.7 0 2.5.6.6.4 1.4.1 2.1.3.6.6 1.3.3 2.1.5 1.1-.5 1.2.4 2.2.2l-.4.4c-.8-.6-1.8-.6-2.5 0-1.1-.2-1.8-.1-2.9 0-.3-.9-1.7-1.1-1.7 0-.6 0-.9-.5-1.5-.8-.4 0-.8 0-1.1-.2l-.2.5c-.5-.2-.8.1-1.2 0-.9-1.2-2.7.5-3.8-.9-.4.5-.9.9-1.6.9 0-.5-1.4-.9-1.4-.2-.1.6-.8 0-1-.2-.7.2-1.1.6-1.9.4-1-.2-1.4.8-2.3.8-.4-.2-.7-.6-1.1-.8-.9-.1-1.4.5-2.3.6 0 .2.2.5.2.7-.4.1-.6 0-.7-.3-.2-.5-.7-.4-.9-1-.4.3-.9-.3-1.1.2.1.3.4.4.7.5 0 .1-.2.3-.5.4v.2c.4 0 .9 0 1.3.2.3.6 0 1.4.9 1.2.6 0 1.3 0 1.9.2l.6-.6c.8.4 0 1.1 1 1.5.8.4 1.7 1 1.8-.4.5 0 1.4.8 1.5 1.2.5-.4.8.1 1.3 0 .7 0 .8 0 1.4.4.9-.8 1.6 0 2.4.3l.6.9c.4 0 .4-.7.5-1 .6-.2 1.4 0 2-.1 1.2 0 .6.8 1.8 1.1.9 0 2.1.3 2.9-.3 1.1.4 2.8.6 3.9 0 1.2.7 2.3.3 3.5 0 .8-.1 1 .2 1.1.9.3 0 .5-.1.6-.5 1 .4 1.9 0 2.9.5.6-.1 1.3-.3 1.9-.3.8.3 1.8.7 2.6.3 1.1-.5 2 .3 3.1 0 .9-.3 1.7-.2 2.6-.1.7.6 1.9.6 2.2-.4h1.4l.6-.6c.6-.2 1.6-.4 1.8-1-.2-1.1-1-.9-1.8-1.3.1-.5 0-.9-.2-1.3-.5.3-.9 0-1.4 0-1.7-.6-2.9.6-4.7 0-.6.6-.8.5-1.7.5-.2-.3-.3-.5-.6-.6-.6.4-1.5.3-2.1.2-.2-.7-.7-.9-1.1-1.4.6-.8 2.3-.3 3.3-.7.3.2.5.3.8.5.7-.4 1.5-.7 2.1-1.1 1 .1 1.3-.6 1.8-1.3.2 0 .3.1.5.2.2-.2.4-.4.5-.7 0-.3-.2-.5-.3-.8 0-.3.2-.5.5-.6.6-.2.9.7 1.6.5v-.6c.8 0 .9.3 1.1.9.3-.7.7-.6 1.3-1 .6-.3 0-1.4.3-1.6 0 .6.3 1.1.5 1.7 1-.1.5-.8.5-1.4.2 0 .5.2.7.5.5.2 1.2-.4 1.4-.9-.2-.8-1-.9-.8-1.9Zm-44.9-2.9-.2-.3.2-.3h.3c.2.4.2.6-.2.6Zm13.7 7h-.2c-.2-.7 0-1.1.2-1v1Zm2.6-9.8c-.4 0-.7-.3-1.1-.4-.7.4-.8.6-1.5 0-.4.2-.7.2-.7-.1 0-1 1.1-.2 1.6-.3.8-.5 1.6-.1 2.5-.3-.2.4-.4.9-.8 1.2ZM474 333.2c.4-.1.6 0 .6.2-.4.2-.6 0-.6-.2Zm23.3-15.2c-.7-.4-.9-.6-1.6 0h-4.2l-.6-.4c-.2.2-.4.3-.6.5 0-.4.2-.8.6-.8h4.5c.3-.2.5-.2.6 0 .4-.3 1.4 0 1.3.7ZM275.1 486.2v.3h.4v-.3h-.4Zm2 3.5c-.6.3-.6.9.2.6.1-.4 0-.6-.2-.6ZM129.9 346.3v.3c.8.3.9-.8 0-.3Zm55.9-80.5c.1.6.4 1.1.4 1.8.5-.7.9-1.8-.4-1.8Zm-39.5-31.2c-.3.5-.4.6.2.9.7.1 1.4.3 2.1.3.1.6-1 0-.5.9 1 .1 1.5.7 2.3 1.2.5.3.7.6.8 1.2.7.1.3-.7 1.2-.5 0 .2 0 .4-.1.5.4.5.5.9.5 1.5.8.2.1-.7 1-.7.6.3.8 1.9 1.5 1.9 0-.2 0-.6-.2-1 1-.1.7 1.4 1.5 1.7.2-.1.4-.2.6-.4v.7c.9.2 1.9.5 2.4 1.2 0 .2-.1.3-.2.5.5.2.8.4 1.3.3.6.2.9.7.8 1.3-.6.1-.9-.2-1.3-.5-.8-.5-1.5-.7-1.9-1.6-.3 0-.5.2-.8.6-.7-.6-1.5-.5-1.6-1.6-.5 0-.9-.4-1.4-.4-.7 0-1-.3-1.3-.9-.3 0-.6 0-.9-.2-.3-.4 0-1.1-.7-.9 0 .3-.2.6-.3.9-.7-.3-1.7-.3-1.6-1.3-.2.1-.4.2-.6.2-.4-.2-.5-.5-.6-1-.4 0-.9.2-1.2.4 0 .5 1.3.5 1.3.9-.5 0-1.3.5-1.5-.2-.1-.3-.4-.4-.8-.3-.4.7-.5 1.2-.5 2.1.2.3.5.5 1 .6 0 .4 0 .7.2 1 .2 0 .4-.1.5-.2.4.3.8.9.1 1.2-.2-.3-.5-.4-.7-.5v.3c.5 1 2.2.7 2.5 2.1.6-.1.7 0 1.2.3-.6 1.2.4 1.2 1.2 1.5l.3.9c.6.4.7.4 1.4.2.6.7.5 1.3 1.8 1.3.7.9 1.6 1.2 2.7 1.5.7.2.5.9 1.1 1.3-.1 1.1.6.9 1.4 1.1.1.4 0 .6-.6.6.7.1 1.2.7 1.8.8.6-.2.8-.3 1.4 0 .4.5-.1.6-.5.8 1 .6 2 1 3 1.6.8-.3 1.5 0 2.1.6.7.6 1.7.8 2.4 1.5-.2.5 0 .5 0 1-.7.6-1.7 0-1.7-.9-.6.5-1.5.4-1.5-.5-.2-.1-.5-.1-1 0-.4-.5-.7-.6-1.2-.9 0-.3-.1-.6-.2-1-.2-.1-.5-.1-.8 0v-.6c-.4 0-.6.1-.8.2l-.6-.6c-.7.4-.7-.3-1.3 0 0-1.1-.8-.6-1.5-.8-.2-1.2-1-.5-1.9-1.2 0-.4 0-.7-.2-1-.4 0-.9-.1-1.3-.2 0-1.1-.8-1.3-1.5-2-.9 0-1.8.1-2.3-.8h-.7c-.2-.4-.2-.8-.1-1.2-.2.4-.3 1.1-.9 1-.1-.3-.2-.6-.4-.8 0-.2 0-.4.2-.6-.8 0-1.5 0-1.9-.8h-.3c0 .5-.1.9-.2 1.2h-.8c.2-.7-.3-1.5-.7-.6 0 1-.6 3 .3 3.7 0-.5.2-.8.6-.8.7.5.8 1.7 1.4 2 0-.6.2-.8.6-.6.2.6.7 1.9 1.4 1.2.4.6.6 0 1.1 0 .4.7 1.4 1.2 2.2 1.2.2 1.5 1.2 0 1.4 1.3.2 0 .4 0 .6-.2 0 .5.3 1.4.6 1.7.6-.3 1.1-.2 1.3.3.7-.4 1 0 1.2.7 1-.2.9.6 1.6.9v-.7c.4 0 .8.1 1.1.2.5.7.5 1.3 1.6 1.1.3.5.7.8 1 1.3.4 0 .8.1 1.1.2.2.3.2.6.2.9.3 0 .6-.1.9-.2.4.2.8.9 1.2.9.8 0 .9.6.9 1.2.2-.1.4-.3.6-.4 1 .2 1.3.7 2.3 0 1 .4 1.4 0 2.3-.4.3 0 .3-.2 0-.4-.4-.1-1-.1-1-.6.4 0 .7 0 .9-.1.2-1.2-.5-.7-1.1-.3-.9 0-.5-.8-1.1-1-.9-.2-.8-1.1-1.9-1.1-.1-.4.8-.5 1.1-.6.3.2.5.3.8.5.3-.1.6-.3 1-.4.3.9 1.4 1.1 2.1 1.8.8-.5 1.5 0 2.2.5-.1.2-.2.4-.2.6.5.6 1 1.1 1.9.9.5.4.8.2 1.4.1.2.2.2.4 0 .8.8.4 1.5.4 2.2.9 0 .8 1 1.4 1.7 1.4.7-.7 1.3.3 2-.3s0-.9.1-1.9c-.6-.7-1.7-1-2.2-1.7-.1-.3 0-.5.2-.6.7-.1.9.7 1.4 1 .2-.4.5-.6 1-.6.2-.3.2-.7.1-1.1h.4v1.4c.3.5.8.6 1.4.7 0-.4.3-.6.7-.8.5-.5 0-1 .6-1.3.2.4.4.7.7 1 .2 0 .4 0 .5-.2.4.3.8.5 1.2.7.2.5 0 1.3.5 1.6.2-.2.5-.4.8-.5.8-.2.7 1.5 1.5 1.4.2-.3.3-.6.1-1.1 1 .4 0 .2 1.1 0 .6.7 1.5 1 1.3 2.2.1-.4.3-.6.6-.6l.3.5c1.1.2 1.1-2.1-.1-1.4-.1-.3-.2-.6-.2-1-.2.1-.4.2-.6.2-.4-.2-.7-.6-.9-1-.8.6-2-1-2.9-.9-1.3 0-.6-1.4-1.9-1.6-.2-.7-.9-.7-1.4-1.4-.1 1.2-.8.8-1.1 0-.4-.2-1.4-.2-1.1-.9.5 0 .7-.3.8-.8.9-.5.4-1.2 1.6-1.3.1-1.5 1.4.4 1.8-.7-.2-.6-1.1-.9-1.3-1.5 0-1.7-2.4-1.2-2.6-2.9-.2 0-.4.1-.6.2-.2-.5-.6-.9-.9-1.4-.6.3-1.5 0-1.5-.8h-.7c-1-.2-.5-1 .3-1 0-.2-.7-.4-.9-.5v.6c-.8 0-.4-.6-1.2-.1 0-.7-.5-1.1-.7-1.7-.5.4-.5 0-1-.2-.8-.4-1.7-.2-2.4-.7-.2 0-.4 0-.6.2v-1c-.9-.5-1.5-1.1-2.6-1 0-.4.3-1.2 0-1.5 0 .2-.2.3-.4.4-.7-.7-1.4.1-1.5-1.2-.6-.1-1 0-1.2-.8-.7.1-.8-.3-1.3-.4-.5.1-1.1.5-1.4-.2v-1c-.8.2-1 .3-1.8-.1-.2-.6-.2-1.2 0-1.6.4 0 .7.2 1 .6h1.3c.5.3 1 .6 1.6.7.2.4 0 .6-.6.6.3.2.5.5.8.8l.6-.4c.9.6 1.9.7 2.5 1.6 1.4-.3 2.2.9 2.7 2 .2-.1.4-.2.6-.2.7 1 1.5.3 2.1 1.3.9-.1 1.3.2 1.9.7.7.2 1.2.4 1.2 1.2.8-.2 1 .2 1.5.7 1.2-.1 1.9 0 2.9 0 .2.1.4.3.5.4.6-.6 1.1-.2 1.7-.8.8.1.3.9 1 1.1.4 0 .8.1 1.3.1-.2-.7-1-1.3-1.4-1.9 0-.7.5-1.9-.5-2.2-.9-.5-1.7 0-2.6-.6-.7-.3-.5-1-.6-1.7-.7-.1-1.8.4-2.4-.4-.5-.8-1.2-.4-2-.7-.4-.5-.3-.9-1.1-.8.1-.1.2-.3.2-.5-.5-.4-.4-.9-1.1-1-1 0-1.8-.3-2.8-.6-.1-.6-.3-.8-.9-1-.7-.1-1-.7-1.5-1.2-.4-.5-.9-.3-1.4-.3-.4-.1-.9-.3-1.3-.4-.1-1.5-1.1-1.5-2.3-1.5-.8-.7-1.1-.9-2.1-.8-.6-.4-1-.9-1.4-1.5-.5-.2-.8-.3-1.1-.8-.7-.2-1.6-.2-2.1.3-.3-.2-.6-.4-.9-.7-.7.3-1.3.6-2 .7-.4.4.4 1.4.7.7.1-.2.3-.3.5-.3 0 1.1-.7.6-1.4 1 0 1 1.6 1.9 2.5 2.1.8.2.9.9 1.2 1.5 1 .4 2.6 1.1 3.6 1.4v.5c-.4 0-.7.3-.7.7-.6.1-1-.4-1-1l-.6.3c-.4-.2-.8-.3-1.2-.3-.5-.2-.7-.7-1.1-1 0-.3.1-.6.2-.9-.8.1-1.2-.2-1.7.5-.6-.3-.9-.9-1.3-1.3-.2.1-.4.3-.6.4-.6-.5-1.6-.8-2.1-1.4 0-.7-.2-1.1-1-1-1 0-1.1 0-1.7-.8-1.2.1-2.4-.3-2.7-1.6-.6-.3-.7.6-1.3.3.1-.4.2-.7.2-1-.3-.1-1.2-.1-.9.4.5.4.1.8-.3.8 0-.5-.2-.8-.5-1-.6.3-1.8 0-1.9-.8-.3 0-.5.2-.8.4-.8 0-1.2 0-1.9.5-.5 0-.8 0-1 .4.3.2.4.5.4.9.6.5 1.4.5 2 1.1Zm.2 7.6v-.3h.2v.2h-.2Zm45.8 23.2c.7-.3.9.6.3.8-.4-.2-.6-.5-.3-.8Zm-4.8-.8c.3.7-.5.8-.3 0h.3Zm.5-5.2c1.1.3-.7 1.7-1.1 1.3-.1-.5.7-1.1 1.1-1.3Zm-2.4-.2v.4h.4v.2h-.2v-.3h-.4v-.3h.2Zm-3-1.5v.3h-.3v-.3h.3Zm-1.1-.8c.5-.2.6 1 0 .9-.3-.4-.3-.7 0-.9Zm-2-.4h.3v.3h-.3v-.3Zm-2.3-1.2c.4-.2.7 0 .7.3-.5.2-.7 0-.7-.3Zm-8.8-5.7h.3v.3h-.3v-.3Zm-3.3-2.1c-.5 0-1.1.4-1.3-.3-.2-1 1.4-.1 1.3.3Zm-2.2-.3c-.8.4-.9-.9-1-1.4.7-.5.8 1 1 1.4ZM156 332c.5.1.8 0 .7-.4-.3-.1-1.5 0-.7.4Zm-11.1-80.9c-.2.4.6 1.1.7.4-.1-.5-.4-.7-.7-.4Zm27.2 12.7.2.3c.4 0 .5-.2.2-.6h-.3l-.1.3Zm81.8-54.3c.8.3 1-.4.3-.8-.8-1-.8.4-.3.8Zm-14.6-5.9c.8 0 .1-1.2-.4-1.1-.6.3-.3 1.1.4 1.1Zm-22.1-32c0-.2-.2-.4-.3-.6.1-.4.9-.1 1-.6-.3-.1-.7-.2-1-.3-.4-.6.1-1.4-.5-2h-1.3c0-.3 0-.6.2-.9-1.2.4-1.3-.8-2.2-.8.4.5.7.7.6 1.4-.3.4.3.6.5.8 0 .2 0 .4-.2.6.7.8 2.2.5 2 1.6-.5.6 1 1.3 1.2.7Zm-21.1 89.2c-.4 0-.7.1-1.1.4 0 1.1 1.7.5 1.1-.4Zm-2.7-10.7c.9.5 1.7.6 2.5 1.5.7.1 1.1.3 1.6.8.7 0 1.5-.2 1.6.8.6-.2.9 1.2.7 1.6.7-.2.7 0 1.2.4 0-.5-.3-.8-.8-.7-.4-.7-.2-.9 0-1.6-.3 0-.6-.2-.8-.4-.9 0-1.3-.2-1.1-1.2-.7.1-.8-.2-1.3-.5-.5.1-.8.3-1.3 0-.4-1.4-1.7-1.6-2.9-1.7 0-.3 0-.7-.1-1-.3-.1-.5-.3-.8-.4-.5.3.5 1.2.4 1.8.5.5.6.7 1.3.5ZM209.9 414c0-.3-.1-.3-.6-.2 0 .3.1.4.6.2Zm-19-154.2-.6-.4c-1.1.8.5 1.1 1 1.6 0-.6.3-.7.8-.4.5.3.8-.6 1.2-.5.4.6 1.1 1.5 1.5.3-.8-.4-1.3-1.1-2.1-1.3-.8 0-1.6-.2-1.7.8Zm-67.4 104.8c-.2-.3-.3-.6-.5-.9-.8-.3-.9.7-.8 1.3.1-.1.3-.3.3-.6.3.1.6.2.9.2Zm93.2 70c0 .2.2.3.5.2 0-.3-.1-.4-.5-.2ZM185 353.2c-.4-.6-.7-1.1.2-1.3.6 0 .9-.3 1.4-.4.2-.7-1.4-1-.7-1.7.3.1.7.2 1 .2v-.5c-.4 0-.7 0-1-.1 0-.2-.1-.4-.2-.7l-.2.6c-.5 0-1-.2-1.4-.6h-4.5c-1 .6-1.9 1.4-3 .7-.3.3-.5.5-.7.8h-1.1c-.4.4-.3.5-.2.9-.7.5-1.1-.2-1.8-.4-.3 0-.4-.3-.4-.7.7-.2 1-.7 1.8-.5 0-.6.2-1 .5-1.2.5.3 1 .6 1.6.8.6-.8.6-.4 1.4-.4-.1-.2-.2-.4-.2-.7.6-.4 1 .7 2 .1.6-.6 1.5.3 1.5-.8.3 0 .5.1.6.5 0-.5.2-.8.6-.9.2.2.4.3.6.5 0-.9.5-.7 1.2-.9.1.2.2.3.3.5.3-.8.3-.9 1.1-.8v-.8c-.6.6-1.2.6-2 .8-.5.3-1.2.5-1.7.2 0-.3.1-.5.6-.6h-2c-.3.4-.6.6-.9.6-.4-.4-.5-.8-.3-1.1 1-.8 2.4-.3 3.4-1 .7 0 1.2-.5 1.9-.5.8-.5 2-.3 2.1-1.4.4 0 .7-.3.9-.6-.3-.7.1-1.6-.5-2.1-.5-.6-1-.2-1.7-.5l-.6.6c0-.5-.2-.8-.6-.9-.7.3-1.8.5-2.6.4l-.3.4c-1.2.1-3.1-.5-3.9.7-.8 0-1.6.2-2.3.1 0-.4 1.2.1 1.5-.2.1-.8.4-.5.9-1 .8-.2 1.8.3 1.9-.9.3.3.5.7 1 .7 0-.6.3-.8.7-.7.7.1 1-.2 1.2-.8.5.3.8.4 1 .2-.1-.6-.2-1.1-.1-1.7-.3-.5-.7-.5-1.2-.4.1.2.3.4.4.7-.2 1.1-1.1.5-1.8.4 0 .9-.9 1-.9 0 .2-.2.4-.4.4-.7-.8 0-1.1 0-1-.4.6 0 1-.2 1.5-.4.6.3.9 0 1.5-.2.6-.3 1.1.3 1.7 0 .2-.5.5-.7 1-.7.7 0 1.1-.5 1.8-.5 0-.6 0-1.3-.2-1.8-.4-.7-.5-1.3.5-1.4v-1.1c-.2.2-.4.4-.7.5l-.2.6c-.3.2-.7.2-1.1 0 0 .5-.1.9-.2 1.3-1.1 0-1.7-1.3-2.9-.5l-.3-.9c-.4.3-.5 1-.8 1.2-.2-.6-.6-.7-1.1-.9l-.3.9c-.2-.1-.4-.2-.7-.2l-.2.6c-.8 0-1.3-.1-1.9.4-.4-.4-.1-1-.8-.9-.3.6-.8.7-1.4.8-.3.7-.8.5-1.4.8-.6-.2-.9-.6-1.6-.6-.1 1-.8.4-1.5.4-.2.2-.4.3-.6.5-.8-.2-1.6-.1-2.2.5h-.9v-.8c.9 0 1.2-.5 2.1-.3.8 0 2.2-.4 2.2-1.4-.1-.2-.3-.4-.5-.5.6 0 .8-.3.5-.9-.7.4-.8-.3-1.5.3-.6-.2-1.2-.6-1.8-.6 0 .2 0 .4.1.6-1 0-2.5-.2-3.6-.2-.2.6-.8 1.2-1.5.8-.8-.3-2 .6-2-.7-.3.3-.4.6-.6 1 .1.7 1 .4 1.5.4v.3c-1.5 0-3.7-.6-5.1.3-.6-.3-1.2 0-1.3-.8-.7 0-.7-.2-.9.6-.6-.2-1.3-.5-1.8.2 0 .2 0 .4.1.6-1 .6-1.4-.5-2.4-.2 0 .4-.3.7-.7.9-.9-.2-2.2-.4-3 .2l-.6-.3c0 .5-.2.8-.6.8-.2-.1-.4-.3-.6-.5 0 .8-.4.8-1.1.8 0 1-1.7.7-2.3.8-.6.6-2 .4-2.8.3v1.1c-1.1.2-1.7-.2-2.5 1-1.1-.7-1.1.6-.6 1.3 0 .2-.1.4-.2.6.1.1.2.3.4.4.2-1.3 1.2-.1 1.6.1 0-.6.3-.8.8-.6 0 .2-.1.4-.2.5.7 0 .8.3 1.1-.6.2 0 .5.2.7.4.2-.1.4-.3.5-.6.2.1.4.2.6.2l.6-.6c.2.1.4.2.6.2 0-.5.3-.7.6-.6 0 .4-.2.8-.4 1.2-.6.1-1.1.3-1.6.3 0 .2.1.4.2.6-.9.5-2.9 0-3.6 1.1-.1-1.5-1.7.4-1.8.9.4.5.1 1 .5 1.5.3.2 1.8.5 1.5-.3-.3-.2-.6-.2-1-.2v-.5c.8.5 1.1.5 1.9 0 .4.2.5.2.9 0 .2.8-1.2 1.1-1.7 1.4-1 1.1-2.2-.4-2.6 1.3-.5 0-1.3-.2-1.4.6 0 .5-.3.6-1 .4v1.1l.9.6c0 .3.1.7.2 1-.2.3-.4.5-.6.6-1.4.1-2 .9-3.1 1.5-.2 0-.4-.1-.6-.2-.3.7-.3 1.1-1.2.9-.7.5-.7.6-1.5.1-.8-.3-1 .5-.6 1.1-.6 0-.9.2-.8.8-.6-.3-.7-.3-.8.4-.5-.4-1-.8-1.7-.9-.3.5-.4 1-.9 1.3-.2 0-.5-.2-.7-.2-.3.2-.5.3-.8.5-.4-.2-.8-.7-1.2-.2-.6.6-.8 1.2-1.7 1-.6.5-.9.4-1.5.3-.1 1.6-1.3 1.1-2.3 2-.2 0-.3-.1-.5-.2-.2 1.6-2.6.9-3.5 2v.5c1.2-.2 2.6 0 3.7-.2.2.2.4.3.6.6 0-.4 0-.7.2-.9 1.2.6 1.6-.9 2.7-.2h.2c.1-.4.2-.9.4-1.3 0 .2.2.4.2.6.5 0 .9-.2 1.4-.5 1.1 1.1 1.1-.5 2.5.1l.2-.5c.2 0 .4.1.6.2.2-.6.1-.8.7-.3.7.6 1.2-.1 1.7-.6.4 0 .8 0 1.2-.4.4 0 .7 0 .9-.3.5-.4 1.5.2 1.9-.4.5-.6.9.3 1.6 0-.1-.3-.2-.6-.2-.9.5.5 1.1.6 1.7.1.3-.3.7 0 1 0 .6-.2.6-.7.7-1.2.4.3.6.7 1 .9.5-.7 1.6-.4 1.7-1.2.9-.4 1.6-.5 2.6-.4.7-.6.5-.6 1.2 0 .7-.7.8-.2 1.7-.4v.4c-1.1-.2-2 .7-3.3.5-.6-.5-1.7 0-1.8.7-.7 0-1 .4-1.7.5-.6.7-1.5.8-2.2 1.6-.2.6-.5 1.1-.3 1.7-.7.5-1 1.3-1.8.4-.7.3-1.2.6-1.6 1.3-.4.8-1.9.3-2.1 1.1 0 .6-.2 1.1-.5 1.6-1.1.4-1.7 1.4-3 1.6-.4.7.1.9-.9 1-.1.3-.2.7-.1 1.1 0-.2-.2-.4-.2-.7-.4-.1-.8-.3-1.1-.6-.7 0-1.2.3-1.9.3-.3.5 0 1-.6 1.4 0 .6 0 1.1-.7 1l-.2-.6c-.8 0-1.2-.9-1.9-.4-.6.6.3.8.1 1.6l.2.4c1.1-.1 1.8.7 2.5-.3.2.1.4.3.6.4.8-.4 1.3-1.1 2.3-.8.8-.6 1.5-.2 2.3-.5 0-.2-.1-.4-.2-.6.6-.4 1.1-.3 1.7-.6.5-.3.3-.6.2-1 .6 0 .5.5 1 .8 1.1 0 1.5-1.1 2.3-1.4.3.2.5.4.8.6.3-.1.5-.4.5-.9.6-.1 1.2.2 1.8-.2 0-.4-.6-1.1.3-1 .1.6.7.9 1.2.6-.2-1 1-1 1.6-1.4.2 0 .3.3.4.6h1c0-.3 0-.6.1-.9 1-.3 1.8 0 2.7-.6 1-.5 1.2-.5 2.3-.4.8 0 .9-1.1 1.2-1.6.5 0 .6.2.9.5.2-1.1.8-.1 1.5-.9.8.2 1.6.4 2.4 0l-.3.6c.1.2.4.3.8.3.6 0 1.2.4 1.7.7-.8 0-1.4-.3-2.3 0-.3.9-1.1.5-1.7 1.2-.6-.1-1.2 0-1.8 0 0 .3 0 .7-.1 1-.4-.1-1.4-.1-1.4-.8 0-.2-.1-.3-.4-.3.6 1.2-.4 1-1.2.8.1.8 0 .9-.6 1.4-.9.2-1.1 1-2.1.9.1.2.2.3.2.5-.4.1-.9.2-1.4.2 0 .2.1.4.2.6-.6 0-1.2.9-1.8.3-.6-.5-1.6.1-2.4.2-.1.5.3.6.6.9-1-.2-1.6.4-2.5.5-.8-.4-1.2-.6-2.2-.5 0 .3.2.7.4 1-.2 1-1 .5-1.7.5.2.4.3.8-.3.9-.1-.6-.7-.9-.9-.3.2.2.3.5.3.7-.8 0-1.7 0-2.5-.2 0 .4 0 .8-.4 1.2-.1.3.2.9.3 1.2.9 0 1.4-.2 2.2.3.7-.4.9-.5 1.7-.4.7-.3 1.2-.9 1.9-1.1.2-.3.4-.5.6-.5 0 1 1 .4 1.5.1.8.1.9-.7 1.8-.4.6-.9 1.5-.8 2.5-1 .6 0 1.2-.4 1.8-.1.6-.4.1-1 .9-1.3 1.1-.2 2.1-.4 3.1-1 2 0 3.6-1.5 5.6-1.6.1-.4.3-.6.6-.7.8.2 2.5.2 2.8-.9.8-.2 1.7-.3 2.4-.7.9-.5 1.9-.2 2.9-.6.3-.4.4-.8.7-1.2 1.2-.9 3.5 0 4.7-1.1.2-.3.3-.6.3-.9 1.2-.8 2.6-.2 3.9-1.1 1.2-1 3.1-.7 4.4-1.5 1.2-.4 2.3-.7 3.5-.9.4 0 .7-.4.8-.8 1-.4 2-.3 2.8-1 1.5-.3 3.2-.1 4.6-.8.7-.9 2.4-.5 3-1.4Zm-5.3-6c.5-.4.8-.3 1 .2-.1.6-1.2.6-1.6.3 0-.2.1-.4.5-.5Zm-.6-10.8.3.2v.3l-.3.2h-.4v-.4l.3-.2Zm-39.7.5h-.4v-.3h.4v.3Zm31.5 15c-.3.5-1.4.8-1.2 0 .3 0 .7 0 .9-.2-.5-1.2.7-1.6 1.5-1.1 0 .3 0 .7.3 1-.6 0-1.1-.1-1.5.4Zm12 87.7h-.2v.2h.2v-.2Zm-52.8-95.4c0-.3-.2-.4-.5-.2 0 .3.1.3.5.2Zm266.3-164.1c0 .2-.1.5-.2.7.8 0 .1-.7 1-.9 1.3-.2.8 2.2 1.1 3-.3.2-1 .3-.9.8.3 1.1-.7 1.1-.4 2.1.2.3.3.5.4.8.6 0 .8 0 1.3-.4.4.2.7.5 1 .8l.2-.6c.5.1.9.2 1.4.2-.6-.7.5-1.2.5-2.2.9-.5 1.8.3 1.7 1.2-.4.7-1.1-.2-1.5.1.4.5.7 1.3.3 1.8-.4-.1-.7-.2-1.1-.3.4.7-.2 1.1.4 1.8l-.2.4c-.8.7-1.4-1.2-2.2-1 0 .5.4.7.5 1.2.2.4.3 1.5 1 1.1 1.4-.7 1.1 1.2 2.3 1v-.6c.7.4.7 1 1.4 1 0 .2 0 .4-.2.6.2.3.5.6.7.9v1c.2 0 .4-.2.6-.2 0 .2.2.4.2.6.2-.8.4-.8 1.2-.8.6-.3.3-.8.5-1.3.3-1 1.1-.4 1.4-1.4 1.2.5 2.2-1.2 3.6-.6 0-.6 0-1.6.8-1.1.3.3.2.6-.2 1 .3.1.5.3.7.6-.3 1-.9.7-1.5 1.3.4.4.4.7.4 1.2.6.4 1 .6 1.7.4.6-.8-.6-1-.2-1.7.8 0 .9.7 1.4.9.7 0 1.1-.3 1.7.3.2-.1.4-.3.6-.4.4.1.7.2 1 0 0-.3.1-.7.2-1 .4-.1.6.7.9.9.2-.2.4-.4.6-.5.2.2.4.3.6.5.4-.4.5-.5.2-1-.4-.4-.3-1.8.4-1.8.2.2.4.3.6.5 0-.5-.1-.9-.2-1.4.2-.4.8-.5.6-1-.2-.5.2-.8-.1-1.4.3-.1.5-.2.8-.3.3 0 .4.2.5.4.3-.4.4-.8.8-1.1-.8 0-.9-1-.2-1.1.7-.2.6-.8 1.4-.8-.4-.4 0-1.9.7-1.2l.8-.8c.2-.6-.7-.7-.7-1.3 0-1.2.7-.5 1-1.5.2 0 .4 0 .5.1 0-.6 0-.8-.5-1.1.2-.4.2-.5 0-.9.8-.5 1-1.8.8-2.6.8 0 1.1-.8.7-1.5-.3 0-.5.1-.7.3 0-.9.9.1.9-.9 0-.7.2-1 0-1.8.3 0 .7.2 1 .4.3-.2.5-.4.6-.7-1.2-.2-.4-1.1.3-1.2 0-1 .7-1.1.2-2.1h.6c-.1-1 .1-1.8.9-2.3.3-.1.4-.3.3-.7-.2 0-.4.1-.5.2 0-.4-.2-.8-.6-1.1 0-.2.2-.4.3-.6-.7 0-1.1 0-1.8.3-.8-.1-1.4-.7-2.1-.6.3-.2.5-.5.8-.8.2 0 .4.1.6.2.2-.9.8-.4.7-1.5 1.1-.1 1.4-1 1-1.9 0-.4.2-.8.3-1.2-1-1.1 0-1 .4-1.9-.1-.3-.3-.7-.5-1-2.3-1.2-4.1-.3-6.3.2 0 .2 0 .4.2.6-.5.4-1 .7-1.7.6 0 .6.5 1 .2 1.7-.5.2-1.2-.3-1.6-.5-.3.1-.5.2-.9 0 0 .6-.3.9-.7 1.2-.8 0-1.5.2-2.1-.4h-1v-2c.9.2 1.4-.3.8-1.1-1.2-.2-.3-.7-.6-1.3-.9-.6-1.9-1.1-3.1-.8-1.2.4-2.2-.3-3.3.2-.2.2-.4.4-.7.4-.1.7-.7.8-1.1 1.3-.4.5 0 1-.2 1.6-.6.4-.5 1-1.3 1.1-.3 1-.8 1.4-.6 2.5-.7.2-1 1.2-1.7 1.1-.7-.1-1.4 0-1.4.9.5-.3 1-.3.9.4-.9.4-.8.8-1.2 1.6-.3 0-.6.1-1 .2 0 .3.1.7.2 1-.5.8-.8 1.2-1.7 1.7.2.3.7.5.5.9-.8.3-1 .2-1.1 1.2-.7-.3-.8 0-1.4.2-.2.9.6 1.7-.8 1.9 0 .5 0 1-.1 1.4-.3 0-.6.1-.7.3.1.5.5 1.1 0 1.5-.4.5-1.1.7-1.5 1.2-.5.5-.2 1-.4 1.5-.4 0-.8.2-1 .5.3.6-.7 2 .6 2.1Zm4 10.1v-.3h.3v.3h-.3Zm25-8h.2v.3h-.2v-.3Zm-7.6-27c.6 0-.2 2.1-.7 1.3 0-.4.4-1 .7-1.3Zm-2.6 32.9.2-.5c.5 0 .7.8 1 1.1.2 0 .4-.1.6-.3v.8c-.3.3-.5.5-.7.8.2-.9-.9-1-1.4-.7.1.9-.1 1.4-1 .8-.8-1 0-2.5 1.4-2.1Zm-11.4-5.2c.4-.1.8 1.1.6 1.3-.6.1-1-1-.6-1.3Zm-.8 1.2c-.6 0-.8 0-.7-.4.4-.3 1.6-.1.7.4Zm-2.5-1.8c0 .6.2.8.9.7-.7.5-.7.6-.1 1.4-.1.7-.9.5-1.3 1-.4-.3-.6-.6-.7-.9.2-.2.5-.3.9-.3-.6-.8-.1-1.6-1.3-1.8-.3-1.1 1.2.5 1.6-.1ZM125.9 347c0-.3-.2-.4-.7-.3v.2l.4.2h.4Zm-11.8 22c-.1.7-.4 1-.6.1h-.5c-.9-.3-.7.8-.3 1.2-.4 0-.8 0-1.2.3-.2 0-.4-.1-.6-.2-.2.2-.4.5-.5.8.1.6.8.3 1.1 1 .7-.4.9-.5 1.7-.6 0-.2 0-.4-.2-.6.2-.5 1-.4 1.4-.6.4.5 1.4.6 1.8 0-.5-.8-1.1-1.4-2.1-1.5Zm13.4-22.1c-.5 0-.7.2-.6.4.9.5 1.4-.5 1.8-1.1-.2-.2-.3-.5-.3-.8l.4-.2c.8.8 1.7 0 2.7.7.7-.3 1.1 0 1.2-.9 1 .7 2.9-.7 1.8-1.9h-.3c-.2.4-.2.9 0 1.4-.4.1-1.7.4-1.5-.3.4 0 .7 0 1.1-.1.2-.8-1-.3-1.4-.2-.4.2-.7 0-1.1 0-.4.3-.5.8-.9 1.1-.7-.4-.5-.3-1.1.1-.7 0-1.9-.5-1.9.6l-.7.2c.2.3 1.2.4 1 .9Zm3.9-2.1c.7-.3 1 .5.3.7-.5-.2-.6-.4-.3-.7Zm-6.2 3c0-.4-.1-.5-.6-.3 0 .3.2.4.6.3Zm100.6 61.6c0-.3.2-.6.3-.9-.5 0-.8-.3-.9-.7-.8-.2 0 .6-.2 1-.4.7-.6.3-1.1.1-.2.7-.7.6-1.1 1.1 0 .2 0 .4.2.6-.6-.1-1.4 0-.8.8l.2.6c-.3.2-.6 0-1.1-.5-1.1.4-.5.8-.5 1.6-.6.1-.9-.6-1.4-.3 0 .4.2.7.3 1.1-.9-.7-1.1-.4-2.1-.4 0-.4.1-.8.1-1.2-.8-.2-.6-.2-.8-.9-.1.8-.2 1.1.3 1.8-.2.4-.3.8-.4 1.2.4.2.9.2.9.7-.3.2-1.4-.6-1.6-.8.2-1.1-.7-1.4-1.3-2-.4 0-.5.4-.5 1l-.3.2c-1-1-.7.3-1.9-.3 0-.9 1.2-.6 1.4-1.3-.7 0-.9.6-1.6.4 0 .7 0 1-.8 1.2 0 .3-.1.6 0 .9.5.3 1 .3.9 1-.4-.3-.8-1.1-1.4-.8-.4.7-1.1.7-1.7 1.1-1 1-2.2.8-2.7 2.3-.4.1-.9.3-1.4.4-.2-.1-.4-.2-.5-.4 0 .8-.4.8-1 1.2-.2 0-.4-.2-.6-.4.3 1.5-.9 1.3-1.5 2.3-1.1.2-1.1 1.3-2.1 1.1-.6-.1-1.2-1.1-.1-1.1-.1-.2-.2-.4-.2-.5.6-.5 1.2.2 1.1-.8-.4-.4-1.2 0-1.7-.1v-.9c0 .4.3.7.6.8.7-.6 1.1-.1 1.8-.3 0-.2-.1-.4-.2-.6.2-.4.8-.6 1.1-.8.1-.3.2-.6.3-.8.9-.3 1.1-.7 2.2-.5-.3-.2-.9 0-1.2-.4-1-1 .3-2.1 0-3.1-.7.6-.4 1.5-.7 2.1-.7.1-1-1.6-.9-2.1h-.1c0 .5 0 .9-.1 1.3-.3.1-.5 0-.6-.6-.4.3-.9.5-1.3.8h-1.4c-.6.6-1.6 1.2-1.8 2.1-.7 0-.4-.4-.9.2.2.2.3.4.4.6-.5.5-.6 1-1.3 1.2 0 .2 0 .4.1.7-.3 0-.7-.2-1-.3l-.2.6c-.9.9-1.5 1.9-2.7 2.5v1c-.4 0-.7 0-1 .1 0 .9-.8.6-1.3 1.4-.9.3-1.1 1.1-2.2 1.3 0-.2-.1-.4-.2-.6 0 1.2-.8.3-1.1 1.3-.3.8-2.2.8-2.1 1.8.4 0 .7.3.8.6-.1.4-.4.7-.7 1 .5.7.6 0 1.2 0 .1-.4.3-.8.4-1.2.7.4 1.2.3 1.1 1.3.5-.2.4-.9 1-1.1.8-.2 1.3.5 2.1.3v-.5c.5-.3 1.2.2 1.8 0 .4 0 .7.1.8.6-.4.5-1.2.6-1.7 1.1-.2.3-.6.5-.9.6 0 1.9-1.6 1.9-2.6 3.1-.9 0-1.2.2-1.1 1.2-.6-.2-1.6-.2-2 .4-.2.6.2 1-.4 1.5.2.3.2.5 0 .8.3.5.1 1.1.7 1.2.3 0 .6 0 .9.1-.5.9.3.6-.3 1.5.6.3.7-.5 1.3 0 .8-.4 1-.4.6-1.3.3-.2 1-.7 1.3-.3.3.4.4.9.7 1.3-.3.7 0 1.1 0 1.8-.4.4-.9.6-1.2 1.1-.8.2-1.5 0-2.1.6-.2.4-.2 1-.8 1.1-.7 0-1.2.6-1.7 1.2 0 .5.4.9.3 1.3-.5.5-.4.9-.4 1.6-.4.6-1 .8-1.5 1.3 0 .7.3 1-.5 1.2.1.5.1.7 0 1.2.3.4.9.7 1.4.7 0-.5.5-1.2.2-1.7.9-.3 1.7-1 2.7-1.2.7-.3.3-1.2.4-1.8.3-.4.7-.8 1-1.1.7.3.4.1 1.1 0 .5-.1.9.4 1.2 0 .7-.3.5.9 1.1 1 .7.2.9.8.9 1.5h.6c-.1-.3-.2-.5-.4-.7.5-.6.5-.4 1.1-.1 0-.5.2-.6.5-.5 0 .4.2.6.3.6l.2-.6c.2 0 .4.2.6.6 0-.7.2-.9.6-1.4-.3-.4-.4-.7-.4-1.1.5.2.9.3 1.3-.1 0-.4.3-.7.5-.9.3.1.5.4.6.7.6.1.9-.6 1.2.2-.4.8-1.5 1.1-.5 1.9 0 .4-.2.6-.7.6.5.4.4.6.4 1.2.2.4.7 1 1.1 1.1.6-.1-.1-.6 0-.9.9-.3.5 1.1.9 1.4 0-.6.4-.9.6-1.4-.2-.4-.4-.7-.4-1.1.3 0 .5.2.8.5 1-.2.5-.9.5-1.6 0 .2.2.4.3.6.7-.2.6-.1 1.1.3.4 0 .7-.2 1-.4.5-.1 1.1.6 1.6.5 0-.5.1-.8.5-1.1 0-.2 0-.4-.2-.5.9-.2 1-.9 1.8-1.2.2.2.4.3.6.5.1-.8.5-1.3 1.4-1.3v-1.1c.3-.1.5-.3.8-.5 0-.3.1-.6.1-.9.5 0 .9-.4 1.3-.6 0-.2 0-.4-.2-.6.6 0 .8-.2.8-.7.5 0 .8-.2.8-.6l-.6-.6c.9.2 1.1-.2 1.6-.7.8.6.7-.5.9-1 .2-.2.5-.4.9-.4.2-.3.2-.6.1-1 .2.1.4.3.6.4.9-.3.6-.7.2-1.2.2-.2.5-.2.9-.3-.1-.3-.2-.6-.1-.9.3.1.6.2.9.2 0-.2 0-.4-.1-.6.2-.3.4-.6.7-.8.2 0 .4.1.6.2 0-.8.4-1.7.7-2.4-.8-1.1-1.3.7-2.5-.1v-.4c.6-.2.9-.8 1.5-.9.5.4 1.2.4 1.8.3.1-.8-.5-.2-.8-.8-.2-.2-.2-.5 0-.8-.8.2-1.3-.2-1.5-.9.3-.6.7-.9 1.3-1.2.5-.5.7-1 1.4-1.3 0-.9.8-.9.2-1.7.7-.7.9.4.8.9h.1c0-.6 0-1.1.3-1.6.5-.5 1.1-.2 1.6-.7-.1-.2-.2-.4-.4-.5 0 .9-1 1.1-1.5.5-.2 0-.3 0-.5.1-.1-.6-.9-1-.5-1.5l.6-.2c.1-.5-.6-.8-.8-1.2.1.5-.4 1.7-.9 1.9l-.6-.3c-.8.5-1.3.9-1.8 1.6-.4-.1-.6-.1-1 0-.5 0-.4-.4-1 0-.1-.1-.3-.2-.4-.4.7-.4 1.3-.9 1.4-1.7.6-.3 1.2-.4 1.8-.6 0-.2 0-.5-.2-.7-.2-.6 1-1.4 1.4-1.6h1.4c-.2-.4-.5-.7-.5-1.2.7-.3 1.3-.1 2-.3 0-.3-.1-.6-.2-1 .4-.2 1.4.1 1.5-.4 0-.7-.7-.7-.6-1.3.3 0 .6-.2.8-.4 0 .5.2.7.6.6.6-.2 0-1 0-1.4.4 0 .7 0 1-.2.2-.5.2-.9.7-1.2 0-.2-.1-.4-.2-.6.2-.3.4-.5.7-.7.6.3.7 1 1.4.9 0-.5-.3-.8-.6-1.1Zm-38.1 18.5v-.3h.2v.3h-.2Zm-4 10.7-.3.2-.3-.2v-.4l.3-.2.4.2v.3Zm6.3 10.1c-.6-.7-1.3-.1-1.2-1.1.3 0 .5.1.8.3.3-.1.5-.3.8-.5.9.2.4 1.3-.3 1.3Zm6.1-3.1h-.4l-.2-.3.2-.3h.3l.2.3-.2.4Zm4.4-1.7c0 .5-.3 1.6-.9 1.6-.5 0-.6.4-.9.7l-.2-.6c-1.1-.1-.1 1.1-1.2 1.3-1.1.2-.9-.7-.2-1.1 0-.3.2-.6.4-.9-.9.4-2-.8-1.4-1.6.5-.4 1.3-.4 1.9-.4.6 1.1-.8.6-.6 1.3.1-.2 1.5 0 1.6 0v-1c.5-.6 1.2-.6 1.9-.6.4.8.3.9-.5 1.1Zm1.5-1.5c-.2-.7-.9-.6-1.2-1.2.5 0 .9 0 1.2-.4.7.5.6 1.2 0 1.6Zm3-3.7c-.2.5-.3.9-.6 1.4-.9.2-.8 0-1.2.8 0-.5-.1-1.1 0-1.6.8-.4 1.3-.9 2.1-1.2.4 0 .6.4.6.8-.3 0-.7-.1-1-.2Zm6.4-14.3h-.2v-.2h.2v.2Zm.8 8.8h-.2v-.2h.2v.2Zm4.6-1.4c.2.4-.7 1.1-1 .7-.2-.5.6-1 1-.7Zm1.4-9.9c.6-.4.6.6.8.9.3.4-.4 1.1-.8 1.1v-2.1Zm-4.3 13c.6-.3.8.5.2.6-.3 0-.3-.2-.2-.6Zm-1.5-21.5c.4-.3.7-.2.8.3-.2.7-.9.2-.8-.3Zm87.8-200.2c0-.4.1-.8.1-1.3-.5 0-.7.3-1.2.5v.8c.5.2.9.4 1.3.8.1-.2 0-.5-.1-.8Zm28.5-29.4v.3l.3.2.3-.2c0-.4-.2-.5-.6-.3ZM275 218h-.2v.2h.2v-.2Zm-2.3-2v-.3l-.3-.2h-.3c0 .6.2.8.6.6Zm-1.5.6c.5-.2.2-1-.3-.8-.2.4-.1.6.3.8ZM410.5 197c.4.2.9-.1 1.3-.2.2.5.4.8.9.3.6-.5 0-.9-.2-1.5h-1.2c-.2.4-1 .8-.8 1.3Zm-95.1-34.2c.4.5.4.9.4 1.5-.4.9 0 1.5.2 2.4-.4 1.1-.2 2 0 3.1-.2 1.4-.6 2.8-.3 4.2-.2.9 0 1.8.3 2.7-.6 1.3.3 2.1 0 3.5 0 1.2-.3 2.7.8 3.5-.1.2-.4.4-.8.5-.3.6.4 1.6.6 2.2-.4.8-.2 2 .7 2.4.2.7-.4 1.2-.1 1.9-.4.5-.5.6-.4 1.3.7 0 .8.3 1.3.5.2-.2.3-.5.3-.9.9-1 1-2 .4-3.2-.4-.4-.9-.4-.9-1 .2.2.4.3.6.4.6-.4.8-1.1 1.3-1.6.5-.6.5-.9 0-1.5.1-.4 0-.8 0-1.2.6-.2 1.7.3 2-.3-.9-.8-.1-2.8.4-3.7-.2-.7-.9-.3-1.2-.9.9-.1 1.2-1 .8-1.7.1-.3.3-.5.5-.8l-.2-.4c-.3 0-.5.1-.7.3v-1.9c.7-.1.8.4.7 1-.1.7.3.9.7 1.4 0 .8.2 1.1-.5 1.7.4 1 1.4.9 2.1 1.7v1.6c-.3-.3-.5-.7-1-.6-.3.5.3 2.1 1 2.1l-.6.2c0 .3.2.5.5.6-.4.1-.7.4-.8.8.6-.1 1.5 0 .9.8l-.6.2c0 .4.7.7.9 1 .3-.2.6-.4.8-.7 0-.2-.2-.5-.3-.7.3-.4.3-1.4.8-1.5.7 0 .8.9 1.4.7 0-.5-.6-.5-.6-1.1.6 0 1.9-.9 2.3-.4.6.5-.6.1-.4.8 1.2 0 .5 1.7 1.3 2.2l.4.3c-.3.6-.5.4-1 .3-.9 1.4 1.3 2 .3 3.4 0 1 .7.5 1.1 1.3.3.5-.3 1.1-.5 1.6.9.6 2.1.2 1.1-.9 1.1-.2.3-.9-.1-1.3-.7-.7.4-.8.2-1.7 1.1-.3 1-.9.6-1.8-.2 0-.5 0-.7.2v-.7c.5-.2.9-.5 1.4-.6 0-.5.1-.9 0-1.4.2.1.4.2.7.2.4-.5 0-.9-.2-1.4.3-.4.4-.8.4-1.3.3-.1.5-.2.8-.3v-.9c.3-.5.4-.5.3-1 .4-.3.6-.5.6-.9-.5-.2-.7-.4-.7-.7.5-.2.8-.4 1.3-.2 0-.3 0-.6-.2-.9l.6-.2c0-.2-.1-.4-.2-.6.7-.5 1-.9.9-1.8l.5-.2c-.7-1.6 1.3-3.5.2-5 .1-.8 0-1.5.4-2.2-.5-.3-1.1-.7-.7-1.3.4-.7.2-1.4.4-2.2-.7-.5.1-2.1-.2-2.8.1-.2.3-.4.4-.5-.8-.8-.3-2-.4-3.1.8-.5-.1-.5.4-1.2l-.6-.6c0-.2 0-.4.2-.6-1.3-1 .5-2.7-.8-3.8.1-.2.3-.4.4-.5-.4-1.1.5-1.2.3-2.3.2 0 .3-.2.5-.3-1.2-.2-.7-.9-.8-1.8.1-.2.3-.4.4-.6-.3-.1-.6-.3-.8-.5l.4-.6c-.6-.6-.7-1.3-.8-2.1-.5-1.1.7-1.8.4-2.9-.3 0-.6-.1-.9-.2 0-.9 1.1-1.1.9-1.7-.6-.4-.5-1.2-1-1.6-.8.4-1.6.5-2.4.9-.4 0-.7-.5-1-.6-.5 0-.7.6-1.2.6-.7.1-.3.7-1 .9 0 .5.7.6.6 1.1-.3.2-.6.2-1 .2-.1 1.2.9 1.3.3 2.6h-.7c1.4.2.2.9 1.3 1.2 0 1.1-1.1 1.2-.2 2.2v.4c-.4.2-.8.2-1.2 0v.2h.7c.2.8.2 1.5.6 2.2-.5 0-.7.2-.7.6.6.7 0 .7.4 1.4h-.4c0-.9-.7-1-1.2-1.6v-1.4c-.6-.6-.4-1.1-.4-1.9 0-.7 1-1.4.8-2.2-.5-.2-.8-.5-.9-1 1.3-1.2 0-1.3 0-2.5-.7-.5-.9-1.1-1.8-1.1-.4.3-.9.5-1.3.8-.5-.3-1.4-.9-1.9-.4-.9.8-2.2 1.8-1.9 3.2-.7.8-.7 1.2-.1 2.2.2.7 0 .7-.6.9.2 1 .8 1.5.6 2.6h-.4c-.1-1.1.3-1.6-.8-2.3.4-.4 0-1.3-.4-1.5.6-.3.6-1.9 0-2.3 0-.6.3-1.6-.6-1.5-.2 0-.3 0-.3-.4.2.1.4.2.7.3 0-.9 1.5-1.3.7-2-.2 0-.4.1-.7.2-.3-.2-.4-.5-.4-.8.4-.3.7-.6.9-1-.2-.4-.5-.7-.9-.9.3-.4.3-.7.2-.9-1 0-1.5.1-2.1.9-.7.5-1.1.9-1.1 1.7.3.5.8.4.7 1-.3 0-.7 0-1 .1.1.4.2.7 0 1.1.3.5.5 1.3-.3 1.5-.1.4.4.7.4 1.1.3.1.5.2.8.3-.9 1-2 1.7-1.9 3.2-1.1 1.1.3 2.3-.4 3.2-.5 1.1 1.1 1.6.4 2.7-.2.9-1 1.3-.6 2.2.9.7.3 1.6 0 2.4 0 .7.2 1.5.2 2.2-.7.7 0 1.6.2 2.4 0 1.1-1 1.6-.6 2.7Zm20.1 14.2c-.4.1-.6 0-.5-.2.4-.2.6-.1.5.2Zm-1.3 1c.6-.4.9.6.3.7-.4 0-.5-.2-.3-.7Zm-.4 1.1c.4-.2.6-.1.6.2l-.3.2h-.3v-.4Zm79.7 16.8c.3 0 .7-.7.6-1-1.1.8-1.2-.6-2.1-.4 0 .5.7.5 1 .7.2.2.3.5.5.7Zm6.6 59.2c.1.5.3.7.6.6.8-.7-1.2-1.7-.6-.6ZM399.5 191c-.3 0-.5.2-.6.5.4.5.2 1 .7 1.2.5.2.7 0 .9-.4-.4 0-.7-.1-1-.3.1-.4.7-.8 0-1Zm-129.2 26.4c.1-.4 0-.8-.1-1.2-.6 0-1-.6-1.5-.5.5.7 1.2 1 1.7 1.6Zm-1.8 2c.2-.5 0-.7-.3-.6-.2.5 0 .7.3.6ZM229 150.3c.3 0 .6-.1.9-.3.1-.7.5-1.2.3-2-.4-.5-1-1-1.6-.4.3.5.4.7.3 1.3.7.8-.3.7-.7 1-.2.3-.3.6-.4.9.5.5 1.1 0 1.2-.5Zm-2.1-2.4c.9-.4-.2-.7-.6-.3 0 .2.2.3.6.3Zm-.2.8c0 .3.2.3.6.2 0-.3-.1-.4-.6-.2Zm-13.8-1.1c0 .9.7 1 .3 2.1.9.1.4.9.8 1.5.2 0 .4 0 .5-.2 0 1 .4 1.2.9 1.8 0 .6-.7 1 .3 1.2.1.4-.9.3-.3.7 1 .3.7 1 1.5 1.2.3.6-.5.7 0 1.2 0 .5-.7.8-.2 1.4.2.2.2.5.2.9.4.6.8 1 1.5.9 0 .7 0 1.4.1 2.1-.3.1-.7.2-1.1.1v.2c.4 0 .7 0 1.1.1 0 .6-.6.9-1.1.6-.9.2.5 1 .1 1.6-.2.6.4 1 .9 1.1.8-.2.2-1.6 1.1-1.3.2.3.5.5.7.8-.3.6.2 1.1 0 1.8.2.6.9.2.8 1-.7.2-2.4-.5-2 .8.5 0 1 0 1.4.1.2.9.2.8 1 .6.3.2.5.5.3.9-.9.1-.9.3-.8 1.1-.9 0-1.6.4-2.4.2 0 .2.2.5.3.7-.8 0-.4-.7-1.1-.8-.4.2-1.1.7-.7 1.1.2.5.5.3.9.2v1.2c.6.8.9 1.9 1.1 2.8.8 0 .5.8.8 1.4.6-.2 1.6-.3 2.2.1.5.4 0 .7 0 1.2.3.3.5.7.6 1.2.8.3.3.9 1.4.9-.2.6 0 .5.2 1 0 .6.2.9.4 1.4h.5l.3.5c.9-.2 1 .3 1.6.9 0 .4 0 .8-.2 1.2-.2.1-.5.2-.7.2.9.2.6.7.1 1.2.8 0 .2-.7 1-.9.5.1.5.4.2.8.6.3 1.4.7 1.1 1.6.5-.4 1 0 1.2.5.2.4.6.7.6 1.2-.1.3-.2.7-.2 1 .4.3.8-.3 1.2 0 .2.6 1 1.2 1.6.8.3.2.8 1.2.8 1.6-.4 0-.7 0-.9.1 0 .3.1.5.4.7.3 0 .6-.1.9-.1.2.6.4 1 1 1.3.2 0 .4-.1.7-.2 0 .3 0 .5-.3.6-.6.2-.2.8.1 1.1.6 0 .9-.3 1.3.2-.3.6 0 .8 0 1.4 1 .2.4-.9.5-1.4h.1c0 .6.4 2.3 1.3 2.1.8-1.5-.5-1.6-.9-2.8.3-.8-.6-1.7-.5-2.5 0-.8-1.8-1.1-.9-1.8.5.1.9.4 1.4.5.5-.2.5-.7 1.2-.5 0 .4 0 .7.1 1 .7-.2 1 0 1.8-.2-.2.9.6.9.3 1.8.3.5.5.8.5 1.4.4.5 1 1.1 1.6 1.3.7-.6.2-.8.1-1.5.4 0 1-.4 1.3-.2 0 .6.3 1.2.7 1.6h1.1c.1.5.2 1.2.9 1.1l.2-.6c1-.2 0 1.5.9 1.7l.6.2c.5.7 1.3.7 1.6 1.5.1.9 0 1.7.5 2.5.7.5 1.5.4 1.9 1.2.3.3.4 1 .9.8.2-.7.7-.7 1.1-1.2.1-.4-.6-.5-.5-.9l.5-.2c-.4-.6-.3-1.2-.8-1.6-.2 0-.3.1-.5.2-.2-.3 0-.6.3-1.1-.2-.9-.7-1.5-1.4-2.1 0-.7.4-1.2-.5-1.6-.7 0-.9-.4-1.4-.8.4-.4 1.2-.7.6-1.4-1 0-1.1-.2-1.7-.9-.2-.6 1.1-1 .9-1.7-.1-.6-.4-1-.8-1.4 0-.9-.7-.9-1.2-1.5.2-.2.2-.5 0-.8.5 0 .7-.2.6-.6-.5-.2-.8-.3-1.2-.7-.4-.4-1.1-.8-1.1-1.5.9-.1 1.3.3 1.4 1.1.3.2.6.2 1 .1-.1.5 0 1 0 1.4.5.1 1 .3 1.5.5-.4-.1-.8 0-1.1 0 .3 1 1.1 2 2.2 2.2v1.8c.3.6.9 1.1 1.1 1.7 0 .3.2.5.4.5.1-.3.2-.6.2-1 .5.5.7 1.4 1.3 2-.3 1.1.4 1.4.8 2.4.3-.6 0-1.3.7-1.5-.7-1.2.6-1.7.2-2.6-.2 0-.4.1-.6.2-.3-.1-.5-.3-.8-.4h1.6c.3.2.5.5.7.7-.3.9.7 2 1 2.9.9.3 1.2.8 1.3 1.8.4-.1.6 0 1 .1.2-.3.4-.7.5-1.1-.3-.8-.9-1.5-1.4-2.3.4-.5.4-1.1.3-1.7-.7-.6-1.2-1.3-1.2-2.3-.6-.6-1.1-.9-1.9-1.1-.2-.5-.5-.9-.5-1.4 0-.7-.6-.7-.9-1.1-.4-.7-.4-1.4-.5-2.2-1.4-.8-.3-2.2-1.7-3-.7-.5-.5-1.1-.3-1.8.2-.4-.4-1-.4-1.5.6-.6.4-1.3.3-2-.2 0-.5.2-.7.3-.2-.6-.2-1.1.3-1.5.3-.3 0-1 .2-1.4h-.8c-.3.7-.6.9-.9.7 0-.2.1-.5.2-.7-.2-.3-.5-.4-1-.5-.2-.6 0-1.3-.3-1.8.6-.5.9.8 1.7.3.3-.7.3-1.2-.5-1.3 0-.9 0-1.4-.8-1.9.1-.5.3-1.1.2-1.6-.5-.2-.9-.4-1.4-.5 0-.4-.1-.7-.3-.9-.5-.4 0-1.2-.2-1.6-.3 0-.5-.2-.8-.5-.2 0-.4.1-.6.2-.2-.8 0-.9-.7-1.5 0-.2 0-.4.2-.6-.2-.2-.3-.5-.4-.8-.2.1-.3.2-.5.2-.2-.6-.2-1.1-.2-1.7-1.1 0-1.5-1.3-1.6-2.3-.5 0-.9-.5-1.4-.5-.4-.8 0-1 .7-.6.2-.8-.5-.3-.8-.9-.4-.6-1.2-.5-1.7-1-.2-.6.2-1.1.2-1.7-.7-.4-.7-.9-.7-1.6-.9.4-.8.2-1.7-.2-1 0-2 1-2.9.6-.6-.2-.8.4-1.4.2-.2-.2-.4-.4-.4-.6.2-1.1-.9-1.8-.9-3-.2 0-.4 0-.6.1-.2-.2-.5-.3-.7-.4-.3-.5-.5-1.3-1-1.7-.6 0 0 1.1-.4 1.5-.4 0-.9-.8-1 0 0 .5-1 .3-1.2.8-.1.3 0 .5.5.5-.6 1 .7.9 1.2.3 0 .6 0 1.2-.9 1.2v.3c.8 0 1 1.1.8 1.8 0 .5.6.6 1 .7 0 .4-.2.7-.4 1.1-.2 0-.4-.1-.5-.5-.2 0-.3.1-.5.2-.5-1.4-1.4 0-2.4-.7-.5-.3-1 0-1.3-.6.2-.2.2-.5 0-.8 1.1-.3.4-.9-.1-1.4 0-.2.1-.4.2-.6-.5-.5-.9-.3-1.5-.3-.5-.4-1-.4-1.5-.6-.7.3-1.4.2-2.2.3-.3-.4-.4-1.5-.9-1.4-.3.9-.7 1.1-.4 2.2-.3.3-.7.4-1.1.4.7-1.2-.7-1.4 0-2.5.4.2.8.2 1.1.2.2-.8.8-.3.9-1.1-.3-.5-1 0-1.5-.6-.4.1-.8.5-1.1.8-.5-.4-.9-.3-1.4-.6-.3-.7-.4-1.3-1.3-1.4 0-.2.2-.3.2-.5-.7-.3-.7-.8-.9-1.4-.7-.2-1-1-1.6-1.2-.2.2-.7.5-.7.8.9.4 0 1 1.2 1.2Zm6 28.1c.4-.2.6-.2.6.2-.4.1-.6 0-.6-.2Zm1.4 1.3c-.3 0-.6 0-1 .1 0-.2.1-.5.5-.9 0-.5.2-.7.5-.6v1.4Zm31 26.8h.2v.3h-.2v-.3Zm1.1-22.8h.2c.3.7-.5.8-.2 0Zm-.1-2.4v.3h-.3v-.3h.3Zm-12.4-20.9c-.4.1-.6 0-.5-.2.4-.2.6 0 .5.2Zm-.9 1h.2v.2h-.2v-.2Zm-.9 33.7h.3v.5l-.3.2-.3-.2v-.3l.3-.2Zm-1.1.5c.3-.1 1 .8.4.8-.3-.1-.5-.4-.4-.8Zm-3.1-33.9h.2v.2h-.2v-.2Zm-8.9 28.9c-.2 0-.4.2-.6.2h.8c0-.5.2-.7.6-.8h-1c.1.2.2.4.2.6Zm39 35.9c-.1.5-.2 1.3.5 1 .2-.5.2-1.4-.5-1Zm-3.8-2.3c0 .2.2.4.2.7-.3.3-.6.2-1-.2-.3.3-.5.4-.8.4.1.2.2.4.2.6-.6.6-.7-.3-1.4-.3.4.4.4.8.5 1.3-.3.3-1.2.7-1 1.2.4.3 1 .2 1.4.3.7-.7 1.5-.6 1.8-1.6.6-.3.8 0 1.3.1 0-.4.3-.8.5-1.1.3.1.6.2.9.2 0-.4.2-.8.3-1.3.6 0 .3 1 .4 1.3.4-.5-.1-1.1.9-1.2-.3-.5-.5-1.1-.2-1.7.6.2 1.7.5 2.1-.2-.4-.2-.6-.4-.6-.6.4-.2.7-.3 1.1 0 0 .2.1.4.2.7.3-.8.9-1.6 0-2.4-.2 0-.4.1-.6.2-.1-.3-.2-.6-.2-.9h-.4c0 1.2-1.2.7-.6 1.8-.3.2-.6.2-1 0-.7.7-1.7 1.3-2.5 1.7-.1.6 0 1.1-.7 1.4-.3-.3-.6-.5-1-.5Zm3.3-1.5c.6-.2.7 1.2 0 1-.2-.3-.3-.6 0-1Zm-.8 6.4v-.3h-.3v.3h.3Zm-6.6-41.1h-.2c-.2.7.5.7.2 0Z" class="st2"/><path d="M284.5 324.4c2.6.4 5.9 1.5 7.4 3.9.4.5 1 .8 1.3 1.4.2.5.2 1 .4 1.5.3 1-.9 2-.6 3 .2 0 .4-.2.5-.6.4 1.2-.5 2.3-1.2 3.1-1.1 1.6-2.5 2.9-4 4-1.2 1.4-2.8 1.6-4.5 2.1-2.1 1.7-4.7 2.5-7.3 3.1-1.9.3-3.6 1.3-5.6 1.5-4.6.9-8.7 2.6-13.5 2.8-1.6-.2-3.2-.5-4.6-1.2-1.5-.2-2.8-.1-3.9-1.2-1-1.1-2.3-1.7-3.2-3 0-1.2-.4-2.2 0-3.3-.2-.5-.6-.8-.4-1.4 1.2-2.1 2.8-3.8 4.6-5.4 2.1-1.5 4.3-2.7 6.4-3.9 4.8-2.6 10.2-4.3 15.4-5.6.4 0 .7 0 .8-.3 1.4.1 2.7-.5 4.1-.5 2.7-.1 5.4-1.3 7.9-.1Zm87.5-9.9c2.5-.2 5-.5 7.5-.1h6.6c1.8.5 3.6.2 5.4.6 1.6.3 3.2.4 4.8.7 1.1.4 2.3.7 3.4 1.2 1.8 1.2 4.3 2 5.7 3.6.9 1.1.4 2.5 1.3 3.6.5 2.4-.7 4.3-2.2 6.1l-.6.2c.1.1.2.3.2.5-1.5 1.1-3.1 2.1-4.7 3-1.9 1.1-4.3 1.5-6.4 2-1.8.4-3.6.2-5.4.7-5.8.4-11.6 0-17.3-1.2-2.2-.1-4.3-.8-6.4-1.5-1.9-1-4.1-2-5.5-3.7-.4-.5-.6-.6-1.2-.7-.9-.7-.8-1.6-1.3-2.5-.2-.8-1-2.2-.2-2.9.7-.6.3-1.5.8-2.3.8-1.8 2.5-2.4 4.1-3.2 2.7-1.4 5.9-3.1 9-3.2.7-.6 1.6-.4 2.5-.7Z" class="st0"/><path d="M287.9 362.5c.3 0 .4.2.2.7-.3 0-.4-.2-.2-.7Zm69.6-19.8c.9.3 1.5 1 2.5 1 .7 0 1.4 1.1 1.3 1.7-.2.8-.3 1.6 0 2.3 0 .6-.3 1.1-.3 1.8.9-.3 0-2.2.9-2.1.4 1.6 0 3.6.2 5.4-.2 1.5-.4 2.9-.4 4.4-1.8 5.6-3.1 11.2-4.9 16.8-.2.2-.3.4-.3.7-.7 1.1-1.1 2.4-2.1 3.3-1.7 2-3.3 3.8-4.9 5.9-.8.7-1.4 1.5-2.2 2-1.4 1.6-3.1 2.8-5.2 3.3-1.3.7-2.7.9-4.2 1.2-1.7.5-3.5 1.1-5.2 1.5-2.7 0-6.2-.2-8.9-.1-2.4 0-4.1-1.3-6.5-2-1.8-.8-3.6-1.3-5.2-2.4-1.6-.3-2.3-1.5-3.7-2.1-1.1-.5-1.9-1.5-3-2-1.3-1.1-2.9-1.6-4.1-2.8-2.2-.9-3.8-2.6-5.3-4.4-.4-.8-1-1.2-1.7-1.7-1.5-2.3-3.4-4.1-4.6-6.6-.7-1-1.1-2.1-1.4-3.2 0-.3.3-.5.6-.6-.3-.7-.8-1.3-.7-2.1 0-.9-.2-2.1.2-3 .3 0 .6.1.8.5.7 0 1-.3 1.6-.5.2-.6-.5-.7-.3-1.3.3-.5.8-.3 1-1 .7 0 1.1-.1 1.1.8.4-.4 1.7.2 1.5.8.2-.2.3-.3.6-.5 1.6.8 1.2 2.2 2.2 3.4.4.5.4 1 .9 1.4 1.2.8 1.7 2 2.7 3.1.7 1.5 2 2.2 3 3.5.8 1 1.8 1.8 2.8 2.5 1.9 1 3.5 2.4 5.4 3.4 2.2.9 4.2 2.2 6.5 3.1 1.6.4 3 .8 4.6.8 2.9.8 5.5.2 8.5.3 1.6-.1 3.3-.7 4.9-1.1 1.9-.9 3.6-2.4 5-3.9 1.6-1 2.6-2.9 3.6-4.5.5-.4.5-1.1.9-1.6.5-.8 1-1.5 1.3-2.5 1.3-1.8 2.6-3.7 3.4-5.8.7-1 .6-2.4 1-3.6.1-1.7.4-3.3.8-5-.4-1.8 0-3.5.7-5.1.5-.4.2-1.9 1-1.7 0 .7 1 1.1.9.2-.2-1.1 0-1.2 1.1-1.4.4-.5.6-.9 1.4-.6Zm-81.3-63.5c2.9-.2 5.7-.4 8.5.6 1.3.4 2.7.8 3.6 1.9 1.2.9 2.8 1 3.8 2.4 1.1 1.5 2.1 3.1 3 4.7.5 1.5 1.4 2.7 1.7 4.2.5 1.1.5 2.3 1 3.5.9 2.2.5 4.5.4 6.9-.4 1.3-.5 3-1.2 4.2-1.2.3-2.2 1.1-3.4 1.5-.3-.3-.7-.4-1.2-.3-.8-.1-.8-.7-1.2-1.2-.5-.4-1.1.6-1.5 0-.6-.7-1.1-1.4-1.2-2.4-.6-1.4 0-3.1-.4-4.6-.6-2.6-1.3-5.3-2.5-7.7-.6-1.4-1.7-2.2-3-2.9-1.5-.4-3.2-.2-4.7 0-1.7 1-3.7 1.4-5.3 2.8-1.6 1.5-2.6 3.7-2.7 5.9.3 1.9.2 3.8 0 5.8-.1 1.6.5 2.8.8 4.2-.1.3-.3.5-.5.7.2.7-.4.9-.3 1.6 0 .4-.5.7-.7 1-.2-.2-.4-.3-.6-.5-.5.5-.9 1.1-1.3 1.7-.7.2-1.5.2-2.2.3-.3-.2-.7-.4-1-.7 0-.4-.3-.6-.5-.7-.7.5-1.1.8-1.2-.3-.9-.2-.9-1.3-1.4-1.9-.6-3.3-.6-6.7-.5-10 .5-2 .2-4.2.7-6.2.4-.7.5-1.5.7-2.3.2-1.2 1.3-2.4 1.9-3.3 1.2-2.6 2.8-4.9 5.6-6 1.5-.9 2.9-1.7 4.6-2.3.8-.2 1.4-.7 2.3-.8Zm94.4-7.6c2.4.2 4.9 0 7.3 0 3.2 1.1 6.1 1.9 8.7 4.2 1.2 1.6 2.5 2.9 2.9 4.9 1.1 1.6 1.4 3.3 1.7 5.2 1 1.9 1.4 3.9 1.9 6-.2 2.6.2 4.8-.5 7.3-.4 1.5-1.4 2.7-2.9 3.3-.3 1.4-1.2.5-2.1.9-.6-.6-1.2-.2-1.7-.9-1.3 0-1.9-.7-2.5-1.7 0-.6.2-1.4-.2-1.9-.2 0-.4.1-.6.2-.2-2.2.1-4.6 0-6.8-.5-1.3-.2-2.9-.7-4.2-.4-2-2.1-3.7-3.4-5.1-.6-.6-1.1-1.5-2-1.5-1 .2-2 0-2.9.6-1.4.3-2.8.7-4 1.4-3.4 3.6-4.9 9-5.4 13.8.5 1.8.2 3.9-.5 5.7-.3.1-.6.2-1 .2-.3.4-.4.9-.6 1.3-.3.2-.6.3-.8.4-.2-1-.5-.7-.7 0-.9-.3-1.1.2-1.8.3-.5-.3-1.1-1-1-1.6-.7-.2 0 .8-.9.6-1.7-1-1-2.6-1.6-4.2h-.3c-.2.3 0 1.4-.3 1.3-.1-.9 0-2 0-2.9.2-.9-.3-1.5-.2-2.3.7-.9.4-2 .5-3.1 0-.4 0-.6-.2-.6-.2.8 0 1.7-.2 2.5h-.2c-.4-1.4-.2-2.9.4-4.2.2-1.4 0-3 .5-4.3.7-2.7 2.4-4.6 3.9-6.9.9-2.2 3.2-3.7 4.8-5.2.9-.7 1.9-1.1 2.7-1.9 1.5-.4 2.5-1.1 4-.9Z" style="fill:#4a4a4a"/><path d="M782.3 521.2c-2-9.9-7.2-18.2-15.2-24-.8-.6-1.7-1.2-2.5-1.8.5-1.2.9-2.3 1.3-3.6 2.7-8.3 3.5-16.8 2.5-25.3-.7-8.2-3-15.4-7-21.5 1.6-1.9 3-4 4.3-6.3 4.9-8.6 6.7-18.4 5.4-28.4-1.5-13.1-7.6-21.1-12.4-25.6-5.3-4.9-11.7-8.5-19-10.6-4.4-1.3-9-2.3-13.8-2.9-3.1-.5-7.1-1-12-1.7-5.5-.8-11.4-1.4-17.6-1.9-7-.5-13.9-.4-20.5.3-8.4.9-16.1 3.1-22.8 6.5-4.7 2.4-8.8 5.5-12.2 9.2-6.6-5.6-14.2-10.1-22.5-13.3-9.7-3.8-20-6.4-30.7-7.8-9.9-1.3-19.4-1.7-28.2-1.4-10.2.3-19.1 2.7-26.4 7.2-4.3-4.6-9.6-8.1-15.9-10.6-5.3-2.1-10.8-3.4-16.3-3.8-6-.5-11.3-.2-16.2 1.1h-.3c-9 2.5-17.1 7.3-24.1 14.3-6.4 6.4-11.2 13.8-14.2 22.1-3.6 9.8-4.1 20.2-1.4 30v.5c2 6.2 4.4 11.2 7.2 15.3-.7 1.9-1.4 3.9-1.9 5.9-.2.8-.4 1.7-.6 2.5l-.8-2.4c-1.5-4.4-3-9.3-4.7-14.4-2.1-6.7-4.7-13.2-7.7-19.3-4.2-8.5-9.9-15.6-16.9-21.1-8.8-6.9-19.9-10.3-32.1-9.9-22.3.6-35.9 9.8-43.3 17.3-8.9 8.9-15.6 20.3-19.9 33.8-3.8 11.5-7.4 23.2-10.9 34.8-3.5 11.8-6.8 23.8-9.7 35.7-1 4.1-2.2 8.7-3.6 13.8-1.9 6.8-3.2 13.8-3.8 20.7v.2c-.9 10.2.8 19.6 4.9 28.1v.3c3.9 7.6 11.9 17.6 28.6 22.4 5.3 1.5 10.7 2.3 16.2 2.3 2.6 0 5.3-.2 7.9-.5h.2c11.3-1.6 21-7 28.1-15.6 5.1-6.1 8.3-13.8 9.8-22.7h.5v.6c1.8 6.1 4.3 11.6 7.3 16.2l.2.2c10.6 15.6 24.2 18.8 31.3 19.3 7.4.5 18.6-.8 30.5-9.8 3.9 3.7 8.3 6.7 13.2 8.9h.2c5.3 2.4 10.8 3.6 16.4 3.6 8.5 0 17-2.7 24.7-8.1l.6-.4c2.2-1.6 4.1-3.3 5.9-5.2 1.6 1.7 3.4 3.3 5.3 4.8h.1c5.4 4.3 14.1 8.8 26.7 8.8s4.6-.1 7.1-.5h.2c13.9-1.9 22.3-8.7 27-14.2 5.2-6.1 8.8-13.3 10.7-21.4 1.4-5.8 2.1-11.8 2.2-17.9 0-4.4.1-8.4.1-12s0-7.3.1-11.5c0-1.5.1-2.9.4-4.2.3-.1.7-.2 1.1-.3 7.6-2.2 14.4-5.2 20.2-8.8.9-.5 1.7-1.1 2.6-1.7 0 1.8-.2 3.7-.3 5.5l-.9 19.9c-.1 3.1-.4 6.7-.7 10.6v.2c-.5 6.2-.2 12.3.7 18.2v.3c1.6 9.3 6 17.8 12.7 24.5l.6.6c6.2 5.8 13.4 9.7 21.6 11.4h.3c4.3.9 8.6 1.4 13 1.4s2.9 0 4.3-.1c3-.2 5.8-.3 8.3-.3h1.1c6.9-.3 13.9-.5 20.8-.6 7.4 0 15-.3 22.6-.7 8.6-.4 16.4-2 23.3-4.5 8-3 18.9-9.9 25.4-26l.4-1c1.6-4.4 2.7-9.4 3.4-14.7.8-6.4.6-12.8-.7-19.1Z" style="fill:#fff6e9"/><path d="M325.8 552.8c-2.2-3.5-3.3-7.9-3.3-13.2s1.6-14.8 4.9-25.8l1.9-7c4.7-19.6 11.3-42.4 20-68.5 3.4-10.2 8.1-18.2 14.2-23.9 6.1-5.7 14.2-8.7 24.4-9 6.4-.2 11.6 1.6 15.7 5.1 4.1 3.6 7.3 7.8 9.5 12.8 2.2 5 4.7 11.6 7.3 19.8l2.8 9.1 27.2 76.6c1.9 5.1 2.8 9.1 2.8 11.9 0 5.1-2.4 9.6-7.2 13.5-4.2 3.3-8.1 4.9-11.9 4.9s-8.9-2.6-12.3-7.7c-1.2-1.5-2.3-3.7-3.1-6.5-.9-2.8-1.4-4.5-1.5-5.1-1.2-3.9-2.4-7.1-3.5-9.5-1.1-2.5-2.4-4.4-4-5.8-.3-.3-3.5-.7-9.5-1.2-6.1-.5-11.6-.7-16.8-.7s-10.2.4-11.2 1.2c-1.6 1.4-2.7 3.3-3.5 5.8-.8 2.5-1.6 5.8-2.3 10-.8 4-1.5 7.3-2.2 9.7-.7 2.4-1.7 4.4-2.9 5.9-3.4 4.3-8.5 6.5-15.4 6.5s-6.3-.5-9.1-1.4c-5.3-1.6-9-4.1-11.2-7.6Zm69.9-64.4c-3.3-9.6-5.3-15.8-6.1-18.6l-6.5 21 12.6-2.3Z" class="st0"/><path d="M469.7 409c0-6.1 2.1-11.8 6.4-17.2 4.3-5.4 9.4-9 15.3-10.7 1.5-.3 3-.5 4.4-.5 4.7 0 9.2 1 13.5 3.1 4.3 2.1 6.5 5 6.5 8.7s-.2 1.3-.5 2.6c.6 1.7.9 3.6.9 5.6 0 4.7-1.5 9.2-4.4 13.6s-6.7 8-11.2 10.8c-4.5 2.8-9 4.2-13.5 4.2s-7.3-1.2-10.2-3.5c-3-2.3-5.1-6-6.5-10.9-.5-1.9-.7-3.8-.7-5.8Zm21.9 152.7c-3.4 0-6.6-1.1-9.4-3.4-2.9-2.2-5.2-5.2-7.1-8.7-3.6-7.8-5.4-18.5-5.4-32.4s.7-17.8 2.1-32.8c.3-2 .6-5.4.9-10.2l.5-4.9c.5-7 1.2-12.9 2.2-17.7 1-4.8 2.8-8.6 5.5-11.4 3.1-3.3 6.6-4.9 10.5-4.9s7.3 1.3 10.6 4c3.3 2.6 5.9 5.9 7.8 9.8 4.5 9.9 6.8 22.3 6.8 37s-2 30.9-6.1 50.8c-.2.9-.6 3.1-1.3 6.5-.7 3.4-1.7 6.4-3 9-1.3 2.6-3.1 4.6-5.2 6.2-3.1 2.2-6.2 3.3-9.3 3.3Z" class="st2"/><path d="M536.9 548.6c-3.2-8.8-4.5-18.4-4.1-29 .6-12.4.9-26.5.9-42.1.3-18.6.7-32.6 1.2-41.9.2-1.7.2-4.2.2-7.5.3-8.7.9-15.6 1.9-20.8.9-5.2 3.2-9.6 6.8-13.3 3.6-3.6 9.1-5.6 16.5-5.9 19.1-.6 36.3 2.3 51.6 8.6 15.3 6.4 23.9 17.8 26 34.2.2.9.2 2.3.2 4.2 0 8.1-2.6 15.4-7.9 22.1-5.3 6.7-12.1 12.6-20.5 17.7-1.7 1.1-3.9 2.1-6.5 3.1s-4.3 1.7-5.1 2c-.8.3-2.9 1.1-6.3 2.4-3.4 1.3-6.2 2.9-8.4 4.8-3.3 2.8-5.4 6.6-6.4 11.3-1 4.7-1.5 10.4-1.5 16.9v7c0 8.2-.2 14.7-.7 19.6-.5 4.8-2.2 9.3-5.1 13.5-3 4.2-7.8 6.3-14.4 6.3s-15.1-4.4-18.3-13.2Zm64.9-107.7c0-4-1-8-3.1-11.9-2.1-3.9-4.9-6.8-8.3-8.6-2.2-1.1-4-1.6-5.6-1.6-4.2 0-6.3 4.3-6.3 13l.2 8.4c.2 1.6.2 3.6.2 6.1-.3 4-.5 6.6-.5 7.7 0 2.2.3 3.8 1 4.8s1.9 1.5 3.6 1.5 3.3-.4 6.1-1.2c8.4-2.8 12.6-8.8 12.6-18.2Z" style="fill:#e09d94"/><path d="m680.7 561.5-6.1.2c-8.2 0-14.2-1.9-17.9-5.6-3.9-3.9-5.8-9.9-5.8-18.2s.2-5.9.5-10.2c.3-2.5.5-4.3.5-5.4l1.9-39.8c.9-20.8 1.6-36.4 1.9-46.8.2-1.9.2-3.5.1-5 0-1.5-.1-2.8-.1-3.8V422c0-6.5.6-11.5 1.9-14.9 2.9-8.5 13-12.8 30.3-12.8s11.6.4 18 1.2c6.4.8 11.9 1.6 16.4 2.3 5 .8 9 1.7 12 2.7 3 1 5.6 2.8 7.7 5.4 2.1 2.6 3.1 6.2 3.1 10.8s-1 7.3-3 10.4c-2 3-4.8 5.2-8.4 6.6-1.9.8-4.2 1.2-7 1.2s-4.7-.3-8.4-.9c-3.4-.6-6.1-.9-7.9-.9s-2.6.2-4.4.5c-2 .3-4 1.6-5.8 4-1.9 2.3-2.8 4.8-2.8 7.5s1.2 4.8 3.5 6.5c1.9 1.2 4.7 1.9 8.6 1.9s4.1-.2 7.2-.5l7.2-.2c2.8 0 5 .3 6.8.9 3.9 1.6 6.7 3.5 8.4 5.9 1.7 2.4 2.7 5.7 3 9.9.2.9.2 2.4.2 4.4 0 4.7-.9 8.8-2.8 12.5-1.9 3.6-4.8 6.1-8.8 7.3-1.6.3-2.9.5-4 .5s-3-.2-4.8-.5c-1.8-.3-3.1-.5-3.8-.7-3.1-.8-6-1.2-8.6-1.2s-6.4 1-8.4 3c-2.6 2.5-4 4.9-4 7.2 0 3.6 2.6 6.5 7.7 8.8 5.1 2.3 10 3.6 14.7 4 1.7.2 3.3.2 4.7.1 1.4 0 2.6-.1 3.5-.1 1.4-.2 3.5-.2 6.3-.2 7.8 0 13.6 1.4 17.5 4.2 3.7 3 5.6 7.7 5.6 14.2s-.8 9.4-2.3 13.3c-2.2 5.3-5.2 8.8-9.1 10.6-3.9 1.8-9.3 2.9-16.3 3.4-4.8.3-9 .5-12.6.6-3.6 0-6.5.1-8.8.1-4.8 0-12 .2-21.7.5-2.3 0-4.1 0-5.4.2Z" style="fill:#9bbdd6"/></svg>