<svg id="a" xmlns="http://www.w3.org/2000/svg" viewBox="0 0 674.57 453.7"><path d="M377.4,87.1h-.2c.1.3.2.3.2,0ZM393.8,99.2c.5,0,.7-.2.6-.6-.5,0-.8.1-.6.6ZM398.7,85c.2-.4,0-.6-.3-.6-.2.5-.1.7.3.6ZM146.3,98.3c.6.5.4-.6.4-.9-.5,0-.9.5-.4.9ZM399,96.2v-.2h-.3v.2h.3ZM400,96.9c.4,0,1.3-.2.8-.8-.4-.6-1,.4-.8.8ZM379.2,86.7c.2-.3,1-.4.9-.7-.7-.4-1.1,0-1.6.4-.1.4.4.7.7.3ZM147.2,96.2h.2v-.3h-.2v.3h0ZM391.8,101.3h.3v-.4h-.3v.4ZM393.2,99.2v-.9c-.5-.5-1.5-.5-1.7.3,0,.4-.2.7-.5.8v.3c.5,0,1-.3,1.4-.4-.1-.2-.2-.5-.3-.7.7-.3.7.4,1,.7l.1-.1ZM323.1,204.7l-.6-.6c-.2-.5.5-1,.6-1.5-.1-.5-.2-1-.2-1.4,1.1-.3.6-.8.4-1.6.3-.1.6-.2,1-.2v-1.3c-.3-.1-.5-.3-.7-.5,0-.7.7-1.3,1-2-.1-.3-.1-.6-.1-.9.4,0,.7,0,1-.2,0-.3-.3-.5-.7-.7-.3-.8-.2-1.4.7-1.6,0-.2-.1-.3-.5-.4.2-.2.3-.4.5-.6-.3-.7-.8-.7-1.3-1,.8,0,1.3.4,2.1.2-.3-1.1-1.2-.8-2-1.3.7.1,1.1-.2,1.2-.9-.4-.1-.6-.3-.5-.6.9-.1.5-.6.7-1.3.3,0,.6-.2.9-.3-.2-.5-1-.5-1.1-1,.1-.6.4-1,.3-1.5.1-.6.8-.7.7-1.3-.3-.3-1.3-.5-1.3-.9l.7-.2c0-1.1-.5-2.6.5-3.4-.5-.7-.4-.5.2-1.1-.1-.4-.4-.5-.9-.2v-.4c.5,0,1,0,1.3-.2,0-.3-.2-.5-.6-.7.3-.3.5-.6.5-1-.4-.2-.8-.4-1.2-.4.4-.6.5-.6.3-1.3.3-.1.6-.2,1-.2-.2-.5-.4-1-.8-1.4,0-.3.2-.5.7-.6-.1-.7-.4-1.5-.7-2.1l.3-.6c-.5-.5-1-.9-.9-1.7-.3-.7-.6-1.2-.8-2,.3-.1.6-.1.9-.1-.2-.3-.1-.5,0-.8-.5-.4-1-1,0-1.1-.6-.9-.5-1.7-.4-2.7-.4-.4-.6-.9-1.2-1.2,0-.9,0-1.7-.5-2.5-.4-.6-.3-.6.3-.8-.1-.4-.2-.6-.1-.9-.3-.3-.4-.7-.3-1.2-.3-.1-.5-.3-.6-.5,0-.7.5-.7,1-.9v-.8c-.3-.3-.8-.4-1.2-.4.1-.9-.3-1.2-.4-1.9h1.2c-.2-.2-.4-.5-.5-.8l-.9-.3c0-.5.4-.9.6-1.3-.7-.9-.2-1.9-1.3-2.5-.2-.7-.2-1.5-.4-2.2l.6-.3c-.2-.3-.5-.6-.7-.9-.2,0-.5.2-.7.5l-.3-.2c.4-1.6-.1-2.8-.9-4.2,0-1.1-.8-1.2-1.4-1.9.7-1.2-.1-1.7-.2-2.9-.6-.3-.5-.9-1-1.4-.2-.5.2-1.2-.3-1.5-.4-.3-.4-.6-.2-1-.8-.2-1.3-.8-2.1-1,.2-.7.2-.5-.2-1.1,0-.3.4-.5.8-.6-.2-.3-.3-1-.8-.8l-.5.4c-.4-.1-.8-.4-1-.7.1-.2.3-.4.4-.6-.6-.7-1-1.7-1.7-2.3-.2,0-.4,0-.6.2-.3-.2-.4-.5-.4-.8.2.1.5.2.7.3.6-.6-.3-1-.7-1.3v-.5c-1.4-.2-.6-1.3-.8-2.3-.4-.6-.7-.3-1.3-.3-.3-.6-.4-1.1-1.2-1.1-1.1,0-1-1.4-1.3-2.1-.3,0-.6,0-.9-.1,0-.5.1-.9.1-1.4-.7-.3-1.3-.5-1.4-1.3-.2-.9-1-.4-1.5-.8,0-.2.2-.4.6-.5v-.8c-.7-.3-.7-.6-1.4,0-.9,0-.5-1-.6-1.5-.6-.9-1.3,0-2.1-.6-1-.5-.6-1.5-1.4-2-.4-.4-1.2,0-1.6.4.3-1-.2-1.7-1.1-2-.5-.4-.8-.6-1.4-.9-.3-.5-.7-1.1-1.2-1.5-.2,0-.4,0-.6.1-.2-.3-.3-.7-.3-1.2-1.1.1-1.5,0-1.5-1.2-.1,0-.3.2-.3.6-.4,0-1-.3-1.2-.7.1-.2.3-.4.4-.6-.6-.8-1.3-.9-2.2-1.1-.8,0-.2-1-1-.8-.6.6-1.3.6-1.8-.2,0-.2.2-.4.3-.6-.4-.5-.8-.5-1.4-.4-.6-.3-1.1-.6-1.9-.6-.4-.4-.5-1.7-1.1-1.7.1.3.2.6.3,1h-1c-.2-.5-.2-1.1-.3-1.6-.3,0-.7,0-1,.3-.5-.3-1.4-1-1.3.1-.4-.5-.9-.6-1.3-1,0-.2,0-.4.2-.6-.3,0-.5-.2-.8-.4,0,.8-.6.6-1.1.4-.4-.3-.7,0-1.2,0-.3-.7-1-.7-1.4-1.3-.5,0-.7.4-1.1,0-.5-.7-1.1-.4-1.8-.5-.6-1-1.8-.4-2.7-1.2-.1-.3-.2-.6-.3-.8-.9-.2-1.5.3-2.3-.4-.4-.6-1.1-.3-1.7-.7-.9-.4-1.4.5-2.3-.3,0-.2,0-.4.1-.5-.7-.6-1.3-1.2-2.1-.4-.5-.2-1-.8-1.5-.5-.8.3-1.5-.1-2.3.2-.7-.3-1.3-.1-2-.2-.9-.3,0-1.3-1-1.1.3.4.4.7.2,1-1.1,0-1.4-1.2-2.4-1.3-.6.2-1.3.3-1.8-.2-.6-.5-1-.2-1.5.2-.4-.1-.8-.4-1.1-.6-.5.2-1.1.2-1.3.6l-.6-.6c-.9.4-1.5-.2-2.3.1s-1.2-.2-2,0c-.7-.1-.9-.7-1.7-.3-1.1.4-1.4-.4-2.5-.6-.6.2-1.4.5-2,0-.7.3-1.4-.3-2.2-.5-.5-.4-1.8-.4-2.1.3-.7-.6-.9-.7-1.8-.3-1.2.8-2.4-.5-3.6-.4-.5.3-.7-.2-1,0-.6.1-2.2-.8-2.1.2s-.5-.4-.5-.4c-.3.3-.6.5-.9.8-.4-.2-.5-.6-1-.6-.5.2-1,.3-1.5.2-1,0-2.8.7-3.5-.3-.5,0-1.2.1-1.5.6-.6.5-1.3,1.1-1.8.1-1.1.2-2,0-3.1,0-.6.5-1.4.6-2,0-.8-.1-1.5.9-2.1,1-1-.6-2.5,0-3.5.2-.9,0-1.8,0-2.5.7-1.1-.1-2,.5-3.1.8-.6.8-.7,1-1.8.8-1.2.3-2.2-.2-3.3,0,.9-.3.9-.8,1.2-1.6.5-.1.9-.2,1.3-.2.4.6-.4.8-.3,1.4.7-.4,1.9-.8,1.3-1.8v-.3h.4c0,.4,0,.7.1,1,.7.7.9-.4.9-1,.4.2.9.2,1.4.1.3-.4-.3-1-.7-.9-.7,0-1.3-.5-1.9-.6-.2.2-.5.3-.8.5-.7-.2-1.1-1-1.9-.4,0,.5.2.7.6,1-.3,0-.6.2-.8.4-.6-.9-1.4-.6-1.5.4-.3-.1-.6-.4-.9-.5-.4.1-.6.3-1,0,0,.3-.1.6-.3.8-.6,0-.8-.5-1.4-.5-.6.4-1.2.6-1.7,1.1-.7.2-1.7.4-2.2,1-.7.3-.8.8-1.6.4,0,1.4-1.5,0-1.7,1.4-.5-.3-.8-.5-1.4-.2-.3,1.2-.9,1.1-1.9.7h-.3c0,.4.1.7.2,1-.6,0-.8.2-1.1-.4-1,.5-1.6,1-2.8.8.2.7-.2,1.7-.9,1-.6-.4-.6-.2-.7.4-.2,0-.5-.1-.7-.2-.5.5-.9.9-1.1,1.5-.5.1-.9.3-1.4.5-.3-.1-.7-.2-1-.2-.1.5.2,1.3-.5,1.3s-.9.6-.9,1.1c-.5-.2-.8,0-1.3-.2l-.3.9c-.3.1-.6.3-.8.5-.7,0-1.6,0-1.6.9.2.2.3.4.5.6-.7,0-.9.4-1-.5-.3,0-.6,0-1,.1-.2,1.3-1,.9-1.8,1.7-1.5-.7-.4,1.3-1.9,1.1-.2-.5-.8-.9-.6-1.4,0-.9.6-.6,1.1-1-.7-.2-1.2-.4-1.9-.4.6.4.7,1.2.2,1.7-.3.2-.4.5-.3.8.9-.3,1.3-.2,1.3.9-.5.7-1.5.3-1.7,1.4l-.8.2c0,.2,0,.4.2.5-.5,0-.8.2-.8.8-.7,0-.8.2-1-.5h-.2c0,.6-.2,1-.5,1.2-.4-.1-.8-.2-1.2-.1.2.4.2.8,0,1.1-.5.4-1.1-.2-1.2-.7.7-.7-.1-.8-.1-1.6h-.3c.1.4,0,.8,0,1-.6,0-.3-.9-1.1-.6.1.5.3,1,.5,1.4,0,.6-.3,1.2.5,1.1-.3-.4-.4-.8-.3-1.1.4,0,.7.2,1,.6.3.7-.6,1.8-1.3,1.8l-.2.6c-.7.2-1.6-.6-2.3-.8-.2,0-.3.4-.3.9-.5.2-.7.5-.8.8,0,.7-.9.2-.7,1h.8c.2-.5.3-1,.9-.9.2.3.3.6.3.9-.6.8-1.9.5-2.3,1.3.1.3.4.5.8.6-.4,0-.7,0-1.1.1-.1.3-.2.7-.1,1l-.6.2c-.5,1.1-1.6,1.3-2.7,1.6,0-.3.2-.6.6-.9,0-.2-.1-.4-.2-.7.7-.5.5.8,1.1.7.2-.7,1.4-1.9.8-2.6-.5,0-.8,1-.9,1.4-.7-.3-.5-1.5-.9-2.2.4-.7,1-1.4.9-2.2.6,0,1.2.4,1.8.7.9-.2.5-1.3.5-1.9.4-.6,1.1-.2,1.7-.5,0-.2-.2-.4-.5-.6,1.5-1,1.4,1.8,2.9,1.1,0-.4-.5-.9-.7-1.3-.4-.2-.7.5-1.1,0,0-.6.6-1.3.8-1.9.3-.1.6-.2.9,0,0-.4-.1-.7-.2-1.1.4,0,.7,0,.9-.2,0-.3-.1-.5-.5-.6.6,0,1.2,0,1.7.2.3-.5.7-.9.8-1.5.7-.3,1,.2,1.3-.7,1,.2,2,.5,2.8.9,0-.9-.5-.2-1-.7-.5-.3-1.1-.4-1.6-.6-.9-.5.2-.7.7-.6.4-.6,0-.8-.5-.9.9,0,1.2,0,1.5-.9.2,0,.5.1.7.3.5-.3.4-.9,1.2-1,.6,0,.7-.7,1.4-.7-.5-.8-1.9-1.6-2.8-1.3,0,.3,0,.6.2.9-.2-.1-.4-.2-.7-.2,0,.3-.2.5-.3.8-.3,0-.5.2-.8.3,0,.3.1.5.6.6-1.2-.3-1.7,1.1-3,1,0,.8-.8,1-.9,1.8-.6.1-1,.6-1.5.8-.2,0-.4,0-.6-.1-.1.3-.2.6-.2.9-.2,0-.4-.1-.7-.1,0,1.4-.8,1.2-1.7,1.7-.2.5-.1.7,0,1.2-1-.2-1.1.3-1.2,1.1-1,.2-.5,1-1.3,1.1-1,0-1.4.6-2.1,1.2,0,.2.1.4.2.6-.8,1.1-1.7,1.9-2.8,2.5,0,1.1,0,1.3-.9,1.9,0,.4,0,.7-.1,1-.7.3-1.9.4-2.5,1,.4.4.9.9.8,1.5-.9,0-1.4,1.2-1.6,2-.2,0-.4-.1-.6-.2-.7.4-.6,1.2-1.5.8-.1.3-.2.7-.3,1,.3.8.9.6,1.3,1.1-1-.3-1.2,0-2.2.1-1,.5-.5,1.7-1.5,2,0,.7.2,1.3-.7,1.2-.3,1,0,1.4-1.1,1.9.3,1.2,0,1.5-1.1,1.9.2.6,0,1.1.2,1.7-.5.3-1.3.5-1.7,1,1,.8-.4,1.5-.8,2.3.2,1.2-.5,1.9-1.6,1.9-.3.7-.6,1.3-.4,2.1-.1.3-.4.5-.8.5,0,1.1-.6,1.4-.6,2.4-.3.7-.8,1.3-.4,2.1,0,.8.8.2.7.9-1-.2-1.3.2-1.2,1.2-.2-.2-.4-.3-.6-.5-.8.4-.7,2-.6,2.7-.4.2-.8.4-1.3.6,0,.6.6.9.7,1.5-.4.2-.7.4-.9.6,0,.2.2.4.2.6-.2.6-.7,1.1-1,1.7,0,.5.1.9.2,1.4,0,.2-.1.4-.2.6l.5.2c.1.8-.9.6-1.1,1.1-.1.5.4.9.3,1.4-.4,0-.7,0-.9.1-.2.5.2.9.2,1.4-1.3.6-.2,1-.8,1.9.1.2.2.4.4.6-.2.7-.9.7-.6,1.6-.1.9,0,.8.3,1.5-.2.7-1.1,1.3-1.5,1.9.3.6.5,1.1,1.1,1.4-.5.6-2,.6-1.4,1.7l-.6.6c.6,0,.8.5,1.1,1-.5.8-.6,1.6-1.1,2.3.3.5.6,1,.1,1.5-.4.7-.2,1.8.2,2.5-.3.4-.5.9-.7,1.4.4.7,1,1.3,0,1.8,0,.7-.2,1.4-.1,2.1-.6.8-.2,1.5-.3,2.5.4,0,.7.3.8.6-.2.7-.9.7-.8,1.5,0,.8.6,1,.5,1.9l-.5.3c0,.9,0,1.7-.2,2.5.3.6.2,1.2.6,1.7-1,1.2.4,1.5,0,2.9-.7,1.1-.2,2.2-.5,3.4.3.5.2,1,0,1.6-.2.7.3.9.7,1.4.2.9-.2,1.6.4,2.3.1.6-.6.8-.4,1.5-.4.9.5,1.3.5,2-.3-.3-.5-.8-1-.6-.3.3-.5.6-.6,1,.7.6.9,1,.8,1.9.9.4,1.6.8,1.1,1.9-.6.8-.3,1,.1,1.8,0,1.2-1.2,3.1-.8,4.1,0-.7,0-1.5.9-1.1.7.4.6,1.1-.3,1.1.3.3.7.5.8.9-.2.7.2,1.1.6,1.6.6.6,0,1.5.3,2.3.4.6.9,1.1,1.1,1.7-.5.7.6,1.5.8,2.2,0,.6-.7.7-.8,1.1,0,.8,1.9,1,1.6,1.8-.4.2-.8.7-1.2.7.2.2.3.5.4.8.5.2,1.3.4.8,1.1,1,.7,1.5,1.5,1.1,2.7.5.6,1.1.9,1.7,1.3.2,1.1,1.3,1.7.2,2.9.8.9,1.6,1.4,2.7,1.9.2.6-.6.3-.7.9-.4,1.4,1.6,2.9,2.4,3.9,0,.2-.1.4-.2.6.6,1,1.8.8,2.4,1.7,0,.7,0,1.2-.4,1.8.6.5,1.4.8,1.9,1.5,0,.2-.1.3-.1.5.4.2.7.5.9.9v1c.4.5,1.1.7,1.7,1,.3.8,1,1.3,1.7,1.7.4.9,1.1,1.1,1.7,1.7,0,.2-.1.4-.2.6.6.6.8,1.4,1.6,1.8.3,1.8,2.3,1.5,3.5,2.4,0,.3-.1.6-.2,1,.7,1,1.9,1.3,2.5,2.4.3.3.2.6-.1.9.5.6,1.3.9,2.1,1.1.6,1.2,1.8,1.8,2.9,2.4.5,1.2,1.8,1.5,2.7,2.3.5.6,1.2.5,1.6,1.1,1,1.2,2.2,1.4,3.6,1.8.3,1,1.1,1.4,1.9,1.9,1.2.2,2,.9,2.8,1.7,1,.7,2.3,1.1,3.4,1.7.3.7.3,1.3,1.3,1,.5.7,1,.3,1.7.2.9,1.2,1.9,1.4,3.3,1.7.2.7.8.9,1.4,1.2,1,.5,1.9.8,3,.6.8.2,1.4,1,2.3,1.1.7,0,1.1.6,1.7.9.8.2,1.4.5,2.2.3.7-.2.9.5,1.5.6.9.4,1.8.2,2.7.3,1,.7,1.7,1.3,3.1,1.2.7-.2,1.3-.5,1.9,0,.8.1,1.7.4,2.4,1,2.3,1,4.1.6,6.4.7,1.3-.2,2.7.3,3.9-.1.6,0,.9.4,1.5,0,.5.3,1.1.5,1.6.9.3,0,.6-.2.9-.2,0,1.2,1.3,1,2.2,1.1.8.2.9-.7,1.6-.1,1,.7,2.8-.6,2.9,1h.8c-.5,0-.8-.3-.9-.6.4-.9,1.9,0,2.6,0,.1.3.2.7.1,1.1.5,0,.9,0,1.2-.4-.6.1-1.1,0-1.2-.6.7-.9,1.8-.5,2.6,0,.7,0,1.3.3,1.9.4,1.6-.3,3-.8,4.6-.3.7-.4,1.4-.5,2.1-.4,4.3-11,10.3-20.4,17.9-28.1,2.8-2.8,6.4-5.8,11-8.6,0-.3,0-.6-.1-.9-.5-.1-.8.9-1.1,1.3-1-.2-1.3.8-2.4.5,0-1.1.2-1.5,1.4-1.1,0-.5-.7-.8-.9-1.1l.2-.3c1.2.1.6-.8,1.5-.7.6.5,0,.7.2,1.4.7,0,.8-.6,1.4-.9,1,.5.1,1.1-.1,1.8.5-.3,1.1-.6,1.7-.9-.6-.3-.5-1.1-1.4-1.2v-.2c.6-.2,1.3,0,1.6-.8-.2-.7-.6,0-1.1-.2,0-1.1.7-.7,1.4-.7v-.6c.5,0,.8.8,1.1,1.1.2.7,0,1.5-.6,2.1,7.4-3.9,17.1-6.8,29.5-7.2,8.3-.3,16,1.2,22.9,4.4h.2c0-.3,0-.4-.2-.6.6,0,1.2.2,1.5-.5.4-.8,1.2-.8,1.2-1.9.6-.3.9-.7,1.6-.7,0-.5-.3-.6-.6-1,.2-.7.3-1.2,1.1-1.2.2-.9,1-1.2,1.8-1.2.3-.8-.5-.4-.5-1.2.2,0,.4.1.6.2.2-.5-.1-1.3.4-1.6.5,0,.9-.4,1.4-.5.1-.7-.4-1.8-.2-2.5.8,0,1-1.2,1.3-1.8.4-.6,1.1-.1,1.7-.5,0-.7-.9-.7-1-1.4.4-.3.8-.4,1.3-.5,0-.4-.1-.7-.3-1.1,1.1-.2,1-1.4,2.2-1.3.3-.7-1-.8-.9-1.3,1-.1.8-1.1,1.7-1.3.2-.8-.6-.6-.6-1.3.6.3.8-.1,1.3-.3-.3-1,.7-1.3.8-2.2-.3-.7-.9-.5-1.3-1,.7.2,1.3-.2,2,0,.3-.4,0-1-.1-1.4-.4-.9.6-1.7,1.4-1.6.3-.6-.3-.7.3-1.4,0-.2-.1-.4-.5-.6-.3-1.3.7-2,1.2-3.3-.3-.4-.4-.7-.5-1.1.8-.1.7-1,1.1-1.6-.3-.5-.3-.8-.3-1.4.5.3.7.6,1.2,0-.2-.6.2-1,0-1.7-.4-.3-.6-.5-.6-.8,1.5-.1.1-.9.8-1.9.4-.2,1.1,0,.9-.8l.3-.1ZM115,138.5c-.6.5-.9-1.1-.6-1.3.4-.1.8,1.1.6,1.3ZM120.8,239c-.7,0-1.5-.7-1-1.4-.3-.4-.6-.6-.9-1-.1-.7.8-1.1,1-.4.1.7.7.9,1.3,1.2,0,.5-.2,1.1-.4,1.6h0ZM186.5,86.9c-.5,0-.8-.1-1-.3.5-.4,1-1.1,1.6-1.1.2-.8.5-.9.8-.1.5-.1,1-.2,1.5-.1.4-.2.9-.5,1.3-.8.6,0,.7,0,1.2-.4.2,1,.7.3,1.1-.2.5,0,.7.4,1,0s1.1-.2,1.6-.4c1,1,1.8-1.6,2.4,0v.4c-.5,1-.6.1-1.2.1,0,.3,0,.6.3,1-.4.1-.7.1-1,0-.2-.7-.5-.8-1.2-.6,0,.3,0,.6.2.9-.7.6-1.2-.1-1.8-.4-.9.1-.9.8-.9,1.5h-.1c0-.3,0-.7-.1-1-.7-.2-.6.7-1.1.9q-.8,0-1,.8c-.3-.3-.5-.7-.9-.8q-.6.5-.2,1.2c-.1.2-.3.4-.5.4.3-.9-.9-1.9-1.6-1.4,0,.7.5,1.1.2,1.7-.6.1-.9.5-1.6.4v-.9c.5-.2,1.7,0,1.1-.9l-.1.1ZM200.8,106.8c.7.2,1.4-.2,2.1,0,.1.7-.6.6-1.1.7-.6-.2-.9.3-1.5.2-.9-.1-1.7.2-2.5,0,.8-.2,2.3-.4,3-.9ZM198.9,101.8c.7,0,.7,1,0,.9-.1-.3-.1-.6,0-.9ZM190.1,138.1c-.4.6-1,.3-1.6.4v-1.2c.7.2,1.3,0,1.6-.7.5,0,1.1-.1,1.6-.2.4.9-1.3.8-1.8,1.1,0,.2.1.5.2.7v-.1ZM191.8,263.3c.8.7,1.7.4,2.6.7,0,.4.2.7.4.9.4-.2.7-.4.9-.8.4.5,1.1.9,1.7,1.2.4,0,.8,0,1.2.2.5-.3,1.7-.4,1.8.3-1.5.2-3.2-.2-4.7-.1-.7-.2-1.4-.7-2.1-.7-.5,0-1.2.2-1.6-.2-.5-.6-1.4-.7-1.7-1.3.1-.2,1,.2,1.4,0l.1-.2ZM193,135.9v-.3h.3v.3h-.3ZM197.3,259.4c.2,0,.2.2.1.5-.7.5-.9-.3-.1-.5ZM198.5,261v-.2c.3-.1.6-.1.9,0,0,.3-.3.4-.9.2ZM185.8,96.4c.3-.4,1-.8,1.3-.2,0,.6,0,1.1-.6,1.4.1-.8.1-1.2-.8-1.2h.1ZM185.3,105.6c1.3-.6,2.8-1.8,4.3-1.4.6-.5,1.2-.3,1.9-.5.8-.6,1.6-1,2.7-1,.7.1,1.3-.7,1.9-.3.5.5.7.6,1.4.5.2.7-.8.5-1.2.8-.4.4-.6.6-1.2.4.2-.7,1.6-.5,1-1.3-.8.1-1.8.5-2.6.8,0,.2,0,.4.1.6h-1.2c-.4-.3-1.5-.7-1.3.2.2,0,.4.1.6.2-.3,0-.7,0-1-.1-.5.2-.9.8-1.3,1.2-.7.2-.2-.6-.9-.8-.6-.2-.9,0-1,.7-1,.2-2.2.7-3.1.5.2-.6.5-.6,1.1-.6l-.2.1ZM183.6,86.4c.4.1.8.2,1.2.4.1,1-.9,1.2,0,2.4-.1.2-.3.3-.4.4.3-1.1-.8-1.7-1.6-1.4-.4,1-1.2,0-1.1-.6,1.2.2,1.2-.7,2-1.1l-.1-.1ZM170,91.8c1.1,0,1.5-.7,2.6-.5.1-.3.1-.7.1-1,.4,0,.8,0,1.1-.4.2.1.4.3.6.4.8,0,.9-.9,1.6-1.1.4,0,.8-.1,1.2-.4,1.1,0,1.9-.5,3-.4.1-.4.3-.6.5-.6.6.4.8,1.4,1.5,1.6h1c-.1.3-.2.6-.4.9-.3,0-.6-.1-1-.2l-.6.6h-.8v-.4c.9,0,1.8-.5.6-1.1-.5,0-2,.4-2.2.9.2.2.3.4.5.6-.7,0-1.2.1-1.8-.3-.8-.6-2.5,0-2.1,1.1-.3-.2-.6-.6-.9-.6,0,.9.9,2.2,1.6.9q.9,0,1.2-.8v1.2c-.2,0-.4-.1-.6-.2-.3.7-.4,1-1.2.9-.6.5-1.1.5-1.8.5,0-.6,1.2-.2,1-1.1-.5-.6-1.7.9-2.5.6,0-.5-.3-.7-.6-.6,0,.4,0,.8.2,1.1l-.2.3c-.8-.2-2.3-1-1.8-2.1l.2.2ZM182.6,97.8c-.5,0-.6-.3-.3-.7.7-.4.9.4.3.7ZM182.9,120.1h-.3v-.3h.3v.3ZM181.7,97.7h-.2v-.2h.2v.2ZM177.5,99.8v.2h-.2v-.2h.2ZM175,101.1c-.6-.9.8-.7,1.3-.9.3.6-.9,1-1.3.9ZM170.9,94.6c-.7.4-.7-.3-.2-.6.3,0,.4.2.2.6ZM166.3,94.6c0-.2-.1-.4-.2-.6.3-.2.7-.4,1-.6.2.2.5.3.8.5.3,0,.4-.3.3-.8,1.2.2.4-1.4,1.4-.4-.1.3-.3.7-.4,1-.7.5-1.8.5-2.2,1.3-.3.7-1.8.3-1.8-.2.4,0,.7-.1,1.1-.2h0ZM169.4,95.7c-.7.6-1.2.2-1.7-.4,0-.6.8-.3,1.1,0,.5,0,.6.2.6.4ZM164.8,97.4c0-.5-1.1-2.2,0-1.9,0,.3.1.6.1,1,1.1.4,1.7-.3,2.8,0-.4.6-.8.3-1.3.6-.4.9-1.4.9-2.2.9,0-.3.1-.5.6-.6ZM161.8,97.9c0-.2-.1-.4-.2-.7.2-.2.4-.4.4-.7.8-.3,1.7-1.1,2,.2-.5,1.1-1.5,0-2.1,1.5.2.7,1,0,1.6.2v.4c-.9.2-1.5.1-2.4,0,0-.8-.1-.7.6-.9h.1ZM163.1,172.4h1.2v1.4c.1.2.3.4.4.6-.3.2-.5.5-.7.7-.6-.2-1.3-.6-1.4-1.3.1-.2.4-.3.7-.3,0-.3-.1-.7-.2-1v-.1ZM165.8,234.9c0,.5.1.8.5,1.1-.6,0-.6-.2-.9-.7-.1-.8-1.5-.7-1.6-1.4l.4-.3c.5.6,1.2.6,1.5,1.2l.1.1ZM161.5,182.4c0-.6.3-1.4,0-1.9,1,0,.9-.6.3-1-.3-.6.4-.7.7-1.1,0-.7-.5-1.1-.6-1.7.2.1.4.2.7.2v-.7c.4,0,.7,0,.9.1-.1.5,0,.8.4,1.2-.5.5-.4.9-.4,1.5-.6.5-.5,1.2,0,1.7,0,.6,0,1,.2,1.5-.1.7-.3.9.2,1.6-.4.6-.4.5-.2,1.2-.3.1-.6.2-.9.1.2.2.3.4.5.6,0,.7-.3,1.3,0,2-.5.7.5,1.2-.3,1.6-.7-.1,0-.8-1-1-.8-.9.3-1.3.5-2.2-.6-.7-.5-1.5-1.1-2.1-.3-.3-.3-.8-.5-1.2.5,0,.7,0,.9-.3l-.3-.1ZM163.8,190.7c-.1.2-.4.3-.8.3,0-.3-.7-1.4-.2-1.4.3.4.8.7,1,1.2v-.1ZM157.5,125.5c-.7,0-.8-.3-1.3.3-.2-.8,1.8-1.5,1.3-.3ZM154.4,249.5c-.4,0-.6,0-.5-.2.4-.2.6-.1.5.2ZM154,260.1c.6.2,1.2.2,1.6.8.5,0,.8-.1,1,.4-.3.1-.5.2-.8.4-.7-.6-1.8-1.2-2.7-1.2-.1-.7.5-.5,1-.4h-.1ZM132.6,108.7c.7-.1.2,1,.2,1.4-.5.2-.5-1.2-.2-1.4ZM130,114.3c0-.3.1-.6,0-1-.4.1-.7.2-1,.3,0-.9.9-1.7,1.4-2.4.4-.2,1.1-.8,1.5-.6,0,.2,0,.5-.2.7-.5.6,0,1.3-.3,1.7-.8,0-.8,1-1.1,1.5-.9-.1-1,1.7-1.7.6.4-.4.8-.6,1.3-.9l.1.1ZM127.5,116.1c.7.2,0,.7.3,1.3-.8.2-1.2-1-.3-1.3ZM121.8,239.3c.5-.1.9.6.3.8-.4-.1-.5-.4-.3-.8ZM155.5,277.3c-.4.1-.6,0-.5-.2.4-.2.6-.1.5.2ZM159.1,274.6c-.8,0-1.4-.4-2.1-.6-.1-.8-.7-.8-1.3-1,0-.2.1-.4.2-.6-.4-.5-.9-.5-1.4-.6-1.2-.4-2.3-.5-3.4-1.1,0-.4.4-.6.5-.9-1-.9-2.5-1.3-3.7-1.6-.6-.5-.8-1.2-1.6-1.5-.4,0-.7,0-.9-.2,0-1.3-1.2-1.6-2.2-1.7-.2-.6-.4-.8-.8-1.2h.6c.1-.8-1-.8-1.5-.8-.6-.4-1.3-.8-1.8-1.3.2-.3.9-.8.2-1-1.1-.7-2-1.1-3.2-1.5-.2-.6-1.7-1.3-.4-1.5-.4-.9-1.4-.5-1.8-1.3-.3-.6-.8-.7-1.4-.9-.3-.5-.5-.6-1.1-.8.2-1.8-1.9-.6-1.4-2.4-.3-.2-.6-.4-1-.6.1-.2.3-.5.5-.7-.6-1-2.1-1.4-2.9-2.3-.4-.4-.2-.6,0-1.1-.4,0-.7-.2-.9-.5.3-.2.5-.5.5-.7-.8-1-1.8-.2-2.5-1.2.4-.3.5-.7.5-1-1.4-.6-1.5-2.2-2.9-2.9v-.3c.2-.2.4-.3.7-.4.8.6.4,1.1,1.6,1,.3.8-.3,1,.7,1.3.2,1,.4.5,1.2.4.2.5,0,1.1.1,1.7.6.4.8,1,1.6.8,0,.6-.3,1.7.5,1.8.9.3,1.7.8,2.6,1.2,0,.6-.4,1.3.5,1.6.6.5,1.4.6,1.5,1.4.2,0,.4,0,.6-.2v2c.3,0,.6,0,1-.2l.2.6c1.1,0,1,1.2,2,1.1,0,.5.3.8.7.9.9.3.4,1.2,1.4,1.4.3,1,1.2.2,1,1.7.8,0,1.8.6,2.5,1.1-.1.3-.2.6-.2.9.4-.4.8-.5,1-.2,0,.2,0,.4-.2.6.7,0,1.6-.3,1.8.6l-.3.6h.7c0,1.2.7.6,1.5,1,.3.6.3,1,1,1.3,0,.4,0,.7.2,1,.2,0,.4,0,.6-.2.4.5.7.7,1.2,1,.2.5.3.9.7,1.2.6.1,1,.6,1.6.7.3.5.5,1,1.1,1.2.5,1,1.5.3,1.8,1.4.2,0,.3,0,.5-.2.2.2.5.4.7.4.1.8.8.9,1.1,1.5,1,.7,2.1.6,3.2,1.1.1.8.7,1.1.9,1.7-.6.3-1.3-.7-1.9-.8l-.2-.2ZM165.6,278.1c-1.3-.7-2.9-.7-4.1-1.7v-.3c.3-.6.9-.8,1.4-.3.6.6,1.2.3,1.6,1.1.4.9,1.4.8,1.9,1.4-.2,0-.4,0-.7-.2h-.1ZM166.4,267.3c-.9-.3-2.9-.3-3.1-1.5-.8-.3-1.1-1-2.1-1.1,0-.4-.3-.7-.6-.7-.8,0-1.4-.3-2.1-.4-.1-.2-.3-.5-.4-.8-.3-.2-.8-.2-1.1-.4h.1c1.1-.8,1.4.4,2.4.5.5.1.8.5,1.1.9.4,0,.7.3.8.7,1.3.1,1.5.2,2.4,1.1h.5c.6,0,1.4,1.3,1.9.7.3.4.9.7.8,1.2-.2,0-.4,0-.6-.3v.1ZM170.8,115.7c-.3.2-.7.1-1.1,0-.2-.5-.4-1-1-1-.3.8.2,1-.8,1.2,0,.3-.1.6-.1.9-.8.5-1.1,1.3-2.2.9-.2.2-.3.6-.1,1-.7-.4-.2-1.9-1.4-1.1.3,1,.1,1.5,1.1,2.2-.7,0-1,0-1.6.4-.5,0-1-.3-.8-.8.2.1.4.2.7.2.1-.4.4-.9.2-1.4.5-.6.4-1.3,1.3-1.2.6-.2,2,.2,2.2-.6-.1-1-1-.2-.8-1,.4,0,.9.4,1.2,0,.2-.2.2-.5,0-.8,1,.3,1.5-.8,2.5-.7.6,0,1-.5,1.6-.5-.3-.6-.4-1,.5-1,0,.5.3.7.7.6.1-.6.4-1,.9-1.4v.6c.8.1.7-.7,1.1-1,.2.1.4.3.6.4.4,0,.8,0,1.2-.2,0-.8,1.5-1.3,2.1-1-.9,0-1.4.5-2,1.1-.8,0-1.4.3-2.1.6,0,.2,0,.4.2.6-.3,0-.5.2-.8.4-1.1-.3-1.3.2-2.2.5,0,.8-.8.9-.9,1.8l-.2.3ZM177.3,123.4c0,.4,0,.6-.2.9-.6-.1-1.1-.1-1.6,0v.6c-1.2.6-2,.8-3.2.9v-.9c.6.7,1.9.8,1.2-.4.3.1.7.2,1,.3.2-.3.2-.6.1-1,.6,0,1.2.2,1.8-.2,0-.2,0-.4-.2-.6.6,0,.8-.5,1.4-.4.5-.5.9-.3,1.5-.5.7-.9,1.6-.4,1.8-1.8h.8c0,.6.4,1,.4,1.6-.5-.4-1.7,0-1.6.8-.5-.4-.5,0-1,.1-.9-.2-1.2.7-2.2.6h0ZM182.3,143.1c-.3,0-.6-.1-.9-.2-.2.3-.2.6-.2,1h-1.2c-.1-.1-.3-.2-.4-.4.7-.1.8-.3,1.2-.8.4,0,.7,0,1.1-.1.1-.6.2-.9.7-1.3.6-.4.4-1.1,1.1-1-.1.2-.2.5-.3.7.3.1.6.2,1,.1,0,1.3-2,.5-2,2h-.1ZM186.3,120c-.3,0-.6-.1-1-.3-.1,1.3-1.1.6-1.9,1v-.5c.7-.2.9-.5,1.2-1.1.4,0,2,.2,1.7.8v.1ZM186.5,138.3c.3-.2,2-.1,1.3.5-.4.1-.9.7-1.3.5v-1ZM200.3,284c-.7.8-1.6.4-2.5.8h-1.9c-1-.4-2-.9-3.1-.8-1.2-.7-2.3-.6-3.7-.6-.4-.1-.7-.6-1.1-.9-.5-.2-1-.3-1.5-.4v-.4c.5,0,1.2-.2,1.6,0,.5.5,1,.9,1.7,1.1.7-.2,1,0,1.6.2,0-.6.4-.8.9-.4.3.6.5.9,1.1,1.2,1.2-.4,2.8-.3,4.1,0,.3-.3.5-.3.7-.2,0,1.3,1.5.9,1.9,0,.2.2.5.2.8,0v.8c-.2-.2-.4-.4-.6-.5v.1ZM201.6,266c-.1-.4-.5-.8-.4-1.2.6-.1.9.4,1.2.7.1.6-.4.6-.9.5h.1ZM201.4,261.2c-.7-.2-.2-1,.2-1,.4.2.8.3,1.2.3.1.5-1.2.4-1.5.7h.1ZM202.4,102.6c-.9.3-1.4-.3-2.4,0,0-1.3,1.7-.9,2.5-.6.6-.6.5-.7,1.4-.6-.4.6-1.2.6-1.6,1.2h.1ZM204.8,261.1h-.2v-.2h.2v.2ZM205,82.9c-.8.4-2,.3-2.2,1.3-.1-.4-.4-.6-.6-.6-.2,1-.5.5-1.1.2-.7.5-.8.6-1.6.2-.6,0-.8.2-1.3-.5.3-.9,1.5.3,1.5-.9,1.5.3,2.6-.4,4,.1.3-1.2,1.9,0,2.5-.9.3.2.4.4.4.8-.7,0-1.1,0-1.7.3h.1ZM302.1,116.7c.4-.1.6,0,.5.2-.4.2-.6,0-.5-.2ZM282,98.4c.6,0,1.1.2,1.7.3.1,1,.8,1,1.6,1.1.2.9,1.3,1.5,2,2.2.5.5.8.8,1.4.1.4.4.8.7,1.2,1.1-.1,1.2.7,1.3,1.7,1.5.2.2.3.5.2.9.4.6,1,1.1,1.4,1.6.3.4,1.3,0,1.4.5,0,.3-.2.5-.3.8.5.8,1.2.7,1.9,1.4h1.1c-.2,1.8,1.9,1.5,1.9,3,.2.6.8.4.7,1-.6-.4-1.3-.4-2-.8,0-.3.2-.6.5-.9-.2-.7-1.5-.4-2.1-.9v-1.1c-.6-.2-1.1,0-1.6-.4-.6-.6-1.5-1-1.5-1.9-.4-.6-.9-.2-1.4-.1,0-.2.1-.4.2-.6-.3-.4-.7-.5-.8-1.1h-.5c-.2-.5-.8-1.2-1.3-.6-.2.2-.4.3-.6.2,0-.3.2-.7.4-1-.4-.3-.6-.6-.8-1-.5,0-1,0-1.3-.2,0-.2.1-.5.2-.7-.6-.3-1.6,0-2.1-.5-.2-.8.7-.1.5-.9-.6-.1-.7.7-1.4.5-.3-.1-.7-.2-1-.4-.3-.8.4-.8,1-.7,0-.2-.1-.5-.4-.7-.5,0-.9.6-1.3.6-.4-.6-.9-.6-1.4-1,.5-.4.4-1.1.9-1.3h-.1ZM289,128.9c0-.4,0-.7-.1-1-.7-.4-1.4-.5-1.2-1.6-.5-.4-1.1-.5-1.8-.6,0-.4.7-.6.7-1-.2-.6-1.3-.8-1.8-.9,0-.4-.2-.8-.3-1.2-.9-.4-1.8-.4-2.5-1,0-.2,0-.4.2-.6-.7-.7-1.5-1.1-2.4-1.5-.5-.8-1-1.2-1.9-1.6-1.2-.6-1.1-1.8-2.6-1.9-.1-.3-.3-.6-.5-.8.8.2,1.4-.1,2.1.4.5.3,1.1.2,1.6.3.8,0,.9,1.6,1.6,1.5v-.7c.4.2.6.7.9.9.5.3,1.1.3,1.6.7.3.4.5.8.9.9.8.3.8,1,1.4,1.6v1c.4.4.7.6.8,1.2.6,0,1.1.3,1.7.5.2,1-.1,1.3.6,2.2,1.6-.1,1,1.5,2.5,1.8.4.6-.1,1.9,0,2.6.8.4,1.7.8,2.5,1.3-.1.3-.1.6,0,.8h-.8c-.4-1.2-1.3-.5-2-1.4v-1.1c-.2-.4-.8-.5-1.2-.8h0ZM275.8,95.7c.4,0,.6-.4.6-.9.2,1,1.2,1,1.9,1.6,1,0,1.5.2,2.4.7,0,.2-.1.4-.2.6.2.3.8.6.7,1.1-.1.3-.3.5-.4.8-.5,0-1-.8-1.5-1,.1-.3.2-.5.3-.7-.6-.6-.9-.5-1.4.1-.2-.2-.4-.5-.5-.8-.9,0-1.1-.3-1.8-.8-1,0-1.3-.4-1.5-1.2.2-.2.4-.4.7-.4.3.3.6.7.8,1l-.1-.1ZM270.7,92.7c.7-.2,1.6.1,2.4,0,.7.2,1.7.5,2,1.3,0,.9-1.1.3-1.6,1-.3-.2-.6-.5-.9-.8-.6,0-1-.4-1.6-.4-.3-.3-.4-.6-.3-1v-.1ZM273.8,113.9c-.7.3-1.3-.4-1.7-.9-.5-.7-1.4-.5-1.9-1.1h1.6c.7.2,1.2.6,1.9.7.3.5.4.9.1,1.3ZM265.4,90c.9.5,2,.3,2.9.7.5.9,1.2,1.6,2.1,2.1-.4.3-.7.3-1.1,0-.5-.3-1,0-1.5-.3,0-.2.2-.4.6-.6-.6,0-.9,0-1.4.3-.2,0-.4-.3-.4-.7-.9-.2-1.3-.5-2.2-.1l.3-.6c-.5-.1-1-.4-1.5-.4v-.5c.6-.5,1.6.2,2.3.3l-.1-.2ZM256.7,83.3c.3,0,.3.1.2.5-.3,0-.4-.1-.2-.5ZM257.6,86.8c.6.8,1.4.7,2.3.8v.8c-.6,0-1.5-.3-2.1,0-.5-.3-1.1-.5-1.6-.8.2,0,.4-.2.5-.5-1.1-.9-.9.2-1.7.2,0-.9,2.3-1.2,2.8-.5h-.2ZM247.1,98.8c.9.2,1.1.8,1.7,1.2.3-.3.6-.5.9-.5.3.8.3,1,1.2,1.2-.6,0-1.2,0-1.8.3-.6.1-1,.3-1.2-.5-.3,0-.7.1-1,.2.4-.3.5-.7.4-1,0-.1-.6-.9-.4-.9h.2ZM244.6,98.5c.3.3,1.4.7,1.5,1.1-1.2-.1-2.4,0-3.6-.5v-.4c.7.1,1.4-.1,2.2-.2h-.1ZM239.4,97.6c1,.2,1.3.9,2.3.7,0,.2-.2.4-.3.5-.9-.2-1.7,0-2.5,0,0-.4.5-.8.5-1.2ZM233.8,98c.4-.1.8,0,1.2,0,.6-.1.8-.6,1.5-.4.7.2,1.3-.5,1.7.2-.2.4-.2.5,0,.9-.7,0-1.5-.2-2.2,0-.9.3-1.6-.2-2.5,0,.7-1-.7-1-1.2-.4v-.8c.7,0,.8,0,1.3.4l.2.1ZM225.4,95.9c.8-.2,1.2.3,2.1-.2l.6.4c.8-.5.7-.5,1.5,0,.2-.1.4-.3.6-.4.8.2.7.8,1.3,1,.3-.3.7-.4,1-.3.2.8-1.1.4-1.6.4,0-.8-.7-1.1-1.3-.6-.2.3-.2.6-.3,1-.5-.3-.4-1.1-1-1l-.2.6c-.5,0-.8,0-1.3-.3-.6,0-1,.4-1.5.5-.1-.3,0-.6,0-1l.1-.1ZM217.8,96.4c.8-.9,1,.3,2.1,0,1-.6,2-.2,3.1-.5.4.2,1.3.2,1.1.8-.4.5-1.6.7-2.2.3-.5-.3-1.2,0-1.7-.1-.6-.2-1,.3-1.4-.1-.2-.2-.5-.3-1-.2v-.2ZM209.8,283.5c.2-.6,1.3,0,1.5.3-.4.1-1.6.6-1.5-.3ZM221,192.5h-.2v-.2h.2v.2ZM225.1,168.5c-.6-.4-.1-1-1-1.2-.4,0-.6.3-.6.9h-.3c-.1-.9-.8-.5-1.4-.8-.6.7-1.6.5-2.5.7-.3-.2-.4-.5-.5-1-.4,0-.8-.1-1.2-.1-.2.1-.4.3-.6.4v-.4c.7,0,.9-.3,1.4-.7.2.1.4.3.7.3.2-.2.3-.4.5-.5.7,0,1.1.7,1.4-.3.2.2.3.4.6.6,1.3-.5,1.6.4,2.9.2.4.4.6.7,1.2.7-.1.2-.2.3-.2.5.5.4,1.1.3,1.8.2-.7.4-1.1.5-2,.4l-.2.1ZM234.8,236.8c-.5,0-1,0-1.4.3-.3-.3-.5-.5-.8-.6,0,1-1.2.6-1.8.7-.2-.5,1.2-.4,1.5-.4,0-.3-.2-.5-.5-.7-.2,0-.4,0-.6.2,0-.6.4-.4.8-.8.1.3.3.5.6.6.2,0,.4-.2.6-.3.6.4.7.9,1.5.8v.2h.1ZM234.3,236c.2-.4.3-.9.4-1.3.2.2.4.4.4.8.5-.2.8-.1.8.2-.4.6-1.1.7-1.6.3h0ZM236.5,235.4c-.2-.4-.3-.8-.3-1.2.2-.4.8-.9,1.2-.4-.4.5-.4,1.2-.9,1.6h0ZM244.5,115c-.5-.3-.7-.4-1.3-.4l-.6-.6c-.3,0-.5.2-.5.5-.2-1-1-.5-1.5-1.2-.8.3-1.5.2-.8-.7-.7-.2-1-.1-1.6,0-.2-1.1-1.1-.3-1.5-1.2.2-.3.5-.4.8-.5-.1.2-.2.4-.2.6h.4c1-.2,1.6.3,2.5.3.4.5.7,1.1,1.3,1.4.5-.2.7-.5,1.2,0,.3.3.8.3,1.4.1-.1.8.5.9.4,1.6v.1ZM245.8,250.7v-.3h.3v.3h-.3ZM248,240.3c0-.3.1-.5.3-.7.2.5.1.7-.3.7ZM252.5,249.4c-1-.3-1.2.9-2,.5,0-.7.8-.6,0-1.2.4-.6,0-1,0-1.6.4.1,1.5-.4,1.3.4-.2-.1-.5-.2-.7-.2-.3.3-.3.7.1,1.1.6.2.9-.6,1.4-.3v1.3h-.1ZM254.6,247.9c-.7,0-1,.4-1.4.8-.4-.9.3-1.1.8-1.6.3.2.5.3.9.3,0,.3,0,.5-.3.5h0ZM257.7,232.6c0,1.2-.9.1-.9,1.2.1.5-1.7.6-1.2-.2.3-.4.5-.8.3-1.2.2.1.4.2.6.2.2-.2.4-.3.6-.5h1.2v.8c-.2-.1-.4-.2-.6-.2v-.1ZM259.8,125.4l-.3-1.2c-.9-.6-1.6-1-2.7-.7.1-.2.2-.4.2-.6-.8-.2-1-.8-1.7-1.1-.9-.7-2-.9-3-1.5,1.4-.6,2.2.3,3.2,1.1,1.3,0,2,1,3.3.8.9.5.8,1.3,2,1.4.8.8,0,1.6-.9,1.6l-.1.2ZM266.1,128.5h-.2v-.2h.2v.2ZM281.4,141.1v-.4c1-.2,1.4.6,2.4.7-.4,1.1-1.7-.2-2.4-.4v.1ZM290.1,143.2v-.3h.3v.3h-.3ZM294.8,152.4v-.2c.4,0,.4.1,0,.2ZM296,157v-.2c.4,0,1.4-.5,1.4.3-.4.1-.8.1-1.4,0v-.1ZM298,157.9c.2-1.2-.6-1.3-1.3-2,.1-.4.4-.6.9-.6-.2-.2-.3-.5-.4-.8-.6-.3-1.4-.5-1.5-1.2-.2-.5,0-1.1-.2-1.6l-.7-.2c-.2-1.1-1.3-1.3-.3-2.4-.6,0-.7-.5-1.2-.8,0-.4-.1-.9-.3-1.3l-.6.3c-.4-1-1-2-1.2-3,.4-.2.7-.3,1-.5-.7,0-1.1-.6-1.1-1.3-.5,0-.9,0-1.4-.1-.4-.9-.6-1.3-1.3-1.9.2-1.2,0-1.6-1.3-1.7v-.7c-1.1,0-.6-1.1-1.7-1.3-.5.3-.8.4-1.4.4,1-.6.3-1.8-.6-2.1-.3.2-.5.5-.6.8-.2-.5-.4-.8-.8-1.1.6-.2.9.7,1.2-.2-.2-.5-.5-.8-1-1.1-.3.3-.6.5-1,.5.3-.3.7-.4.6-1-.3-.2-.6-.2-1,.2-.6-.4-.4-.8-.5-1.3-1.1-.2-.1,1.1-1,1,.4-.5.6-.9.3-1.5-.6-.2-1.2-.1-1.9,0v-.4c.2.1.4.2.6.2.2-.4.3-1.5,0-1.9h-1.2c-.2-.4-.2-.8-.2-1.3-.5,0-1.3,0-1.7-.3,0-.2,0-.3.2-.5-.7-.2-1-.5-1.8-.5-.4-.4-.2-1-.5-1.4-.5-.2-.5-.5-.8-.8l-.2.6c-.7,0-1.3-.4-1.7-.9-.6-.8-2,.3-2.1-1-.8.4-1-.3-1.6-.8,0-.2.2-.4.2-.6-.1-.3-.2-.5-.4-.8-.8,0-1.2-.1-1.9-.4-.6-.5-1-1.1-1.7-1.4-.2-.3-.4-1-1-.8-.4.4-.7.4-1,.1,0-.4.2-.8.4-1.2.4-.2.8-.2,1-.6-.6.1-1.3.4-1.4,1.1-.5.1-1.1.2-1.6.1-1.1-1-2.7-1.8-4.2-2.1-.4-.7.2-1-.7-1.3-.4-.8-1-1.7-1.9-.9-.7-.2-1.3-.6-2-.8-.9-.4-2-1.3-.9-2.3-.1-.2-.3-.4-.4-.4,0,.6-.2.8-.9.8.1.2.2.4.4.6l-.6.6c-.6-.4-1.3-2.3-2.2-1.8,0,.3.1.5.2.7-.6-.3-1.3-.3-1.3-1.1-.5,0-.9-.2-1.3-.5-.2,0-.4.2-.6.3l-.6-.6c-.9.4-1.7-.2-2.3-.9-.8.4-.5.3-1.2-.3-.2,0-.4,0-.6.2-.6-.6-1.5-.4-2.2-.9-.2,0-.4,0-.5.1-.2-.2-.4-.3-.6-.5-.3,0-.5.1-.7.3-1.5-.3-2.7.3-3.9-1l-.5.4c-.8-.4-.6.4-1.4-.5-.2.1-.4.3-.6.5-.2-.3-.4-.6-.6-.8-.4,0-.8-.1-1.1-.4-1.4.3-3.1,0-4.6.2-.9.2-1.6-.5-2.3-.1-.4-.1-.6-.3-1,0-.3-.2-.5-.2-.8,0-.6-.3-1-.8-1.7-.6-.8-.2-.8-.4-1.5.2-.9,0-.9-.2-.5-.9-.7.2-1.1.3-1.8.3-.5.7-1.7-.6-1.2-1,.8,0,1.5.4,2.3.2.6,0,.9-.3,1.4,0,.2-.1.4-.3.7-.4.5.3,1.2-.1,1.8,0,1.4-1.1,3.9.3,5.2-.7,2-.1,4-.4,6-.5,1.8.3,3.6-.2,5.4.3,1.2.4,2.5.3,3.7.5.7.4,1.6.9,2.5,1,.6,0,1-.4,1.5-.2,1,0,1.4.8,2.3,1,.8.2,1.3,1.1,2.1,1.4,1.5.5,3.1.8,4.7,1.2,1,.5,2,.7,3.1.8.6.7.8,1.4,1.7,1.8.7,0,1.2.5,1.9.3,1.1-.2,2.3,0,2.8,1.1l-.3.6c.3.3.7.6,1.1.8,1.6.3,2.6,1.5,4.3,1.5.2.3.4.7.4,1.1.8.5,1.8.7,2.7.8.7.4,1.1,1.1,1.9,1.2.9,1,1.8,2,3,2.7.5,0,1.1.2,1.5.5,0,1,.9,1.4,1.8,1.6.4,1.2,1.7,2.8,3,2.8,0,.3,0,.6-.2.9.7.8,1.6.9,2.4,1.4.9.8,1.6,1.7,2.6,2.5.2.4.3.8.7,1.2-.4,1,.3,1.9,1,2.5.5.4,1.1.2,1.5.8-.2.2-.3.4-.4.6,1,1.1,2.3,2.1,3.3,3.1-.7,1,.5.8-.2,1.9.6.8,2.1,1.4,2.4,2.7.2.9,1,1.1,1.4,1.9-.3.5-.4.8-.3,1.4.5.6,1,.8,1.7,1,.3.9.9,2,1.7,2.6,0,.6-1.2,1.2-1.8,1,.7.6,1.2,1.2,1.9,1.7-.2,1,1,1,1.1,1.9,0,.4.5.8.7,1.2.3.5,0,1.2.2,1.7.4.5.9.9,1.3,1.4-.3.6,0,1.5-.5,1.7-.4.4-1.5.4-1.7-.2.2-.2.3-.4.5-.6h-.6c.1-.5.3-.7.5-.8-.2-.1-.5-.3-.6-.6l.2.2ZM301.3,188.2v-1.4c.4-.2,1,0,1.3.5-.2.5-.8.7-1.3.9ZM303.3,184.9c-.4.5-.5,1.6-1.3,1.5-.4-.1-1.1-.6-1.1-1,.3,0,.7-.1,1-.2-.2-.4-.2-.7-.2-1,.6,0,1.8-.4,1.5.7h.1ZM301.7,182.9c.4-.4,1.7,0,1,.6-.3,0-1.2-.3-1-.6ZM303.9,177.9c-.1.3-.3.5-.4.8.5.8.6,1.9-.7,2,0,.2.2.3.6.4,0,.5-.2,1-.7,1.3-.7-.4-1.1-1.1-1.8-1.5,0-.2.3-.5.6-.7-.1-.2-.3-.4-.5-.6h.6c-.2-1.1-.5-1.9-.7-2.9-.2,0-.5.1-.7.2,0-.8.9-1.3.4-1.9v-.8c.6,0,.8-.2.9-.5-.3-.2-.5-.5-.8-.7v-2.4c.1-.2.3-.4.4-.6-.8-.8,0-.7,0-1.5-.5-.1-.8-.5-1.4-.5-.9-.5,0-1.6.2-2.2-.2-1-1-1.5-.5-2.5-.2-.6-.7-.8-1.2-1.2.2-.6.6-.6.4-1.4h.3c0,.4.1.6.3.5,0-.5.2-.8.5-.9.7.3,1.2,1.2,1.7,1.7.2.6.3.7-.4.9,0,.5.5.9.5,1.4-.2.4-.6.6-.9,1,.5.5.4.3.9.2.3.2.5.5.4.8-.5.2-.9.5-1.4.1,0,1.2,1.5.5,1.9,1.8-.1.4-.5.6-.8.9.7,0,1.1.9.7,1.4-.3.1-.7.2-1.1.2.9.2,1.3.6,1.2,1.6.5.5.3.9.4,1.5.8.3.9,1.4.6,2.1.2.3.3.5.5.8-.3.6-.3.5,0,1.1v.1ZM315,127.1c.2.4.4.7.4,1.1-.7.5-1.2-1.2-.4-1.1ZM144.2,99.2c.5.2.9-.6,1.2-.8,0-.3-.2-.6-.4-.9-.4.1-.7,1.3-.9,1.7h.1ZM333.1,257.5c-.8,0-1.5-.2-2.1.4-1.1-.3-.9-1.4-2.2-1.1-.2-.2-.5-.4-.8-.5,0-.3.1-.6.4-1-.6-.8-1.3-.4-2.2-.5-.2-.9-.4-.4-1-.4-.3-.5-.6-1-1-1.3-.4,0-.7,0-1-.1,0-.2.1-.4.2-.7h-1.2c.2.3.2.5,0,.8,1.3,0,1.2,1.6,2.1,1.7,0,.2,0,.4-.2.6,1.1-.2,2.3,0,3.2.6,0,.2-.2.4-.3.7.9.2,1.5.6,2.1,1.4,0,.9,1.1,1.2,1.2,1.9.4-.4.9,0,1.4.2,0,.4.3.7.8.7,0,.2,0,.4-.2.6.8.4,2,.7,2.5,1.4,0,.2,0,.4-.2.6.5-.1.7,0,1,.2.3-1.4.7-2.7,1.1-4.1-.7-.6-1.4-1.2-2.2-1.6-.7,0-1.2,0-1.3-.8l-.1.3ZM334.6,279.3v-.5c-.2,0-.5,0-.8.3,0,.4,0,.8-.3,1.2.2.3.4.5.4.8.3-.3.6-.4.9-.5,0-.3,0-.5-.1-.8-.2-.1-.1-.3,0-.5h-.1ZM351.1,114.9c.5,0,.9,0,1.2-.3.7.5,1.4.5,1.9,1.2,1.1.1,2.2,0,3.2,0,1-.2,1.9-.9,2.5-1.7,1.4-.4,2.8-1.4,4.1-2.1.9,0,1.1-.7,1.9-.9.2.1.4.3.6.4.2-.5.4-1,1.1-.8.7-.1,1.3-.2,1.8-.8.5,0,.4,1.3.9.6,0-.5-.4-.8-.3-1.4.7,0,1.1-.7,1.6-1.1.9-.3,1.3,0,2,0,.1-.4.4-.6.8-.7.3-.5.9-.9,1.5-1.1.2.3.5.6.8.8-.4.5-.6.5-.4,1.2l-.6-.6c-.5.1-1.1,0-1.5.3,0,.5.3.9.2,1.4,0-.5-.3-.8-.6-.9-.4.3-.7.5-1.1.7,0,.2,0,.4.2.6-.8,0-.4-1.2-1.7-.5.2.3,1.1,1.1.3,1.3-.8,0-.3.8-.9,1.1-.4-.2-.8-.5-1.1-.8-.2.2-.4.4-.6.5-.2,0-.4,0-.6-.1-.3.2-.5.5-.8.7,0,.4,0,.7-.1,1.1-.7.4-1.4-.2-1.8.5,0,.5-.3.7-.9.6,0-.2.1-.3.2-.5-.3-.1-.6-.3-.8-.4,0,.6,0,1.2-.1,1.7-.3,0-.5-.1-.6-.6,0,.5-.3.8-.8.8-.2.9-.9.4-1.3,1,.2.8.3.5-.2,1.1.1.7,1.2,0,1.6,0l.2-.7c.6-.2.7.8,1.3,1-.1-1,0-1,.9-1.1v-.3c-.3,0-.5-.2-.6-.3h.9l.3.9c1.2,0,2-.2,2.3,1.2v-.6c.5-.9.8.2.7.6.2-.2.4-.3.6-.4.6,0,1.3.6,1.4-.4.6.3.6-.2,1.2,0,.9-.4,1.7-.8,2.2-1.6.5-.2,1.7-.4,2-1,.3-1,.9-.3,1.5-.5-.3-.4-.3-.7-.2-.9.6,0,1.2-.1,1.7.1.6-.9,1-.8,1.9-1.1,0-1.1.5-.9,1.3-.7.2-.1.3-.4.3-.7.9-.2.8-.2.9-1.1.4,0,.6.6.9.6.1-.3.3-.5.5-.6.8-.2.1-.7,0-1.1.6-.3,1.2-.1,1.9-.2.8-.6,1.7-.6,2.5-1.2.2-.8,1.1-1.1,1.2-1.9,0,.2,0,.4.2.6.3,0,.6-.2.8-.7.2,0,.4.1.6.3.3-1.1.4-.4,1.2-.3,0-1,.7-1.2,1.4-1.8.2,0,.4.1.6.2.3-.2.5-.5.6-.9h1c.4-.6,1.2-.8,1.8-1.3.4-.4.9-.4,1.5-.5.5-.3,1-.6,1.6-.7,0-.8.3-1.4-.6-1.7-.7.5-.7-.2-1.4.2-.5-.3-.4-.8-.6-1.3-.4-.1-.6,0-.7.6-.3,0-.5-.2-.8-.3-.8.3-2.1,1.3-2.3,2.3-1-.5-1.2.1-2,.4-.3-.2-.5-.4-.8-.5-.9.6.5.4.5.9,0,.2.1.4.1.6-.6.2-.8.3-1.2.7-.4-.2-.4-.6-.7-.9-.6,0-.7.5-.5,1-1.1.2-.3-1.2,0-1.6.2-.6-.8-.6-1.2-.5.2.2.3.4.5.6,0,.8-.8.6-.4,1.6-.4.8-1.6.8-2,0,0-.3.3-.5.8-.6.1-.4.4-.6.9-.7-.1-.3-.3-.6-.4-.9-.4,0-.5.8-1.1.9-.4-.5-1.5-1-.6-1.6.7,0,1.1-.3,1.5-.8,1.3.6,1.8-.9,2.7-1.5.8-.4,2-1.3,2.9-.9.3.5.2,1.4-.4,1.7-.4-.5-.8-.6-1.1-.5.2.5,1,1.2,1.6.9.3-.2.6-.5.9-.7.2-.6-.8-.8-.9-1.4.2-.5.2-1.2.8-1.4.7-.4,1.4-.4,1.9-1.1.8,0,1.4-.3,2.1-.6.3-1.5,2.6-1.8,3.7-2.4.2-.4.3-.8.3-1.2.1-.5.8-.6,1.2-.7-.5-.4-.9,0-1-.9-.6-.2-1.3-.4-1.9-.5-.2.3-.2.6-.1,1,0-.2-.2-.3-.2-.5-.5,0-1-.4-1.5-.4-.2.8-.8.8-.6,1.6h-1.4c-.7.2-1.2.9-1.9.8-.3,0-.5.3-.6.8l-.6-.3c-.4.3-.8.4-1.2.6-.2,0-.4-.2-.6-.3v.7c-1.5.5-2.8.5-4.3.9-.3.4-.4.8-.7,1.2-.8.3-1.7.5-2.4,1.1-.7.5-1.4,0-2.1,0-.2-.3,0-.6.5-.9.6.4.9.7,1.3-.1.8-.2.8-.4.8-1.2.2.1.4.2.6.2.2-.3,0-.6-.3-1,1-.4.8.7,1.2,1.2,0-.8,1-1,.9-1.7-.2-.3-.3-.5-.3-.8.4-.8.8-.6,1.6-.6.7-.7,1.4,0,1.5-1.3h.4c.1.3.1.6,0,1.1.5,0,1.1-.4,1-1-.2.1-.4.2-.7.2-.3-.5-.1-1.2.5-1.4.7-.5,1.5-.3,2.3-.4.1-.3.2-.7.1-1.1.7-.5,1.6-.6,2.3-1.1.7-.5,1.8-.4,2.3-.9,0-.5.1-.7.6-.7.7-.5,1.4-1,2.3-1.1.8-.4,1.8-1.1,1.2-2.1-1.1-.5-2.1,0-3.2-.3-1-.5-2.2.4-3.1.2-.6-.3-1.4,1-1,1.5-.5.1-.9.2-1.4.4-.5-.2-1.2-.8-1.7-.8.2,1.1-.7,1.6-1.7,1.5s-1.6.4-2.5.5c-.8.4-.8,1.5-1.7,1.8-.6.1-1.1.3-1.6.7-1,.9-2.6.6-3.5,1.5-.8,0-1.2,0-1.9.5-.8,0-1.2.5-1.9.8,0,.3-.1.6-.1,1-.5.3-.7-.1-.9-.4-.4.7-1,1-1.7.6-.9,0-1.8.3-2.7.5-1.1-.4-.6-1.3.5-1,0-.7.9-.7,1.4-.6.6.4,1.4.3,1.5-.5.1-.6.6-.8,1.1-.9,0-.2-.1-.4-.2-.5.6-.1.8-.3.9-.7.4.3.7.4.9.2,0-.2,0-.4-.2-.7.3.1.7.2,1,.3-.1-.9,1.5-1.5,2.2-1.6,0-.3.2-.6.2-.9.7.2,1.4,0,2,.4.6-.4.2-1.1.9-1.4.4-.2.6-.6,1-.9.6-.1,1.1-.4,1.7-.4,1.1.2,1-1,2.2-.7-.1-.3-.3-.5-.4-.8-.9-.3-1.5-1-2.5-.8-.5-.5-1.5-.9-1.7-1.5,0,.4,0,.9-.1,1.3-.6,0-1.3.6-1.8.2-.4.2-.8.3-1.2.3-.2.5-.5.9-.7,1.3-.7.6-1.8.3-2.4,1-.9.6-1.3,1.7-2.5.9-.8.3-1.3.8-2.2,1,0,.3,0,.6-.2.9-.6,0-1.6-.2-2.1.2,0,.5,0,.9-.2,1.4-1.1.4-2.1.2-3.1-.2,0,.4-.3.6-.6.6-.7-.3-1.6-.5-2.1.2-.7.2-2.3.4-2.1,1.4-.7.3-1.4.3-1.9.8-.8,0-1.5,0-1.6,1-.5,0-1.1,0-1.6.3.2,1.3-1.2,1-2,1.5-.1.3-.2.5-.4.8-.8,0-1.8,1.1-2.5.6-.8-.4-1.5,0-1.3.9-.3.2-.6.4-.7.8-.9.3-2.3,0-3,.5-.2,1.1-.4.2-1,.7,0,.2,0,.4.1.7-.9.3-1.6-.3-2.3.3-.2,0-.4-.1-.6-.2-.2.4-.3,1-.2,1.6.2.2.3.4.5.6-.5-.1-.8-.3-1.4,0-.5,0-1-.4-1.5-.6-.5.7-.3.8.2,1.4-.6.2-.9-.2-1.4-.5-.5.6-1.9.7-2.1,1.4.1.2.3.4.4.6-.7.1-1.6-.5-2.2-.6-1,.3-.5,1.4-.5,2.2-.6.9-.9-.7-1.8-.4s.6,1-.7,1.2c-.1.3,0,.5.5.6,0,.2,0,.3-.1.5.7.7.9-.4.8-.9.6-.1,1.1.3,1.7.2,0-.2-.1-.4-.2-.6h1c0-.2-.1-.4-.2-.6.3-.3.8-.7,1.1-.2.4.5,1.1.6,1.6.3,0-1,.6-.8,1.3-.9.4.4.9-.2,1.2-.4.2,0,.4,0,.5.1v-.6c.8-.5.9.4,1.6.3,0-.2-.2-.4-.3-.6.9-1.2,1.9.5,2.6-.6,0-.2-.1-.4-.2-.6h.7c.5-.5,0-1-.2-1.4h1.6c.3.3.6.5,1,.5.3-.4-.2-.9-.3-1.4.5,0,.8.6,1.4.5.8.1,1.8,1.4,2.8.7.8-.2,1.7.3,2.6,0,.8.2.8-.7,1.4,0-.1.7-1.5.3-2,.8-.5-.2-1-.2-1.4.2-.2,1.2-1.5,1.2-2.4,1.4,0,1.3-.8,0-.9,1.4h-1c-.3.2-.6.5-.9.8-.6-.1-1.5.4-2,.8-.5.7-.2.3-1,.2-.2,1.2-.5,0-1.3.9-.4,0-.7,0-1,.2-.1.8-.4,1.4,0,2.2-.3-.2-.5-.2-.8,0,0-1.8-2.6-.2-1.7.9h.4c0-.4.1-.6.3-.6v.8c-.4,0-1.6,0-1.1.7.7.4,2-.6,2.1.6.7.2.6-.6,1.2-.6.8.1.4-.8.9-1.2h.8c0,.8.7,1,1.4.6.4-.3.5-1.3,1.1-1.4.9.3,2,0,2.3-.9-.2-.2-.3-.4-.5-.6.5-.7.8,0,1.6-.4-.2.2-.4.4-.5.6.2.7.8.6,1.4.8,0-.2.2-.4.3-.6.1.6.2,1.1.4,1.7.4-.4.5-.9,1.1-.4.6-.3,1.4.4,2.1,0,.7-.3,1.4,0,2.2,0v.4c-.3,0-.7-.1-1-.2-.1.8-.7,1.3-1.4.5-.7,1-1.5.5-2.4,1.1.3.6.2.6,0,1.3-.9-.1-1.6.3-2.3-.4-.5.3-1,.8-1.5.4,0,.5.1,1.2-.2,1.7-.6.2-.8.2-1.4-.2,0,.5-.2.7-.6.8-.2-.1-.4-.3-.6-.4-.1.8-.2.8-1,.9-.5,0-.9,1-.6,1.4l-.5.2c0,.2.1.5.2.7-1,0-1.1,0-1.4-1-.5-.2-.6.7-.9,1-.2,1,.4.6.8,1.1-.7,0-1.2-.4-1.5.5l-.2.2c0-.6-.2-1.1-.3-1.7-.6.5-.8,1.1-1.6,1.2.2,0,.4.1.6.2,0,.6-.9,1.7-.3,2.2.5,0,.9.4,1.4.4.3-.4.9-.5,1.2-.9.8,0,1,.1,1.6-.4.2.1.4.3.6.4.1-.8.8-.5,1.1-1.2.7,0,1.3-.3,2-.4.5-.5,1.1-.5,1.7-.7,0-.2-.2-.4-.2-.5l.2-.4ZM396.4,99v.3h-.3v-.3h.3ZM386.6,102.3c-.4-.6,0-.9.6-.7,0,.3.1.6.3.9.5.3-.2,1.2-.6,1,0-.5-.4-.7-.9-.6,0-.3.1-.5.6-.6h0ZM384.7,103.8c-.5,0-.3-.9-.5-1.2-.3-.2-.4-.3-.4-.5.9-.2,1.5,1.1.9,1.7ZM384.2,92.1h.2v.2h-.2v-.2ZM380.7,104.3c0-.3.2-.6.3-.7.6-.2.8.4,1.2.8.6.2,1,0,1.4.6-.6,0-.9,0-1.4-.4h-1.6c-.5,0-1.3.7-1.7.4v-.8c.6,0,1.2,0,1.8.2v-.1ZM378.4,107h.3v.3h-.3v-.3ZM378.3,105.5c-.1.3-.3.5-.7.3-.2-.4.7-1.1.7-.3ZM376.8,97.4h.2v.3h-.2v-.3ZM386.4,77.3v.3h-.3v-.3h.3ZM356.3,107.8v.3h-.3v-.3h.3ZM354.7,197.7c-.4.3-.6.7-1,.9-.5-.3-.8-.7-1.2-1.1-.4.2-.9.7-.6,1.1.4.5,1.2.4,1.8.4.4.2,1,1.3,1.3.5-.7-.6-.1-1-.3-1.8h0ZM328.7,275.9c-.2.5-.1.7.2.6.1-.5,0-.7-.2-.6ZM356.5,199.4c.5.2,1.1,0,1-.7-.2-.3-1.2.3-1,.7ZM355.3,197.3c-.2.7-.6,1.5.2,1.9.3-.2.8-.8.6-1.1-.3-.2-.6-.6-.9-.8h.1ZM324.2,260.2h-1.6c.3.6-.2.8-.1,1.3.9-.1.8.3,1.5.7.6-.2.2-1.4.2-1.9v-.1ZM187.4,315.3c0-.5-.2-.7-.6-.6-.2.3-.2.6-.2,1-.4.4-.7.8-1.1,1.3-1.2,0-1.1-1.4-2.1-1.8,0,.5.1.9.2,1.4-.8.7-.6,1.4-.4,2.3-.2.2-.4.4-.5.6,0,.6,0,1.2-.3,1.8-.8.2-2.5.7-2.7-.4,0-.2-.3-.3-.5-.4.2-.7.8-2,.3-2.7-.2,0-.4.1-.6.2-.2-.1-.3-.3-.4-.4.3,0,.7,0,.9-.1-.1-.9,0-1,.7-1.6-.9-.8-.6-1.1,0-1.8-.3-.4-1.3-.3-1.7-.1-.1.7.4.6.6,1-.5.2-.9.2-1.3.6.5.7-.3.6.2,1.3-.4.5-.6.9-1.3,1.1.5.2,1,.3.9.9h-.6c.1.4.2.6.3.8-1.7.1.5,1,0,1.9-.3.2-.6.2-1,.1-.1.4.2.6,1,.5-.3.4-.7.6-.9,1,.4.9-.6,1.3-1.1.6.4-.4,0-1.3-.2-1.7-.5.1-.9.2-1.3.2-.2-1.4,1-1,1.3-2.2-.3-.7,0-1.1-.6-1.7.7-.5,1.6-1.3,1.2-2.3-.5,0-1.4-1.3-1-1.7.3,0,.4.1.6.6.3-.1.5-.3.8-.4-.7-.2-.6-.9-1.4-1,0-.2,0-.4.2-.6-.8,0-.8.7-1.8.6-.2,1-.3.5-1,.8-.2.8,1,.2,1.3.9-.8.5-1,.5-2,.4.1-.2.3-.4.4-.6-.3-.6-.8-.2-1.1.2-.5.6-.6,1.3-1.2,1.9-.1.9,0,1.8-.4,2.7-1.1-.5-1,.5-.8,1.2-.6,0-1.1,0-1.7-.1-.2.2-.2.5,0,.9,0,.7-.8,1.3-.3,2-.4,0-.7,0-1,.1-.4,1-.4,1.7.7,2.2-.4,0-.7,0-1.1.1-.2.8-.1.8-1,1-.2.7.6.2.8.7.4.6-.1.8-.4,1.2.8.3.5.4.1,1,0,.9-.2.6-.6,1.2,0,.5.1.9.2,1.4-.2-.1-.4-.2-.6-.2-.2.6-.1,1.3,0,1.9-.5.7-.7,2.1-.4,2.9-.9,0-1.2.6-.4,1.2-.5.7-.7.4-1.2,0,0,1,0,1.6.5,2.5-.2.7-.9,1.1-1.2,1.7.1.2.3.4.4.6-.9.7-1.1,1-1.2,2.1.4.5.4.7.4,1.3-.5,0-.8.3-.8.8-.5.3-.8.7-.8,1.3.1.4.3.8-.2,1.1-1,.4-.7,2.1.4,2.1.8.4.5,0,1.2,0,.6.8-.6,1.1-.2,2-.6.7-.5,1.4-.8,2.2.6.8.4,1.3-.4,1.8-.6.8-.6.9.2,1.5,0,.6-.4.8-.6,1.3.2.2.3.3.6.4.4-.3.5-.8,1-.4.2.2.3.5.4.8.7,0,1.6.4,1.7-.6.3,0,.6-.2,1-.2.5-.9.6-1.5.2-2.5.1-.2.4-.4.7-.5l-.3-.6c0-.5,1.2,0,1-.8-.3-.2-.8-.2-1.3-.1-.3-.7,1.8-.5,1.7-1.4l-1.2-.6c.9-.7,1.7-.2,2.6-.8.3-.5-.5-1.3,0-1.9.7-.6,1.2,0,2-.3-.3-.7-1.4.2-1.4-.6.2-.8.7,0,1.2,0,.5-.4.3-.9,1.1-.9.3,0,.5-.2.4-.6-.3-.1-.7,0-1.1.5-.3-.2-1.2-.2-1-.7.3,0,.7-.2,1-.5.8.2,1.5,0,2.2.4,0,.7-.1,1.3,0,2-.3-.1,0-1.2-.6-1-.2.7-.5,1.2-.2,1.9,0,1.1-1.8,1.4-1.2,2.5.6.5.8,1.3.7,2.1.2,0,.4-.1.5-.5.3-.2,1.1-.4,1.1-.9-.2-.1-.4-.2-.5-.4.5-.2,1.3.2,1.7-.2,0-.2-.1-.4-.2-.6.7,0,.9-.6,1.7-.3.5-.5,1.6.5.9.9-.3.1-.5.2-.8.3,0,.3.1.6.2.8,0,.5-.8.9-1.2,1.2,0,.5-.2.9-.4,1.3.7.1.6.9.9,1.5-.7-.6-1.6.6-2,1.1.8.2.9,1.1.7,1.7-.4,0-.7-.1-1-.5h-.8c0,.6.4.8.8,1.2.3.2.6.8,1,.8.6-.2.8.4,1.3.4,0-.5.2-.8.6-.8.5.4.7.5,1.3.4.2-.6.2-.9.9-1.1.9-.3,1.4-1.7.7-2.5.2-.2.4-.4.7-.5.1-.7.4-.9.8-1.4-.2-.8.1-1.2.4-1.9-.2-.2-.3-.4-.5-.6.4,0,.8-.2,1.2-.3.3-.6.2-1.1.3-1.8,0-.6.7-.9.5-1.6-.3-.3-.4-.6-.4-.9.8-.1,0,.8,1,.6.5-.6.7-1.3,1.5-1.6,1-.4.3-1,.5-1.8.7-.2,1.4,0,1.5-.9-.4-1.2.2-2.5,0-3.8.6-.5.6-.9.7-1.6.9-.6.6-1.4.6-2.4,0-.6,1-.8,1-1.5.1-1.1-.2-2,0-3.1,0-.4,0-.8-.2-1.2.5-.9.3-1.8,1.1-2.6,0-.6.2-1.2.4-1.8.8-.5,0-.9.8-1.6.3-.6-.8-.8-.1-1.3.2-.1.2-.4-.2-.8.1-.2.2-.4.4-.6-.5-.9-.2-1.5-.6-2.5l.6-.6-.3-.6c.4-.7-.7-1.8.5-1.9-.1-.7-.3-1.3.1-1.9.2-1.2-.5-1.3-.9-2.3-.2,0-.3,0-.5.1l-.3-.3ZM159.4,356h.3c.3.8-.6.7-.3,0ZM160.6,351.4c.4-.1.6,0,.6.2-.5.3-.7.2-.6-.2ZM171.9,316.4c.4-.2.6,0,.6.2-.3.5-.8.5-.6-.2ZM171.1,343.7c.7-.3,1.1.6.3.8-.8,0-.8-.4-.3-.8ZM169.9,347.8v-.3h.3v.3h-.3ZM171.7,350.1h-.3v-.3h.3v.3ZM171.6,347.3c-.5,0-2.1,0-1.7-.8.2,0,.4,0,.5.1,0-.5,0-.9.2-1.3.2,0,.4,0,.5.1.2-.6.7-1,1.1-.2-.9.7.2,1.5-.7,2.1h.1ZM172.5,343.2h-.3v-.2h.3v.2ZM175.4,362c-.3-.2-.4-.4-.4-.6.5-.3.8.5.4.6ZM333.7,264l-.6.6c-.5,0-.9-.5-.8-1.1-.2-.7-.7-1.2-1.4-1.4-.6,0-.3.5-.2.9-.8.1,0-.8-1-.6-.3.4,0,.9-.1,1.4-.4-.6-.4-1.5-1.2-1.6,0-.3,0-.5.2-.6.6.4.8.4,1.4,0,0-.2-.7-.9-.9-1-.1.4-.4.6-.9.5-.7.2-.5,1.1-.6,1.7.1.2.3.4.4.6h-.8c-.2-.4-.4-.9-.6-1.3-.7.1-1.3.7-1.6-.3-.2,0-.3.1-.4.5-.4.1-.6.3-.8.6-.2,1.1.9.6,1.2,1.3,0,.2-.1.4-.2.6.7.5,2.2,1.5,2.9.7l.4.4c-.2.2-.3.4-.4.6,0,1.1,1.6,1.7,2.1,2.7.3.6,1,.5,1.6.5.7.2.7.8,1.2,1.2.4,0,1,.4,1.4,0,.7.4.3.8.5,1.4h.1c.1-2.2.4-4.3.8-6.5l-.2-.2c-.2-.6-.7-1.2-1.3-1.5l-.2-.1ZM326.4,264.5c0-.3-.3-1.4.2-1.4.3.2.4,1.5-.2,1.4ZM330.4,266c0-.2-.2-.4-.3-.6-.3,0-.6.1-.9.2-.1-.3-.3-.5-.4-.8.6-.4,1.4-.3,1.5-1.2h.1c0,.8-.1,1.6,0,2.4h0ZM327.6,260.4c-.2-.2-.6-.4-.9-.5-.5.2-.6.8-.7,1.3.4.2,1,.4,1.5.4.2-.3.2-.7.1-1.1v-.1ZM339.5,252.3c0-.2.2-.4.3-.6-.2,0-.4.3-.3.6ZM173.2,311.5c0-.3-.1-.3-.5-.2,0,.3.1.4.5.2ZM149.6,95.2c-.2.5-.2.7.2.6.4-.4.4-.8-.2-.6ZM143.9,100.2c-.4-.5-.3-1.3-.8-1.6-.5,0,0,.9,0,1.1-.2.6.6,1.1.7.5h.1ZM333.9,278.1c.4-.5-.4-.8-.7-1.2-.4-.5-.7-.2-1.1,0-.3-.5,0-.5-.7-.4-.3-.8-.4-.5-.9,0h-1c.1.7,0,.8-.4,1.2.9-.2,1,0,1.2.8,0-.6.3-.7.7-.4.3.2.6-.4.9-.4,0,.3.2.6.5.7.2-.2.5-.3.7-.4.2.2.6.9.8.3v-.2ZM164.9,353.9c.4,0,1.5.5,1.4-.3-.2-.3-1.6,0-1.4.3ZM409,189.2h-.5c0,.2.2.4.2.6-.8.7-.7-.4-.9-.9-.8-.2-1.1.3-1.8.4-.6-.6-.8-.2-1.6-.4-.3.3-.6.4-.9.4.6-.9-.6-1.4-1.3-1.2-.6.7-1.9.2-2.7.3-.2.2-.4.3-.6.5,0-.5.3-.7,0-1.3.3,0,.6.1.9.2,0-.3.2-.7.2-1,.5-.3,1,.4,1.6.1-.2-.7-.2-.8.5-1.1.8.4,1.6.3,2.1,1,.3-.2.5-.4.8-.4l-.4-.4c-1.1,0-1.8-.1-2.7-.8l-.6.4c-.5-.4-1-.9-1.4-1.4.1-.5.8-.8,1.2-1,.3.2.6.2,1,0,.5.2.9.5,1.4.8.2-.2.4-.4.5-.6.5-.2.9-.3,1.4-.2.3-.2.5-.3.8-.4.2-.3.4-.9.8-.9.4,1,.9,0,1.5.9,0-.3.2-.6.4-.8-.6-1.5-2.2.1-2.7-1.5-.4,0-.7,0-1-.1-.2-.4-.4-1.6-.9-1.5.1.2.2.4.2.7-.5.3-1.3,0-1.7-.2-.2.9-1.1,1-1.7.5-1.1.2-1.9.8-3.1.6-.4-.3-.9-.3-1.4-.4.1.2.2.4.2.6-.5.4-.8.2-.9-.6-.8,0-1.2,0-1.8.5-.4-.1-.5-.2-.9,0-1-.4-1.2-1.5-2.2-1.2,0-.4-.5-.9-.9-.9-.6.6-.6,0-1.2,0-.3,1-.6.4-1.2,0-.8.7-.9.5-1.7,0-.9.7-1.9,0-2.9.6v-.6h-.2c-.9.7-2.4.3-3.4.4-.2.2-.4.4-.6.4-1-.5-2.3.5-2.9-.4-.3-.4-.5-.2-.7.4-.2-.1-.4-.2-.6-.4-.6,0-.6.7-1.1.9-.3-.1-.5-.3-.8-.5-.6.5-1.9.8-2.2,1.6.4.3.7.5,1.2.3.7-.1,1.5,0,2.2,0,.2-.1.4-.3.5-.5,0,1.1,2.2.9,2.7,1.3,0,.3-.2.6-.6.7-.7,0-1.1-.6-1.7-.5-.4.3-.9.5-1.3.7-.2-.2-.4-.3-.6-.3,0,.3-.1.6-.3.9-.4-.1-.8-.6-1.3-.5-.5.5-1.1.3-1.7.7-.4-.1-.7-.4-1-.6-1,0-1.5,0-2.4.3,0,.3,0,.6.2.9h-.7c-.3-.3-.8-1.3-1.3-.7-.3.6.4.4.4.8-.1.3-.3.5-.6.5-.3-.3-.6-1-1.1-1-.2.6.4,1.2.2,1.7-.9-.3-.4-2-1.7-1.7,0,.3-.2.6-.2.9-1.3-.4-1.2.7-1.1,1.6-.4-.1-.6-.7-1-.8-.3.2-.4.5-.5.8-.3,0-.6.2-.9.3-.4-.1-.7-.3-1-.6v-1c-.4-.1-.6.1-.4.6.3.8-.4,1-.9,1.4-.7,0-1.4-1.2-1.6.1h-.3c-.3-1.3-1.4,0-2,.3-.2-.2-.4-.3-.6-.5-.2.9.7.2.8,1.2,0-1.2.9-1,1.2,0,.7,0,1.1.4,1.7.6.3.6,0,1,.5,1.4,0-.5.2-.7.6-.8.5.4.9.4,1.6.4.6.3.7.6.9,1.1.8-1.2,1.6-.8,2.9-.8.7,0,.9.4,1.3.8,1.3-.1,1.7,1,2.9,0,.9.8,1.3-.1,2.3.4,1.1-1.2,1.9,0,3.2-.8.9.4,1.6.5,2.6.4.7-.1,1.3.5,1.9.7,1-.7.9,0,1.8.1-.1.6.1,1.1,0,1.7-.3,0-.5-.3-.7-.6-.4.6-1.6.8-2.3.8-.2.2-.4.3-.6.5-.1-.5-.3-.9-.6-1.3-.4,0-.6.6-1,.5-.6-.2-1.1,0-1.7-.2-.7.6.5,1.6,1,2.1.2,0,.4-.1.6-.2.2.2.5.4.8.5.6-.1,1.2-.5,1.8-.8.2,1.2,1.1.5,1.7,1.1.5-.2.8-1,1.4-.8.7.9,1.7,0,2.5.6.6.4,1.4.1,2.1.3.6.6,1.3.3,2.1.5,1.1-.5,1.2.4,2.2.2l-.4.4c-.8-.6-1.8-.6-2.5,0-1.1-.2-1.8-.1-2.9,0-.3-.9-1.7-1.1-1.7,0-.6,0-.9-.5-1.5-.8-.4,0-.8,0-1.1-.2l-.2.5c-.5-.2-.8.1-1.2,0-.9-1.2-2.7.5-3.8-.9-.4.5-.9.9-1.6.9,0-.5-1.4-.9-1.4-.2-.1.6-.8,0-1-.2-.7.2-1.1.6-1.9.4-1-.2-1.4.8-2.3.8-.4-.2-.7-.6-1.1-.8-.9-.1-1.4.5-2.3.6,0,.2.2.5.2.7-.4.1-.6,0-.7-.3-.2-.5-.7-.4-.9-1-.4.3-.9-.3-1.1.2.1.3.4.4.7.5,0,.1-.2.3-.5.4v.2c.4,0,.9,0,1.3.2.3.6,0,1.4.9,1.2.6,0,1.3,0,1.9.2l.6-.6c.8.4,0,1.1,1,1.5.8.4,1.7,1,1.8-.4.5,0,1.4.8,1.5,1.2.5-.4.8.1,1.3,0,.7,0,.8,0,1.4.4.9-.8,1.6,0,2.4.3l.6.9c.4,0,.4-.7.5-1,.6-.2,1.4,0,2-.1,1.2,0,.6.8,1.8,1.1.9,0,2.1.3,2.9-.3,1.1.4,2.8.6,3.9,0,1.2.7,2.3.3,3.5,0,.8-.1,1,.2,1.1.9.3,0,.5-.1.6-.5,1,.4,1.9,0,2.9.5.6-.1,1.3-.3,1.9-.3.8.3,1.8.7,2.6.3,1.1-.5,2,.3,3.1,0,.9-.3,1.7-.2,2.6-.1.7.6,1.9.6,2.2-.4h1.4l.6-.6c.6-.2,1.6-.4,1.8-1-.2-1.1-1-.9-1.8-1.3.1-.5,0-.9-.2-1.3-.5.3-.9,0-1.4,0-1.7-.6-2.9.6-4.7,0-.6.6-.8.5-1.7.5-.2-.3-.3-.5-.6-.6-.6.4-1.5.3-2.1.2-.2-.7-.7-.9-1.1-1.4.6-.8,2.3-.3,3.3-.7.3.2.5.3.8.5.7-.4,1.5-.7,2.1-1.1,1,.1,1.3-.6,1.8-1.3.2,0,.3.1.5.2.2-.2.4-.4.5-.7,0-.3-.2-.5-.3-.8,0-.3.2-.5.5-.6.6-.2.9.7,1.6.5v-.6c.8,0,.9.3,1.1.9.3-.7.7-.6,1.3-1,.6-.3,0-1.4.3-1.6,0,.6.3,1.1.5,1.7,1-.1.5-.8.5-1.4.2,0,.5.2.7.5.5.2,1.2-.4,1.4-.9-.2-.8-1-.9-.8-1.9l-.8.2ZM364.1,186.3l-.2-.3.2-.3h.3c.2.4.2.6-.2.6h-.1ZM377.8,193.3h-.2c-.2-.7,0-1.1.2-1v1ZM380.4,183.5c-.4,0-.7-.3-1.1-.4-.7.4-.8.6-1.5,0-.4.2-.7.2-.7-.1,0-1,1.1-.2,1.6-.3.8-.5,1.6-.1,2.5-.3-.2.4-.4.9-.8,1.2v-.1ZM365.3,198.8c.4-.1.6,0,.6.2-.4.2-.6,0-.6-.2ZM388.6,183.6c-.7-.4-.9-.6-1.6,0h-4.2l-.6-.4c-.2.2-.4.3-.6.5,0-.4.2-.8.6-.8h4.5c.3-.2.5-.2.6,0,.4-.3,1.4,0,1.3.7h0ZM166.4,351.8v.3h.4v-.3h-.4ZM168.4,355.3c-.6.3-.6.9.2.6.1-.4,0-.6-.2-.6ZM21.2,211.9v.3c.8.3.9-.8,0-.3ZM77.1,131.4c.1.6.4,1.1.4,1.8.5-.7.9-1.8-.4-1.8ZM37.6,100.2c-.3.5-.4.6.2.9.7.1,1.4.3,2.1.3.1.6-1,0-.5.9,1,.1,1.5.7,2.3,1.2.5.3.7.6.8,1.2.7.1.3-.7,1.2-.5,0,.2,0,.4-.1.5.4.5.5.9.5,1.5.8.2.1-.7,1-.7.6.3.8,1.9,1.5,1.9,0-.2,0-.6-.2-1,1-.1.7,1.4,1.5,1.7.2-.1.4-.2.6-.4v.7c.9.2,1.9.5,2.4,1.2,0,.2-.1.3-.2.5.5.2.8.4,1.3.3.6.2.9.7.8,1.3-.6.1-.9-.2-1.3-.5-.8-.5-1.5-.7-1.9-1.6-.3,0-.5.2-.8.6-.7-.6-1.5-.5-1.6-1.6-.5,0-.9-.4-1.4-.4-.7,0-1-.3-1.3-.9-.3,0-.6,0-.9-.2-.3-.4,0-1.1-.7-.9,0,.3-.2.6-.3.9-.7-.3-1.7-.3-1.6-1.3-.2.1-.4.2-.6.2-.4-.2-.5-.5-.6-1-.4,0-.9.2-1.2.4,0,.5,1.3.5,1.3.9-.5,0-1.3.5-1.5-.2-.1-.3-.4-.4-.8-.3-.4.7-.5,1.2-.5,2.1.2.3.5.5,1,.6,0,.4,0,.7.2,1,.2,0,.4-.1.5-.2.4.3.8.9.1,1.2-.2-.3-.5-.4-.7-.5v.3c.5,1,2.2.7,2.5,2.1.6-.1.7,0,1.2.3-.6,1.2.4,1.2,1.2,1.5l.3.9c.6.4.7.4,1.4.2.6.7.5,1.3,1.8,1.3.7.9,1.6,1.2,2.7,1.5.7.2.5.9,1.1,1.3-.1,1.1.6.9,1.4,1.1.1.4,0,.6-.6.6.7.1,1.2.7,1.8.8.6-.2.8-.3,1.4,0,.4.5-.1.6-.5.8,1,.6,2,1,3,1.6.8-.3,1.5,0,2.1.6.7.6,1.7.8,2.4,1.5-.2.5,0,.5,0,1-.7.6-1.7,0-1.7-.9-.6.5-1.5.4-1.5-.5-.2-.1-.5-.1-1,0-.4-.5-.7-.6-1.2-.9,0-.3-.1-.6-.2-1-.2-.1-.5-.1-.8,0v-.6c-.4,0-.6.1-.8.2l-.6-.6c-.7.4-.7-.3-1.3,0,0-1.1-.8-.6-1.5-.8-.2-1.2-1-.5-1.9-1.2,0-.4,0-.7-.2-1-.4,0-.9-.1-1.3-.2,0-1.1-.8-1.3-1.5-2-.9,0-1.8.1-2.3-.8h-.7c-.2-.4-.2-.8-.1-1.2-.2.4-.3,1.1-.9,1-.1-.3-.2-.6-.4-.8,0-.2,0-.4.2-.6-.8,0-1.5,0-1.9-.8h-.3c0,.5-.1.9-.2,1.2h-.8c.2-.7-.3-1.5-.7-.6,0,1-.6,3,.3,3.7,0-.5.2-.8.6-.8.7.5.8,1.7,1.4,2,0-.6.2-.8.6-.6.2.6.7,1.9,1.4,1.2.4.6.6,0,1.1,0,.4.7,1.4,1.2,2.2,1.2.2,1.5,1.2,0,1.4,1.3.2,0,.4,0,.6-.2,0,.5.3,1.4.6,1.7.6-.3,1.1-.2,1.3.3.7-.4,1,0,1.2.7,1-.2.9.6,1.6.9v-.7c.4,0,.8.1,1.1.2.5.7.5,1.3,1.6,1.1.3.5.7.8,1,1.3.4,0,.8.1,1.1.2.2.3.2.6.2.9.3,0,.6-.1.9-.2.4.2.8.9,1.2.9.8,0,.9.6.9,1.2.2-.1.4-.3.6-.4,1,.2,1.3.7,2.3,0,1,.4,1.4,0,2.3-.4.3,0,.3-.2,0-.4-.4-.1-1-.1-1-.6.4,0,.7,0,.9-.1.2-1.2-.5-.7-1.1-.3-.9,0-.5-.8-1.1-1-.9-.2-.8-1.1-1.9-1.1-.1-.4.8-.5,1.1-.6.3.2.5.3.8.5.3-.1.6-.3,1-.4.3.9,1.4,1.1,2.1,1.8.8-.5,1.5,0,2.2.5-.1.2-.2.4-.2.6.5.6,1,1.1,1.9.9.5.4.8.2,1.4.1.2.2.2.4,0,.8.8.4,1.5.4,2.2.9,0,.8,1,1.4,1.7,1.4.7-.7,1.3.3,2-.3s0-.9.1-1.9c-.6-.7-1.7-1-2.2-1.7-.1-.3,0-.5.2-.6.7-.1.9.7,1.4,1,.2-.4.5-.6,1-.6.2-.3.2-.7.1-1.1h.4v1.4c.3.5.8.6,1.4.7,0-.4.3-.6.7-.8.5-.5,0-1,.6-1.3.2.4.4.7.7,1,.2,0,.4,0,.5-.2.4.3.8.5,1.2.7.2.5,0,1.3.5,1.6.2-.2.5-.4.8-.5.8-.2.7,1.5,1.5,1.4.2-.3.3-.6.1-1.1,1,.4,0,.2,1.1,0,.6.7,1.5,1,1.3,2.2.1-.4.3-.6.6-.6l.3.5c1.1.2,1.1-2.1-.1-1.4-.1-.3-.2-.6-.2-1-.2.1-.4.2-.6.2-.4-.2-.7-.6-.9-1-.8.6-2-1-2.9-.9-1.3,0-.6-1.4-1.9-1.6-.2-.7-.9-.7-1.4-1.4-.1,1.2-.8.8-1.1,0-.4-.2-1.4-.2-1.1-.9.5,0,.7-.3.8-.8.9-.5.4-1.2,1.6-1.3.1-1.5,1.4.4,1.8-.7-.2-.6-1.1-.9-1.3-1.5,0-1.7-2.4-1.2-2.6-2.9-.2,0-.4.1-.6.2-.2-.5-.6-.9-.9-1.4-.6.3-1.5,0-1.5-.8h-.7c-1-.2-.5-1,.3-1,0-.2-.7-.4-.9-.5v.6c-.8,0-.4-.6-1.2-.1,0-.7-.5-1.1-.7-1.7-.5.4-.5,0-1-.2-.8-.4-1.7-.2-2.4-.7-.2,0-.4,0-.6.2v-1c-.9-.5-1.5-1.1-2.6-1,0-.4.3-1.2,0-1.5,0,.2-.2.3-.4.4-.7-.7-1.4.1-1.5-1.2-.6-.1-1,0-1.2-.8-.7.1-.8-.3-1.3-.4-.5.1-1.1.5-1.4-.2v-1c-.8.2-1,.3-1.8-.1-.2-.6-.2-1.2,0-1.6.4,0,.7.2,1,.6h1.3c.5.3,1,.6,1.6.7.2.4,0,.6-.6.6.3.2.5.5.8.8l.6-.4c.9.6,1.9.7,2.5,1.6,1.4-.3,2.2.9,2.7,2,.2-.1.4-.2.6-.2.7,1,1.5.3,2.1,1.3.9-.1,1.3.2,1.9.7.7.2,1.2.4,1.2,1.2.8-.2,1,.2,1.5.7,1.2-.1,1.9,0,2.9,0,.2.1.4.3.5.4.6-.6,1.1-.2,1.7-.8.8.1.3.9,1,1.1.4,0,.8.1,1.3.1-.2-.7-1-1.3-1.4-1.9,0-.7.5-1.9-.5-2.2-.9-.5-1.7,0-2.6-.6-.7-.3-.5-1-.6-1.7-.7-.1-1.8.4-2.4-.4-.5-.8-1.2-.4-2-.7-.4-.5-.3-.9-1.1-.8.1-.1.2-.3.2-.5-.5-.4-.4-.9-1.1-1-1,0-1.8-.3-2.8-.6-.1-.6-.3-.8-.9-1-.7-.1-1-.7-1.5-1.2-.4-.5-.9-.3-1.4-.3-.4-.1-.9-.3-1.3-.4-.1-1.5-1.1-1.5-2.3-1.5-.8-.7-1.1-.9-2.1-.8-.6-.4-1-.9-1.4-1.5-.5-.2-.8-.3-1.1-.8-.7-.2-1.6-.2-2.1.3-.3-.2-.6-.4-.9-.7-.7.3-1.3.6-2,.7-.4.4.4,1.4.7.7.1-.2.3-.3.5-.3,0,1.1-.7.6-1.4,1,0,1,1.6,1.9,2.5,2.1.8.2.9.9,1.2,1.5,1,.4,2.6,1.1,3.6,1.4v.5c-.4,0-.7.3-.7.7-.6.1-1-.4-1-1l-.6.3c-.4-.2-.8-.3-1.2-.3-.5-.2-.7-.7-1.1-1,0-.3.1-.6.2-.9-.8.1-1.2-.2-1.7.5-.6-.3-.9-.9-1.3-1.3-.2.1-.4.3-.6.4-.6-.5-1.6-.8-2.1-1.4,0-.7-.2-1.1-1-1-1,0-1.1,0-1.7-.8-1.2.1-2.4-.3-2.7-1.6-.6-.3-.7.6-1.3.3.1-.4.2-.7.2-1-.3-.1-1.2-.1-.9.4.5.4.1.8-.3.8,0-.5-.2-.8-.5-1-.6.3-1.8,0-1.9-.8-.3,0-.5.2-.8.4-.8,0-1.2,0-1.9.5-.5,0-.8,0-1,.4.3.2.4.5.4.9.6.5,1.4.5,2,1.1l-.6,1.3ZM37.8,107.8v-.3h.2v.2h-.2v.1ZM83.6,131c.7-.3.9.6.3.8-.4-.2-.6-.5-.3-.8ZM78.8,130.2c.3.7-.5.8-.3,0h.3ZM79.3,125c1.1.3-.7,1.7-1.1,1.3-.1-.5.7-1.1,1.1-1.3ZM76.9,124.8v.4h.4v.2h-.2v-.3h-.4v-.3h.2ZM73.9,123.3v.3h-.3v-.3h.3ZM72.8,122.5c.5-.2.6,1,0,.9-.3-.4-.3-.7,0-.9ZM70.8,122.1h.3v.3h-.3v-.3ZM68.5,120.9c.4-.2.7,0,.7.3-.5.2-.7,0-.7-.3ZM59.7,115.2h.3v.3h-.3v-.3ZM56.4,113.1c-.5,0-1.1.4-1.3-.3-.2-1,1.4-.1,1.3.3ZM54.2,112.8c-.8.4-.9-.9-1-1.4.7-.5.8,1,1,1.4ZM47.3,197.6c.5.1.8,0,.7-.4-.3-.1-1.5,0-.7.4ZM36.2,116.7c-.2.4.6,1.1.7.4-.1-.5-.4-.7-.7-.4ZM63.4,129.4l.2.3c.4,0,.5-.2.2-.6h-.3l-.1.3h0ZM145.2,75.1c.8.3,1-.4.3-.8-.8-1-.8.4-.3.8ZM130.6,69.2c.8,0,.1-1.2-.4-1.1-.6.3-.3,1.1.4,1.1ZM108.5,37.2c0-.2-.2-.4-.3-.6.1-.4.9-.1,1-.6-.3-.1-.7-.2-1-.3-.4-.6.1-1.4-.5-2h-1.3c0-.3,0-.6.2-.9-1.2.4-1.3-.8-2.2-.8.4.5.7.7.6,1.4-.3.4.3.6.5.8,0,.2,0,.4-.2.6.7.8,2.2.5,2,1.6-.5.6,1,1.3,1.2.7v.1ZM87.4,126.4c-.4,0-.7.1-1.1.4,0,1.1,1.7.5,1.1-.4ZM84.7,115.7c.9.5,1.7.6,2.5,1.5.7.1,1.1.3,1.6.8.7,0,1.5-.2,1.6.8.6-.2.9,1.2.7,1.6.7-.2.7,0,1.2.4,0-.5-.3-.8-.8-.7-.4-.7-.2-.9,0-1.6-.3,0-.6-.2-.8-.4-.9,0-1.3-.2-1.1-1.2-.7.1-.8-.2-1.3-.5-.5.1-.8.3-1.3,0-.4-1.4-1.7-1.6-2.9-1.7,0-.3,0-.7-.1-1-.3-.1-.5-.3-.8-.4-.5.3.5,1.2.4,1.8.5.5.6.7,1.3.5l-.2.1ZM101.2,279.6c0-.3-.1-.3-.6-.2,0,.3.1.4.6.2ZM82.2,125.4l-.6-.4c-1.1.8.5,1.1,1,1.6,0-.6.3-.7.8-.4.5.3.8-.6,1.2-.5.4.6,1.1,1.5,1.5.3-.8-.4-1.3-1.1-2.1-1.3-.8,0-1.6-.2-1.7.8l-.1-.1ZM14.8,230.2c-.2-.3-.3-.6-.5-.9-.8-.3-.9.7-.8,1.3.1-.1.3-.3.3-.6.3.1.6.2.9.2h.1ZM108,300.2c0,.2.2.3.5.2,0-.3-.1-.4-.5-.2ZM76.3,218.8c-.4-.6-.7-1.1.2-1.3.6,0,.9-.3,1.4-.4.2-.7-1.4-1-.7-1.7.3.1.7.2,1,.2v-.5c-.4,0-.7,0-1-.1,0-.2-.1-.4-.2-.7l-.2.6c-.5,0-1-.2-1.4-.6h-4.5c-1,.6-1.9,1.4-3,.7-.3.3-.5.5-.7.8h-1.1c-.4.4-.3.5-.2.9-.7.5-1.1-.2-1.8-.4-.3,0-.4-.3-.4-.7.7-.2,1-.7,1.8-.5,0-.6.2-1,.5-1.2.5.3,1,.6,1.6.8.6-.8.6-.4,1.4-.4-.1-.2-.2-.4-.2-.7.6-.4,1,.7,2,.1.6-.6,1.5.3,1.5-.8.3,0,.5.1.6.5,0-.5.2-.8.6-.9.2.2.4.3.6.5,0-.9.5-.7,1.2-.9.1.2.2.3.3.5.3-.8.3-.9,1.1-.8v-.8c-.6.6-1.2.6-2,.8-.5.3-1.2.5-1.7.2,0-.3.1-.5.6-.6h-2c-.3.4-.6.6-.9.6-.4-.4-.5-.8-.3-1.1,1-.8,2.4-.3,3.4-1,.7,0,1.2-.5,1.9-.5.8-.5,2-.3,2.1-1.4.4,0,.7-.3.9-.6-.3-.7.1-1.6-.5-2.1-.5-.6-1-.2-1.7-.5l-.6.6c0-.5-.2-.8-.6-.9-.7.3-1.8.5-2.6.4l-.3.4c-1.2.1-3.1-.5-3.9.7-.8,0-1.6.2-2.3.1,0-.4,1.2.1,1.5-.2.1-.8.4-.5.9-1,.8-.2,1.8.3,1.9-.9.3.3.5.7,1,.7,0-.6.3-.8.7-.7.7.1,1-.2,1.2-.8.5.3.8.4,1,.2-.1-.6-.2-1.1-.1-1.7-.3-.5-.7-.5-1.2-.4.1.2.3.4.4.7-.2,1.1-1.1.5-1.8.4,0,.9-.9,1-.9,0,.2-.2.4-.4.4-.7-.8,0-1.1,0-1-.4.6,0,1-.2,1.5-.4.6.3.9,0,1.5-.2.6-.3,1.1.3,1.7,0,.2-.5.5-.7,1-.7.7,0,1.1-.5,1.8-.5,0-.6,0-1.3-.2-1.8-.4-.7-.5-1.3.5-1.4v-1.1c-.2.2-.4.4-.7.5l-.2.6c-.3.2-.7.2-1.1,0,0,.5-.1.9-.2,1.3-1.1,0-1.7-1.3-2.9-.5l-.3-.9c-.4.3-.5,1-.8,1.2-.2-.6-.6-.7-1.1-.9l-.3.9c-.2-.1-.4-.2-.7-.2l-.2.6c-.8,0-1.3-.1-1.9.4-.4-.4-.1-1-.8-.9-.3.6-.8.7-1.4.8-.3.7-.8.5-1.4.8-.6-.2-.9-.6-1.6-.6-.1,1-.8.4-1.5.4-.2.2-.4.3-.6.5-.8-.2-1.6-.1-2.2.5h-.9v-.8c.9,0,1.2-.5,2.1-.3.8,0,2.2-.4,2.2-1.4-.1-.2-.3-.4-.5-.5.6,0,.8-.3.5-.9-.7.4-.8-.3-1.5.3-.6-.2-1.2-.6-1.8-.6,0,.2,0,.4.1.6-1,0-2.5-.2-3.6-.2-.2.6-.8,1.2-1.5.8-.8-.3-2,.6-2-.7-.3.3-.4.6-.6,1,.1.7,1,.4,1.5.4v.3c-1.5,0-3.7-.6-5.1.3-.6-.3-1.2,0-1.3-.8-.7,0-.7-.2-.9.6-.6-.2-1.3-.5-1.8.2,0,.2,0,.4.1.6-1,.6-1.4-.5-2.4-.2,0,.4-.3.7-.7.9-.9-.2-2.2-.4-3,.2l-.6-.3c0,.5-.2.8-.6.8-.2-.1-.4-.3-.6-.5,0,.8-.4.8-1.1.8,0,1-1.7.7-2.3.8-.6.6-2,.4-2.8.3v1.1c-1.1.2-1.7-.2-2.5,1-1.1-.7-1.1.6-.6,1.3,0,.2-.1.4-.2.6.1.1.2.3.4.4.2-1.3,1.2-.1,1.6.1,0-.6.3-.8.8-.6,0,.2-.1.4-.2.5.7,0,.8.3,1.1-.6.2,0,.5.2.7.4.2-.1.4-.3.5-.6.2.1.4.2.6.2l.6-.6c.2.1.4.2.6.2,0-.5.3-.7.6-.6,0,.4-.2.8-.4,1.2-.6.1-1.1.3-1.6.3,0,.2.1.4.2.6-.9.5-2.9,0-3.6,1.1-.1-1.5-1.7.4-1.8.9.4.5.1,1,.5,1.5.3.2,1.8.5,1.5-.3-.3-.2-.6-.2-1-.2v-.5c.8.5,1.1.5,1.9,0,.4.2.5.2.9,0,.2.8-1.2,1.1-1.7,1.4-1,1.1-2.2-.4-2.6,1.3-.5,0-1.3-.2-1.4.6,0,.5-.3.6-1,.4v1.1l.9.6c0,.3.1.7.2,1-.2.3-.4.5-.6.6-1.4.1-2,.9-3.1,1.5-.2,0-.4-.1-.6-.2-.3.7-.3,1.1-1.2.9-.7.5-.7.6-1.5.1-.8-.3-1,.5-.6,1.1-.6,0-.9.2-.8.8-.6-.3-.7-.3-.8.4-.5-.4-1-.8-1.7-.9-.3.5-.4,1-.9,1.3-.2,0-.5-.2-.7-.2-.3.2-.5.3-.8.5-.4-.2-.8-.7-1.2-.2-.6.6-.8,1.2-1.7,1-.6.5-.9.4-1.5.3-.1,1.6-1.3,1.1-2.3,2-.2,0-.3-.1-.5-.2-.2,1.6-2.6.9-3.5,2v.5c1.2-.2,2.6,0,3.7-.2.2.2.4.3.6.6,0-.4,0-.7.2-.9,1.2.6,1.6-.9,2.7-.2h.2c.1-.4.2-.9.4-1.3,0,.2.2.4.2.6.5,0,.9-.2,1.4-.5,1.1,1.1,1.1-.5,2.5.1l.2-.5c.2,0,.4.1.6.2.2-.6.1-.8.7-.3.7.6,1.2-.1,1.7-.6.4,0,.8,0,1.2-.4.4,0,.7,0,.9-.3.5-.4,1.5.2,1.9-.4.5-.6.9.3,1.6,0-.1-.3-.2-.6-.2-.9.5.5,1.1.6,1.7.1.3-.3.7,0,1,0,.6-.2.6-.7.7-1.2.4.3.6.7,1,.9.5-.7,1.6-.4,1.7-1.2.9-.4,1.6-.5,2.6-.4.7-.6.5-.6,1.2,0,.7-.7.8-.2,1.7-.4v.4c-1.1-.2-2,.7-3.3.5-.6-.5-1.7,0-1.8.7-.7,0-1,.4-1.7.5-.6.7-1.5.8-2.2,1.6-.2.6-.5,1.1-.3,1.7-.7.5-1,1.3-1.8.4-.7.3-1.2.6-1.6,1.3-.4.8-1.9.3-2.1,1.1,0,.6-.2,1.1-.5,1.6-1.1.4-1.7,1.4-3,1.6-.4.7.1.9-.9,1-.1.3-.2.7-.1,1.1,0-.2-.2-.4-.2-.7-.4-.1-.8-.3-1.1-.6-.7,0-1.2.3-1.9.3-.3.5,0,1-.6,1.4,0,.6,0,1.1-.7,1l-.2-.6c-.8,0-1.2-.9-1.9-.4-.6.6.3.8.1,1.6l.2.4c1.1-.1,1.8.7,2.5-.3.2.1.4.3.6.4.8-.4,1.3-1.1,2.3-.8.8-.6,1.5-.2,2.3-.5,0-.2-.1-.4-.2-.6.6-.4,1.1-.3,1.7-.6.5-.3.3-.6.2-1,.6,0,.5.5,1,.8,1.1,0,1.5-1.1,2.3-1.4.3.2.5.4.8.6.3-.1.5-.4.5-.9.6-.1,1.2.2,1.8-.2,0-.4-.6-1.1.3-1,.1.6.7.9,1.2.6-.2-1,1-1,1.6-1.4.2,0,.3.3.4.6h1c0-.3,0-.6.1-.9,1-.3,1.8,0,2.7-.6,1-.5,1.2-.5,2.3-.4.8,0,.9-1.1,1.2-1.6.5,0,.6.2.9.5.2-1.1.8-.1,1.5-.9.8.2,1.6.4,2.4,0l-.3.6c.1.2.4.3.8.3.6,0,1.2.4,1.7.7-.8,0-1.4-.3-2.3,0-.3.9-1.1.5-1.7,1.2-.6-.1-1.2,0-1.8,0,0,.3,0,.7-.1,1-.4-.1-1.4-.1-1.4-.8,0-.2-.1-.3-.4-.3.6,1.2-.4,1-1.2.8.1.8,0,.9-.6,1.4-.9.2-1.1,1-2.1.9.1.2.2.3.2.5-.4.1-.9.2-1.4.2,0,.2.1.4.2.6-.6,0-1.2.9-1.8.3-.6-.5-1.6.1-2.4.2-.1.5.3.6.6.9-1-.2-1.6.4-2.5.5-.8-.4-1.2-.6-2.2-.5,0,.3.2.7.4,1-.2,1-1,.5-1.7.5.2.4.3.8-.3.9-.1-.6-.7-.9-.9-.3.2.2.3.5.3.7-.8,0-1.7,0-2.5-.2,0,.4,0,.8-.4,1.2-.1.3.2.9.3,1.2.9,0,1.4-.2,2.2.3.7-.4.9-.5,1.7-.4.7-.3,1.2-.9,1.9-1.1.2-.3.4-.5.6-.5,0,1,1,.4,1.5.1.8.1.9-.7,1.8-.4.6-.9,1.5-.8,2.5-1,.6,0,1.2-.4,1.8-.1.6-.4.1-1,.9-1.3,1.1-.2,2.1-.4,3.1-1,2,0,3.6-1.5,5.6-1.6.1-.4.3-.6.6-.7.8.2,2.5.2,2.8-.9.8-.2,1.7-.3,2.4-.7.9-.5,1.9-.2,2.9-.6.3-.4.4-.8.7-1.2,1.2-.9,3.5,0,4.7-1.1.2-.3.3-.6.3-.9,1.2-.8,2.6-.2,3.9-1.1,1.2-1,3.1-.7,4.4-1.5,1.2-.4,2.3-.7,3.5-.9.4,0,.7-.4.8-.8,1-.4,2-.3,2.8-1,1.5-.3,3.2-.1,4.6-.8.7-.9,2.4-.5,3-1.4l.9.3ZM71,212.8c.5-.4.8-.3,1,.2-.1.6-1.2.6-1.6.3,0-.2.1-.4.5-.5h.1ZM70.4,202l.3.2v.3l-.3.2h-.4v-.4l.3-.2.1-.1ZM30.7,202.5h-.4v-.3h.4v.3ZM62.2,217.5c-.3.5-1.4.8-1.2,0,.3,0,.7,0,.9-.2-.5-1.2.7-1.6,1.5-1.1,0,.3,0,.7.3,1-.6,0-1.1-.1-1.5.4v-.1ZM74.2,305.2h-.2v.2h.2v-.2ZM21.4,209.8c0-.3-.2-.4-.5-.2,0,.3.1.3.5.2ZM287.7,45.7c0,.2-.1.5-.2.7.8,0,.1-.7,1-.9,1.3-.2.8,2.2,1.1,3-.3.2-1,.3-.9.8.3,1.1-.7,1.1-.4,2.1.2.3.3.5.4.8.6,0,.8,0,1.3-.4.4.2.7.5,1,.8l.2-.6c.5.1.9.2,1.4.2-.6-.7.5-1.2.5-2.2.9-.5,1.8.3,1.7,1.2-.4.7-1.1-.2-1.5.1.4.5.7,1.3.3,1.8-.4-.1-.7-.2-1.1-.3.4.7-.2,1.1.4,1.8l-.2.4c-.8.7-1.4-1.2-2.2-1,0,.5.4.7.5,1.2.2.4.3,1.5,1,1.1,1.4-.7,1.1,1.2,2.3,1v-.6c.7.4.7,1,1.4,1,0,.2,0,.4-.2.6.2.3.5.6.7.9v1c.2,0,.4-.2.6-.2,0,.2.2.4.2.6.2-.8.4-.8,1.2-.8.6-.3.3-.8.5-1.3.3-1,1.1-.4,1.4-1.4,1.2.5,2.2-1.2,3.6-.6,0-.6,0-1.6.8-1.1.3.3.2.6-.2,1,.3.1.5.3.7.6-.3,1-.9.7-1.5,1.3.4.4.4.7.4,1.2.6.4,1,.6,1.7.4.6-.8-.6-1-.2-1.7.8,0,.9.7,1.4.9.7,0,1.1-.3,1.7.3.2-.1.4-.3.6-.4.4.1.7.2,1,0,0-.3.1-.7.2-1,.4-.1.6.7.9.9.2-.2.4-.4.6-.5.2.2.4.3.6.5.4-.4.5-.5.2-1-.4-.4-.3-1.8.4-1.8.2.2.4.3.6.5,0-.5-.1-.9-.2-1.4.2-.4.8-.5.6-1-.2-.5.2-.8-.1-1.4.3-.1.5-.2.8-.3.3,0,.4.2.5.4.3-.4.4-.8.8-1.1-.8,0-.9-1-.2-1.1.7-.2.6-.8,1.4-.8-.4-.4,0-1.9.7-1.2l.8-.8c.2-.6-.7-.7-.7-1.3,0-1.2.7-.5,1-1.5.2,0,.4,0,.5.1,0-.6,0-.8-.5-1.1.2-.4.2-.5,0-.9.8-.5,1-1.8.8-2.6.8,0,1.1-.8.7-1.5-.3,0-.5.1-.7.3,0-.9.9.1.9-.9,0-.7.2-1,0-1.8.3,0,.7.2,1,.4.3-.2.5-.4.6-.7-1.2-.2-.4-1.1.3-1.2,0-1,.7-1.1.2-2.1h.6c-.1-1,.1-1.8.9-2.3.3-.1.4-.3.3-.7-.2,0-.4.1-.5.2,0-.4-.2-.8-.6-1.1,0-.2.2-.4.3-.6-.7,0-1.1,0-1.8.3-.8-.1-1.4-.7-2.1-.6.3-.2.5-.5.8-.8.2,0,.4.1.6.2.2-.9.8-.4.7-1.5,1.1-.1,1.4-1,1-1.9,0-.4.2-.8.3-1.2-1-1.1,0-1,.4-1.9-.1-.3-.3-.7-.5-1-2.3-1.2-4.1-.3-6.3.2,0,.2,0,.4.2.6-.5.4-1,.7-1.7.6,0,.6.5,1,.2,1.7-.5.2-1.2-.3-1.6-.5-.3.1-.5.2-.9,0,0,.6-.3.9-.7,1.2-.8,0-1.5.2-2.1-.4h-1v-2c.9.2,1.4-.3.8-1.1-1.2-.2-.3-.7-.6-1.3-.9-.6-1.9-1.1-3.1-.8-1.2.4-2.2-.3-3.3.2-.2.2-.4.4-.7.4-.1.7-.7.8-1.1,1.3s0,1-.2,1.6c-.6.4-.5,1-1.3,1.1-.3,1-.8,1.4-.6,2.5-.7.2-1,1.2-1.7,1.1-.7-.1-1.4,0-1.4.9.5-.3,1-.3.9.4-.9.4-.8.8-1.2,1.6-.3,0-.6.1-1,.2,0,.3.1.7.2,1-.5.8-.8,1.2-1.7,1.7.2.3.7.5.5.9-.8.3-1,.2-1.1,1.2-.7-.3-.8,0-1.4.2-.2.9.6,1.7-.8,1.9,0,.5,0,1-.1,1.4-.3,0-.6.1-.7.3.1.5.5,1.1,0,1.5-.4.5-1.1.7-1.5,1.2-.5.5-.2,1-.4,1.5-.4,0-.8.2-1,.5.3.6-.7,2,.6,2.1l.3.6ZM291.7,55.8v-.3h.3v.3h-.3ZM316.7,47.8h.2v.3h-.2v-.3ZM309.1,20.8c.6,0-.2,2.1-.7,1.3,0-.4.4-1,.7-1.3ZM306.5,53.7l.2-.5c.5,0,.7.8,1,1.1.2,0,.4-.1.6-.3v.8c-.3.3-.5.5-.7.8.2-.9-.9-1-1.4-.7.1.9-.1,1.4-1,.8-.8-1,0-2.5,1.4-2.1l-.1.1ZM295.1,48.5c.4-.1.8,1.1.6,1.3-.6.1-1-1-.6-1.3ZM294.3,49.7c-.6,0-.8,0-.7-.4.4-.3,1.6-.1.7.4ZM291.8,47.9c0,.6.2.8.9.7-.7.5-.7.6-.1,1.4-.1.7-.9.5-1.3,1-.4-.3-.6-.6-.7-.9.2-.2.5-.3.9-.3-.6-.8-.1-1.6-1.3-1.8-.3-1.1,1.2.5,1.6-.1h0ZM17.2,212.6c0-.3-.2-.4-.7-.3v.2l.4.2h.4l-.1-.1ZM5.4,234.6c-.1.7-.4,1-.6.1h-.5c-.9-.3-.7.8-.3,1.2-.4,0-.8,0-1.2.3-.2,0-.4-.1-.6-.2-.2.2-.4.5-.5.8.1.6.8.3,1.1,1,.7-.4.9-.5,1.7-.6,0-.2,0-.4-.2-.6.2-.5,1-.4,1.4-.6.4.5,1.4.6,1.8,0-.5-.8-1.1-1.4-2.1-1.5v.1ZM18.8,212.5c-.5,0-.7.2-.6.4.9.5,1.4-.5,1.8-1.1-.2-.2-.3-.5-.3-.8l.4-.2c.8.8,1.7,0,2.7.7.7-.3,1.1,0,1.2-.9,1,.7,2.9-.7,1.8-1.9h-.3c-.2.4-.2.9,0,1.4-.4.1-1.7.4-1.5-.3.4,0,.7,0,1.1-.1.2-.8-1-.3-1.4-.2-.4.2-.7,0-1.1,0-.4.3-.5.8-.9,1.1-.7-.4-.5-.3-1.1.1-.7,0-1.9-.5-1.9.6l-.7.2c.2.3,1.2.4,1,.9l-.2.1ZM22.7,210.4c.7-.3,1,.5.3.7-.5-.2-.6-.4-.3-.7ZM16.5,213.4c0-.4-.1-.5-.6-.3,0,.3.2.4.6.3ZM117.1,275c0-.3.2-.6.3-.9-.5,0-.8-.3-.9-.7-.8-.2,0,.6-.2,1-.4.7-.6.3-1.1.1-.2.7-.7.6-1.1,1.1,0,.2,0,.4.2.6-.6-.1-1.4,0-.8.8l.2.6c-.3.2-.6,0-1.1-.5-1.1.4-.5.8-.5,1.6-.6.1-.9-.6-1.4-.3,0,.4.2.7.3,1.1-.9-.7-1.1-.4-2.1-.4,0-.4.1-.8.1-1.2-.8-.2-.6-.2-.8-.9-.1.8-.2,1.1.3,1.8-.2.4-.3.8-.4,1.2.4.2.9.2.9.7-.3.2-1.4-.6-1.6-.8.2-1.1-.7-1.4-1.3-2-.4,0-.5.4-.5,1l-.3.2c-1-1-.7.3-1.9-.3,0-.9,1.2-.6,1.4-1.3-.7,0-.9.6-1.6.4,0,.7,0,1-.8,1.2,0,.3-.1.6,0,.9.5.3,1,.3.9,1-.4-.3-.8-1.1-1.4-.8-.4.7-1.1.7-1.7,1.1-1,1-2.2.8-2.7,2.3-.4.1-.9.3-1.4.4-.2-.1-.4-.2-.5-.4,0,.8-.4.8-1,1.2-.2,0-.4-.2-.6-.4.3,1.5-.9,1.3-1.5,2.3-1.1.2-1.1,1.3-2.1,1.1-.6-.1-1.2-1.1-.1-1.1-.1-.2-.2-.4-.2-.5.6-.5,1.2.2,1.1-.8-.4-.4-1.2,0-1.7-.1v-.9c0,.4.3.7.6.8.7-.6,1.1-.1,1.8-.3,0-.2-.1-.4-.2-.6.2-.4.8-.6,1.1-.8.1-.3.2-.6.3-.8.9-.3,1.1-.7,2.2-.5-.3-.2-.9,0-1.2-.4-1-1,.3-2.1,0-3.1-.7.6-.4,1.5-.7,2.1-.7.1-1-1.6-.9-2.1h-.1c0,.5,0,.9-.1,1.3-.3.1-.5,0-.6-.6-.4.3-.9.5-1.3.8h-1.4c-.6.6-1.6,1.2-1.8,2.1-.7,0-.4-.4-.9.2.2.2.3.4.4.6-.5.5-.6,1-1.3,1.2,0,.2,0,.4.1.7-.3,0-.7-.2-1-.3l-.2.6c-.9.9-1.5,1.9-2.7,2.5v1c-.4,0-.7,0-1,.1,0,.9-.8.6-1.3,1.4-.9.3-1.1,1.1-2.2,1.3,0-.2-.1-.4-.2-.6,0,1.2-.8.3-1.1,1.3-.3.8-2.2.8-2.1,1.8.4,0,.7.3.8.6-.1.4-.4.7-.7,1,.5.7.6,0,1.2,0,.1-.4.3-.8.4-1.2.7.4,1.2.3,1.1,1.3.5-.2.4-.9,1-1.1.8-.2,1.3.5,2.1.3v-.5c.5-.3,1.2.2,1.8,0,.4,0,.7.1.8.6-.4.5-1.2.6-1.7,1.1-.2.3-.6.5-.9.6,0,1.9-1.6,1.9-2.6,3.1-.9,0-1.2.2-1.1,1.2-.6-.2-1.6-.2-2,.4-.2.6.2,1-.4,1.5.2.3.2.5,0,.8.3.5.1,1.1.7,1.2.3,0,.6,0,.9.1-.5.9.3.6-.3,1.5.6.3.7-.5,1.3,0,.8-.4,1-.4.6-1.3.3-.2,1-.7,1.3-.3.3.4.4.9.7,1.3-.3.7,0,1.1,0,1.8-.4.4-.9.6-1.2,1.1-.8.2-1.5,0-2.1.6-.2.4-.2,1-.8,1.1-.7,0-1.2.6-1.7,1.2,0,.5.4.9.3,1.3-.5.5-.4.9-.4,1.6-.4.6-1,.8-1.5,1.3,0,.7.3,1-.5,1.2.1.5.1.7,0,1.2.3.4.9.7,1.4.7,0-.5.5-1.2.2-1.7.9-.3,1.7-1,2.7-1.2.7-.3.3-1.2.4-1.8.3-.4.7-.8,1-1.1.7.3.4.1,1.1,0,.5-.1.9.4,1.2,0,.7-.3.5.9,1.1,1,.7.2.9.8.9,1.5h.6c-.1-.3-.2-.5-.4-.7.5-.6.5-.4,1.1-.1,0-.5.2-.6.5-.5,0,.4.2.6.3.6l.2-.6c.2,0,.4.2.6.6,0-.7.2-.9.6-1.4-.3-.4-.4-.7-.4-1.1.5.2.9.3,1.3-.1,0-.4.3-.7.5-.9.3.1.5.4.6.7.6.1.9-.6,1.2.2-.4.8-1.5,1.1-.5,1.9,0,.4-.2.6-.7.6.5.4.4.6.4,1.2.2.4.7,1,1.1,1.1.6-.1-.1-.6,0-.9.9-.3.5,1.1.9,1.4,0-.6.4-.9.6-1.4-.2-.4-.4-.7-.4-1.1.3,0,.5.2.8.5,1-.2.5-.9.5-1.6,0,.2.2.4.3.6.7-.2.6-.1,1.1.3.4,0,.7-.2,1-.4.5-.1,1.1.6,1.6.5,0-.5.1-.8.5-1.1,0-.2,0-.4-.2-.5.9-.2,1-.9,1.8-1.2.2.2.4.3.6.5.1-.8.5-1.3,1.4-1.3v-1.1c.3-.1.5-.3.8-.5,0-.3.1-.6.1-.9.5,0,.9-.4,1.3-.6,0-.2,0-.4-.2-.6.6,0,.8-.2.8-.7.5,0,.8-.2.8-.6l-.6-.6c.9.2,1.1-.2,1.6-.7.8.6.7-.5.9-1,.2-.2.5-.4.9-.4.2-.3.2-.6.1-1,.2.1.4.3.6.4.9-.3.6-.7.2-1.2.2-.2.5-.2.9-.3-.1-.3-.2-.6-.1-.9.3.1.6.2.9.2,0-.2,0-.4-.1-.6.2-.3.4-.6.7-.8.2,0,.4.1.6.2,0-.8.4-1.7.7-2.4-.8-1.1-1.3.7-2.5-.1v-.4c.6-.2.9-.8,1.5-.9.5.4,1.2.4,1.8.3.1-.8-.5-.2-.8-.8-.2-.2-.2-.5,0-.8-.8.2-1.3-.2-1.5-.9.3-.6.7-.9,1.3-1.2.5-.5.7-1,1.4-1.3,0-.9.8-.9.2-1.7.7-.7.9.4.8.9h.1c0-.6,0-1.1.3-1.6.5-.5,1.1-.2,1.6-.7-.1-.2-.2-.4-.4-.5,0,.9-1,1.1-1.5.5-.2,0-.3,0-.5.1-.1-.6-.9-1-.5-1.5l.6-.2c.1-.5-.6-.8-.8-1.2.1.5-.4,1.7-.9,1.9l-.6-.3c-.8.5-1.3.9-1.8,1.6-.4-.1-.6-.1-1,0-.5,0-.4-.4-1,0-.1-.1-.3-.2-.4-.4.7-.4,1.3-.9,1.4-1.7.6-.3,1.2-.4,1.8-.6,0-.2,0-.5-.2-.7-.2-.6,1-1.4,1.4-1.6h1.4c-.2-.4-.5-.7-.5-1.2.7-.3,1.3-.1,2-.3,0-.3-.1-.6-.2-1,.4-.2,1.4.1,1.5-.4,0-.7-.7-.7-.6-1.3.3,0,.6-.2.8-.4,0,.5.2.7.6.6.6-.2,0-1,0-1.4.4,0,.7,0,1-.2.2-.5.2-.9.7-1.2,0-.2-.1-.4-.2-.6.2-.3.4-.5.7-.7.6.3.7,1,1.4.9,0-.5-.3-.8-.6-1.1l.1-.7ZM79,293.5v-.3h.2v.3h-.2ZM75,304.2l-.3.2-.3-.2v-.4l.3-.2.4.2v.3l-.1.1ZM81.3,314.3c-.6-.7-1.3-.1-1.2-1.1.3,0,.5.1.8.3.3-.1.5-.3.8-.5.9.2.4,1.3-.3,1.3h-.1ZM87.4,311.2h-.4l-.2-.3.2-.3h.3l.2.3-.2.4.1-.1ZM91.8,309.5c0,.5-.3,1.6-.9,1.6-.5,0-.6.4-.9.7l-.2-.6c-1.1-.1-.1,1.1-1.2,1.3-1.1.2-.9-.7-.2-1.1,0-.3.2-.6.4-.9-.9.4-2-.8-1.4-1.6.5-.4,1.3-.4,1.9-.4.6,1.1-.8.6-.6,1.3.1-.2,1.5,0,1.6,0v-1c.5-.6,1.2-.6,1.9-.6.4.8.3.9-.5,1.1l.1.2ZM93.3,308c-.2-.7-.9-.6-1.2-1.2.5,0,.9,0,1.2-.4.7.5.6,1.2,0,1.6ZM96.3,304.3c-.2.5-.3.9-.6,1.4-.9.2-.8,0-1.2.8,0-.5-.1-1.1,0-1.6.8-.4,1.3-.9,2.1-1.2.4,0,.6.4.6.8-.3,0-.7-.1-1-.2h.1ZM102.7,290h-.2v-.2h.2v.2ZM103.5,298.8h-.2v-.2h.2v.2ZM108.1,297.4c.2.4-.7,1.1-1,.7-.2-.5.6-1,1-.7ZM109.5,287.5c.6-.4.6.6.8.9.3.4-.4,1.1-.8,1.1v-2.1.1ZM105.2,300.5c.6-.3.8.5.2.6-.3,0-.3-.2-.2-.6ZM103.7,279c.4-.3.7-.2.8.3-.2.7-.9.2-.8-.3ZM191.5,78.8c0-.4.1-.8.1-1.3-.5,0-.7.3-1.2.5v.8c.5.2.9.4,1.3.8.1-.2,0-.5-.1-.8h-.1ZM220,49.4v.3l.3.2.3-.2c0-.4-.2-.5-.6-.3h0ZM166.3,83.6h-.2v.2h.2v-.2ZM164,81.6v-.3l-.3-.2h-.3c0,.6.2.8.6.6v-.1ZM162.5,82.2c.5-.2.2-1-.3-.8-.2.4-.1.6.3.8ZM301.8,62.6c.4.2.9-.1,1.3-.2.2.5.4.8.9.3.6-.5,0-.9-.2-1.5h-1.2c-.2.4-1,.8-.8,1.3v.1ZM206.7,28.4c.4.5.4.9.4,1.5-.4.9,0,1.5.2,2.4-.4,1.1-.2,2,0,3.1-.2,1.4-.6,2.8-.3,4.2-.2.9,0,1.8.3,2.7-.6,1.3.3,2.1,0,3.5,0,1.2-.3,2.7.8,3.5-.1.2-.4.4-.8.5-.3.6.4,1.6.6,2.2-.4.8-.2,2,.7,2.4.2.7-.4,1.2-.1,1.9-.4.5-.5.6-.4,1.3.7,0,.8.3,1.3.5.2-.2.3-.5.3-.9.9-1,1-2,.4-3.2-.4-.4-.9-.4-.9-1,.2.2.4.3.6.4.6-.4.8-1.1,1.3-1.6.5-.6.5-.9,0-1.5.1-.4,0-.8,0-1.2.6-.2,1.7.3,2-.3-.9-.8-.1-2.8.4-3.7-.2-.7-.9-.3-1.2-.9.9-.1,1.2-1,.8-1.7.1-.3.3-.5.5-.8l-.2-.4c-.3,0-.5.1-.7.3v-1.9c.7-.1.8.4.7,1-.1.7.3.9.7,1.4,0,.8.2,1.1-.5,1.7.4,1,1.4.9,2.1,1.7v1.6c-.3-.3-.5-.7-1-.6-.3.5.3,2.1,1,2.1l-.6.2c0,.3.2.5.5.6-.4.1-.7.4-.8.8.6-.1,1.5,0,.9.8l-.6.2c0,.4.7.7.9,1,.3-.2.6-.4.8-.7,0-.2-.2-.5-.3-.7.3-.4.3-1.4.8-1.5.7,0,.8.9,1.4.7,0-.5-.6-.5-.6-1.1.6,0,1.9-.9,2.3-.4.6.5-.6.1-.4.8,1.2,0,.5,1.7,1.3,2.2l.4.3c-.3.6-.5.4-1,.3-.9,1.4,1.3,2,.3,3.4,0,1,.7.5,1.1,1.3.3.5-.3,1.1-.5,1.6.9.6,2.1.2,1.1-.9,1.1-.2.3-.9-.1-1.3-.7-.7.4-.8.2-1.7,1.1-.3,1-.9.6-1.8-.2,0-.5,0-.7.2v-.7c.5-.2.9-.5,1.4-.6,0-.5.1-.9,0-1.4.2.1.4.2.7.2.4-.5,0-.9-.2-1.4.3-.4.4-.8.4-1.3.3-.1.5-.2.8-.3v-.9c.3-.5.4-.5.3-1,.4-.3.6-.5.6-.9-.5-.2-.7-.4-.7-.7.5-.2.8-.4,1.3-.2,0-.3,0-.6-.2-.9l.6-.2c0-.2-.1-.4-.2-.6.7-.5,1-.9.9-1.8l.5-.2c-.7-1.6,1.3-3.5.2-5,.1-.8,0-1.5.4-2.2-.5-.3-1.1-.7-.7-1.3.4-.7.2-1.4.4-2.2-.7-.5.1-2.1-.2-2.8.1-.2.3-.4.4-.5-.8-.8-.3-2-.4-3.1.8-.5-.1-.5.4-1.2l-.6-.6c0-.2,0-.4.2-.6-1.3-1,.5-2.7-.8-3.8.1-.2.3-.4.4-.5-.4-1.1.5-1.2.3-2.3.2,0,.3-.2.5-.3-1.2-.2-.7-.9-.8-1.8.1-.2.3-.4.4-.6-.3-.1-.6-.3-.8-.5l.4-.6c-.6-.6-.7-1.3-.8-2.1-.5-1.1.7-1.8.4-2.9-.3,0-.6-.1-.9-.2,0-.9,1.1-1.1.9-1.7-.6-.4-.5-1.2-1-1.6-.8.4-1.6.5-2.4.9-.4,0-.7-.5-1-.6-.5,0-.7.6-1.2.6-.7.1-.3.7-1,.9,0,.5.7.6.6,1.1-.3.2-.6.2-1,.2-.1,1.2.9,1.3.3,2.6h-.7c1.4.2.2.9,1.3,1.2,0,1.1-1.1,1.2-.2,2.2v.4c-.4.2-.8.2-1.2,0v.2h.7c.2.8.2,1.5.6,2.2-.5,0-.7.2-.7.6.6.7,0,.7.4,1.4h-.4c0-.9-.7-1-1.2-1.6v-1.4c-.6-.6-.4-1.1-.4-1.9,0-.7,1-1.4.8-2.2-.5-.2-.8-.5-.9-1,1.3-1.2,0-1.3,0-2.5-.7-.5-.9-1.1-1.8-1.1-.4.3-.9.5-1.3.8-.5-.3-1.4-.9-1.9-.4-.9.8-2.2,1.8-1.9,3.2-.7.8-.7,1.2-.1,2.2.2.7,0,.7-.6.9.2,1,.8,1.5.6,2.6h-.4c-.1-1.1.3-1.6-.8-2.3.4-.4,0-1.3-.4-1.5.6-.3.6-1.9,0-2.3,0-.6.3-1.6-.6-1.5-.2,0-.3,0-.3-.4.2.1.4.2.7.3,0-.9,1.5-1.3.7-2-.2,0-.4.1-.7.2-.3-.2-.4-.5-.4-.8.4-.3.7-.6.9-1-.2-.4-.5-.7-.9-.9.3-.4.3-.7.2-.9-1,0-1.5.1-2.1.9-.7.5-1.1.9-1.1,1.7.3.5.8.4.7,1-.3,0-.7,0-1,.1.1.4.2.7,0,1.1.3.5.5,1.3-.3,1.5-.1.4.4.7.4,1.1.3.1.5.2.8.3-.9,1-2,1.7-1.9,3.2-1.1,1.1.3,2.3-.4,3.2-.5,1.1,1.1,1.6.4,2.7-.2.9-1,1.3-.6,2.2.9.7.3,1.6,0,2.4,0,.7.2,1.5.2,2.2-.7.7,0,1.6.2,2.4,0,1.1-1,1.6-.6,2.7l1.4-.3ZM226.8,42.6c-.4.1-.6,0-.5-.2.4-.2.6-.1.5.2ZM225.5,43.6c.6-.4.9.6.3.7-.4,0-.5-.2-.3-.7ZM225.1,44.7c.4-.2.6-.1.6.2l-.3.2h-.3v-.4h0ZM304.8,61.5c.3,0,.7-.7.6-1-1.1.8-1.2-.6-2.1-.4,0,.5.7.5,1,.7.2.2.3.5.5.7ZM311.4,120.7c.1.5.3.7.6.6.8-.7-1.2-1.7-.6-.6ZM290.8,56.6c-.3,0-.5.2-.6.5.4.5.2,1,.7,1.2s.7,0,.9-.4c-.4,0-.7-.1-1-.3.1-.4.7-.8,0-1ZM161.6,83c.1-.4,0-.8-.1-1.2-.6,0-1-.6-1.5-.5.5.7,1.2,1,1.7,1.6l-.1.1ZM159.8,85c.2-.5,0-.7-.3-.6-.2.5,0,.7.3.6ZM120.3,15.9c.3,0,.6-.1.9-.3.1-.7.5-1.2.3-2-.4-.5-1-1-1.6-.4.3.5.4.7.3,1.3.7.8-.3.7-.7,1-.2.3-.3.6-.4.9.5.5,1.1,0,1.2-.5ZM118.2,13.5c.9-.4-.2-.7-.6-.3,0,.2.2.3.6.3ZM118,14.3c0,.3.2.3.6.2,0-.3-.1-.4-.6-.2ZM104.2,13.2c0,.9.7,1,.3,2.1.9.1.4.9.8,1.5.2,0,.4,0,.5-.2,0,1,.4,1.2.9,1.8,0,.6-.7,1,.3,1.2.1.4-.9.3-.3.7,1,.3.7,1,1.5,1.2.3.6-.5.7,0,1.2,0,.5-.7.8-.2,1.4.2.2.2.5.2.9.4.6.8,1,1.5.9,0,.7,0,1.4.1,2.1-.3.1-.7.2-1.1.1v.2c.4,0,.7,0,1.1.1,0,.6-.6.9-1.1.6-.9.2.5,1,.1,1.6-.2.6.4,1,.9,1.1.8-.2.2-1.6,1.1-1.3.2.3.5.5.7.8-.3.6.2,1.1,0,1.8.2.6.9.2.8,1-.7.2-2.4-.5-2,.8.5,0,1,0,1.4.1.2.9.2.8,1,.6.3.2.5.5.3.9-.9.1-.9.3-.8,1.1-.9,0-1.6.4-2.4.2,0,.2.2.5.3.7-.8,0-.4-.7-1.1-.8-.4.2-1.1.7-.7,1.1.2.5.5.3.9.2v1.2c.6.8.9,1.9,1.1,2.8.8,0,.5.8.8,1.4.6-.2,1.6-.3,2.2.1.5.4,0,.7,0,1.2.3.3.5.7.6,1.2.8.3.3.9,1.4.9-.2.6,0,.5.2,1,0,.6.2.9.4,1.4h.5l.3.5c.9-.2,1,.3,1.6.9,0,.4,0,.8-.2,1.2-.2.1-.5.2-.7.2.9.2.6.7.1,1.2.8,0,.2-.7,1-.9.5.1.5.4.2.8.6.3,1.4.7,1.1,1.6.5-.4,1,0,1.2.5.2.4.6.7.6,1.2-.1.3-.2.7-.2,1,.4.3.8-.3,1.2,0,.2.6,1,1.2,1.6.8.3.2.8,1.2.8,1.6-.4,0-.7,0-.9.1,0,.3.1.5.4.7.3,0,.6-.1.9-.1.2.6.4,1,1,1.3.2,0,.4-.1.7-.2,0,.3,0,.5-.3.6-.6.2-.2.8.1,1.1.6,0,.9-.3,1.3.2-.3.6,0,.8,0,1.4,1,.2.4-.9.5-1.4h.1c0,.6.4,2.3,1.3,2.1.8-1.5-.5-1.6-.9-2.8.3-.8-.6-1.7-.5-2.5,0-.8-1.8-1.1-.9-1.8.5.1.9.4,1.4.5.5-.2.5-.7,1.2-.5,0,.4,0,.7.1,1,.7-.2,1,0,1.8-.2-.2.9.6.9.3,1.8.3.5.5.8.5,1.4.4.5,1,1.1,1.6,1.3.7-.6.2-.8.1-1.5.4,0,1-.4,1.3-.2,0,.6.3,1.2.7,1.6h1.1c.1.5.2,1.2.9,1.1l.2-.6c1-.2,0,1.5.9,1.7l.6.2c.5.7,1.3.7,1.6,1.5.1.9,0,1.7.5,2.5.7.5,1.5.4,1.9,1.2.3.3.4,1,.9.8.2-.7.7-.7,1.1-1.2.1-.4-.6-.5-.5-.9l.5-.2c-.4-.6-.3-1.2-.8-1.6-.2,0-.3.1-.5.2-.2-.3,0-.6.3-1.1-.2-.9-.7-1.5-1.4-2.1,0-.7.4-1.2-.5-1.6-.7,0-.9-.4-1.4-.8.4-.4,1.2-.7.6-1.4-1,0-1.1-.2-1.7-.9-.2-.6,1.1-1,.9-1.7-.1-.6-.4-1-.8-1.4,0-.9-.7-.9-1.2-1.5.2-.2.2-.5,0-.8.5,0,.7-.2.6-.6-.5-.2-.8-.3-1.2-.7s-1.1-.8-1.1-1.5c.9-.1,1.3.3,1.4,1.1.3.2.6.2,1,.1-.1.5,0,1,0,1.4.5.1,1,.3,1.5.5-.4-.1-.8,0-1.1,0,.3,1,1.1,2,2.2,2.2v1.8c.3.6.9,1.1,1.1,1.7,0,.3.2.5.4.5.1-.3.2-.6.2-1,.5.5.7,1.4,1.3,2-.3,1.1.4,1.4.8,2.4.3-.6,0-1.3.7-1.5-.7-1.2.6-1.7.2-2.6-.2,0-.4.1-.6.2-.3-.1-.5-.3-.8-.4h1.6c.3.2.5.5.7.7-.3.9.7,2,1,2.9.9.3,1.2.8,1.3,1.8.4-.1.6,0,1,.1.2-.3.4-.7.5-1.1-.3-.8-.9-1.5-1.4-2.3.4-.5.4-1.1.3-1.7-.7-.6-1.2-1.3-1.2-2.3-.6-.6-1.1-.9-1.9-1.1-.2-.5-.5-.9-.5-1.4,0-.7-.6-.7-.9-1.1-.4-.7-.4-1.4-.5-2.2-1.4-.8-.3-2.2-1.7-3-.7-.5-.5-1.1-.3-1.8.2-.4-.4-1-.4-1.5.6-.6.4-1.3.3-2-.2,0-.5.2-.7.3-.2-.6-.2-1.1.3-1.5.3-.3,0-1,.2-1.4h-.8c-.3.7-.6.9-.9.7,0-.2.1-.5.2-.7-.2-.3-.5-.4-1-.5-.2-.6,0-1.3-.3-1.8.6-.5.9.8,1.7.3.3-.7.3-1.2-.5-1.3,0-.9,0-1.4-.8-1.9.1-.5.3-1.1.2-1.6-.5-.2-.9-.4-1.4-.5,0-.4-.1-.7-.3-.9-.5-.4,0-1.2-.2-1.6-.3,0-.5-.2-.8-.5-.2,0-.4.1-.6.2-.2-.8,0-.9-.7-1.5,0-.2,0-.4.2-.6-.2-.2-.3-.5-.4-.8-.2.1-.3.2-.5.2-.2-.6-.2-1.1-.2-1.7-1.1,0-1.5-1.3-1.6-2.3-.5,0-.9-.5-1.4-.5-.4-.8,0-1,.7-.6.2-.8-.5-.3-.8-.9-.4-.6-1.2-.5-1.7-1-.2-.6.2-1.1.2-1.7-.7-.4-.7-.9-.7-1.6-.9.4-.8.2-1.7-.2-1,0-2,1-2.9.6-.6-.2-.8.4-1.4.2-.2-.2-.4-.4-.4-.6.2-1.1-.9-1.8-.9-3-.2,0-.4,0-.6.1-.2-.2-.5-.3-.7-.4-.3-.5-.5-1.3-1-1.7-.6,0,0,1.1-.4,1.5-.4,0-.9-.8-1,0,0,.5-1,.3-1.2.8-.1.3,0,.5.5.5-.6,1,.7.9,1.2.3,0,.6,0,1.2-.9,1.2v.3c.8,0,1,1.1.8,1.8,0,.5.6.6,1,.7,0,.4-.2.7-.4,1.1-.2,0-.4-.1-.5-.5-.2,0-.3.1-.5.2-.5-1.4-1.4,0-2.4-.7-.5-.3-1,0-1.3-.6.2-.2.2-.5,0-.8,1.1-.3.4-.9-.1-1.4,0-.2.1-.4.2-.6-.5-.5-.9-.3-1.5-.3-.5-.4-1-.4-1.5-.6-.7.3-1.4.2-2.2.3-.3-.4-.4-1.5-.9-1.4-.3.9-.7,1.1-.4,2.2-.3.3-.7.4-1.1.4.7-1.2-.7-1.4,0-2.5.4.2.8.2,1.1.2.2-.8.8-.3.9-1.1-.3-.5-1,0-1.5-.6-.4.1-.8.5-1.1.8-.5-.4-.9-.3-1.4-.6-.3-.7-.4-1.3-1.3-1.4,0-.2.2-.3.2-.5-.7-.3-.7-.8-.9-1.4-.7-.2-1-1-1.6-1.2-.2.2-.7.5-.7.8.9.4,0,1,1.2,1.2l-.4.2ZM110.2,41.3c.4-.2.6-.2.6.2-.4.1-.6,0-.6-.2ZM111.6,42.6c-.3,0-.6,0-1,.1,0-.2.1-.5.5-.9,0-.5.2-.7.5-.6v1.4ZM142.6,69.4h.2v.3h-.2v-.3ZM143.7,46.6h.2c.3.7-.5.8-.2,0ZM143.6,44.2v.3h-.3v-.3h.3ZM131.2,23.3c-.4.1-.6,0-.5-.2.4-.2.6,0,.5.2ZM130.3,24.3h.2v.2h-.2v-.2ZM129.4,58h.3v.5l-.3.2-.3-.2v-.3l.3-.2ZM128.3,58.5c.3-.1,1,.8.4.8-.3-.1-.5-.4-.4-.8ZM125.2,24.6h.2v.2h-.2v-.2ZM116.3,53.5c-.2,0-.4.2-.6.2h.8c0-.5.2-.7.6-.8h-1c.1.2.2.4.2.6ZM155.3,89.4c-.1.5-.2,1.3.5,1,.2-.5.2-1.4-.5-1ZM151.5,87.1c0,.2.2.4.2.7-.3.3-.6.2-1-.2-.3.3-.5.4-.8.4.1.2.2.4.2.6-.6.6-.7-.3-1.4-.3.4.4.4.8.5,1.3-.3.3-1.2.7-1,1.2.4.3,1,.2,1.4.3.7-.7,1.5-.6,1.8-1.6.6-.3.8,0,1.3.1,0-.4.3-.8.5-1.1.3.1.6.2.9.2,0-.4.2-.8.3-1.3.6,0,.3,1,.4,1.3.4-.5-.1-1.1.9-1.2-.3-.5-.5-1.1-.2-1.7.6.2,1.7.5,2.1-.2-.4-.2-.6-.4-.6-.6.4-.2.7-.3,1.1,0,0,.2.1.4.2.7.3-.8.9-1.6,0-2.4-.2,0-.4.1-.6.2-.1-.3-.2-.6-.2-.9h-.4c0,1.2-1.2.7-.6,1.8-.3.2-.6.2-1,0-.7.7-1.7,1.3-2.5,1.7-.1.6,0,1.1-.7,1.4-.3-.3-.6-.5-1-.5l.2.1ZM154.8,85.6c.6-.2.7,1.2,0,1-.2-.3-.3-.6,0-1ZM154,92v-.3h-.3v.3h.3ZM147.4,50.9h-.2c-.2.7.5.7.2,0Z" style="fill:#f0bf60;"/><path d="M175.8,190c2.6.4,5.9,1.5,7.4,3.9.4.5,1,.8,1.3,1.4.2.5.2,1,.4,1.5.3,1-.9,2-.6,3,.2,0,.4-.2.5-.6.4,1.2-.5,2.3-1.2,3.1-1.1,1.6-2.5,2.9-4,4-1.2,1.4-2.8,1.6-4.5,2.1-2.1,1.7-4.7,2.5-7.3,3.1-1.9.3-3.6,1.3-5.6,1.5-4.6.9-8.7,2.6-13.5,2.8-1.6-.2-3.2-.5-4.6-1.2-1.5-.2-2.8-.1-3.9-1.2-1-1.1-2.3-1.7-3.2-3,0-1.2-.4-2.2,0-3.3-.2-.5-.6-.8-.4-1.4,1.2-2.1,2.8-3.8,4.6-5.4,2.1-1.5,4.3-2.7,6.4-3.9,4.8-2.6,10.2-4.3,15.4-5.6.4,0,.7,0,.8-.3,1.4.1,2.7-.5,4.1-.5,2.7-.1,5.4-1.3,7.9-.1v.1ZM263.3,180.1c2.5-.2,5-.5,7.5-.1h6.6c1.8.5,3.6.2,5.4.6,1.6.3,3.2.4,4.8.7,1.1.4,2.3.7,3.4,1.2,1.8,1.2,4.3,2,5.7,3.6.9,1.1.4,2.5,1.3,3.6.5,2.4-.7,4.3-2.2,6.1l-.6.2c.1.1.2.3.2.5-1.5,1.1-3.1,2.1-4.7,3-1.9,1.1-4.3,1.5-6.4,2-1.8.4-3.6.2-5.4.7-5.8.4-11.6,0-17.3-1.2-2.2-.1-4.3-.8-6.4-1.5-1.9-1-4.1-2-5.5-3.7-.4-.5-.6-.6-1.2-.7-.9-.7-.8-1.6-1.3-2.5-.2-.8-1-2.2-.2-2.9.7-.6.3-1.5.8-2.3.8-1.8,2.5-2.4,4.1-3.2,2.7-1.4,5.9-3.1,9-3.2.7-.6,1.6-.4,2.5-.7l-.1-.2Z" style="fill:#fe9191;"/><path d="M179.2,228.1c.3,0,.4.2.2.7-.3,0-.4-.2-.2-.7ZM248.8,208.3c.9.3,1.5,1,2.5,1,.7,0,1.4,1.1,1.3,1.7-.2.8-.3,1.6,0,2.3,0,.6-.3,1.1-.3,1.8.9-.3,0-2.2.9-2.1.4,1.6,0,3.6.2,5.4-.2,1.5-.4,2.9-.4,4.4-1.8,5.6-3.1,11.2-4.9,16.8-.2.2-.3.4-.3.7-.7,1.1-1.1,2.4-2.1,3.3-1.7,2-3.3,3.8-4.9,5.9-.8.7-1.4,1.5-2.2,2-1.4,1.6-3.1,2.8-5.2,3.3-1.3.7-2.7.9-4.2,1.2-1.7.5-3.5,1.1-5.2,1.5-2.7,0-6.2-.2-8.9-.1-2.4,0-4.1-1.3-6.5-2-1.8-.8-3.6-1.3-5.2-2.4-1.6-.3-2.3-1.5-3.7-2.1-1.1-.5-1.9-1.5-3-2-1.3-1.1-2.9-1.6-4.1-2.8-2.2-.9-3.8-2.6-5.3-4.4-.4-.8-1-1.2-1.7-1.7-1.5-2.3-3.4-4.1-4.6-6.6-.7-1-1.1-2.1-1.4-3.2,0-.3.3-.5.6-.6-.3-.7-.8-1.3-.7-2.1,0-.9-.2-2.1.2-3,.3,0,.6.1.8.5.7,0,1-.3,1.6-.5.2-.6-.5-.7-.3-1.3.3-.5.8-.3,1-1,.7,0,1.1-.1,1.1.8.4-.4,1.7.2,1.5.8.2-.2.3-.3.6-.5,1.6.8,1.2,2.2,2.2,3.4.4.5.4,1,.9,1.4,1.2.8,1.7,2,2.7,3.1.7,1.5,2,2.2,3,3.5.8,1,1.8,1.8,2.8,2.5,1.9,1,3.5,2.4,5.4,3.4,2.2.9,4.2,2.2,6.5,3.1,1.6.4,3,.8,4.6.8,2.9.8,5.5.2,8.5.3,1.6-.1,3.3-.7,4.9-1.1,1.9-.9,3.6-2.4,5-3.9,1.6-1,2.6-2.9,3.6-4.5.5-.4.5-1.1.9-1.6.5-.8,1-1.5,1.3-2.5,1.3-1.8,2.6-3.7,3.4-5.8.7-1,.6-2.4,1-3.6.1-1.7.4-3.3.8-5-.4-1.8,0-3.5.7-5.1.5-.4.2-1.9,1-1.7,0,.7,1,1.1.9.2-.2-1.1,0-1.2,1.1-1.4.4-.5.6-.9,1.4-.6l.2.1ZM167.5,144.8c2.9-.2,5.7-.4,8.5.6,1.3.4,2.7.8,3.6,1.9,1.2.9,2.8,1,3.8,2.4,1.1,1.5,2.1,3.1,3,4.7.5,1.5,1.4,2.7,1.7,4.2.5,1.1.5,2.3,1,3.5.9,2.2.5,4.5.4,6.9-.4,1.3-.5,3-1.2,4.2-1.2.3-2.2,1.1-3.4,1.5-.3-.3-.7-.4-1.2-.3-.8-.1-.8-.7-1.2-1.2-.5-.4-1.1.6-1.5,0-.6-.7-1.1-1.4-1.2-2.4-.6-1.4,0-3.1-.4-4.6-.6-2.6-1.3-5.3-2.5-7.7-.6-1.4-1.7-2.2-3-2.9-1.5-.4-3.2-.2-4.7,0-1.7,1-3.7,1.4-5.3,2.8-1.6,1.5-2.6,3.7-2.7,5.9.3,1.9.2,3.8,0,5.8-.1,1.6.5,2.8.8,4.2-.1.3-.3.5-.5.7.2.7-.4.9-.3,1.6,0,.4-.5.7-.7,1-.2-.2-.4-.3-.6-.5-.5.5-.9,1.1-1.3,1.7-.7.2-1.5.2-2.2.3-.3-.2-.7-.4-1-.7,0-.4-.3-.6-.5-.7-.7.5-1.1.8-1.2-.3-.9-.2-.9-1.3-1.4-1.9-.6-3.3-.6-6.7-.5-10,.5-2,.2-4.2.7-6.2.4-.7.5-1.5.7-2.3.2-1.2,1.3-2.4,1.9-3.3,1.2-2.6,2.8-4.9,5.6-6,1.5-.9,2.9-1.7,4.6-2.3.8-.2,1.4-.7,2.3-.8l-.1.2ZM261.9,137.2c2.4.2,4.9,0,7.3,0,3.2,1.1,6.1,1.9,8.7,4.2,1.2,1.6,2.5,2.9,2.9,4.9,1.1,1.6,1.4,3.3,1.7,5.2,1,1.9,1.4,3.9,1.9,6-.2,2.6.2,4.8-.5,7.3-.4,1.5-1.4,2.7-2.9,3.3-.3,1.4-1.2.5-2.1.9-.6-.6-1.2-.2-1.7-.9-1.3,0-1.9-.7-2.5-1.7,0-.6.2-1.4-.2-1.9-.2,0-.4.1-.6.2-.2-2.2.1-4.6,0-6.8-.5-1.3-.2-2.9-.7-4.2-.4-2-2.1-3.7-3.4-5.1-.6-.6-1.1-1.5-2-1.5-1,.2-2,0-2.9.6-1.4.3-2.8.7-4,1.4-3.4,3.6-4.9,9-5.4,13.8.5,1.8.2,3.9-.5,5.7-.3.1-.6.2-1,.2-.3.4-.4.9-.6,1.3-.3.2-.6.3-.8.4-.2-1-.5-.7-.7,0-.9-.3-1.1.2-1.8.3-.5-.3-1.1-1-1-1.6-.7-.2,0,.8-.9.6-1.7-1-1-2.6-1.6-4.2h-.3c-.2.3,0,1.4-.3,1.3-.1-.9,0-2,0-2.9.2-.9-.3-1.5-.2-2.3.7-.9.4-2,.5-3.1,0-.4,0-.6-.2-.6-.2.8,0,1.7-.2,2.5h-.2c-.4-1.4-.2-2.9.4-4.2.2-1.4,0-3,.5-4.3.7-2.7,2.4-4.6,3.9-6.9.9-2.2,3.2-3.7,4.8-5.2.9-.7,1.9-1.1,2.7-1.9,1.5-.4,2.5-1.1,4-.9l-.1.1Z" style="fill:#4a4a4a;"/><path d="M673.6,386.8c-2-9.9-7.2-18.2-15.2-24-.8-.6-1.7-1.2-2.5-1.8.5-1.2.9-2.3,1.3-3.6,2.7-8.3,3.5-16.8,2.5-25.3-.7-8.2-3-15.4-7-21.5,1.6-1.9,3-4,4.3-6.3,4.9-8.6,6.7-18.4,5.4-28.4-1.5-13.1-7.6-21.1-12.4-25.6-5.3-4.9-11.7-8.5-19-10.6-4.4-1.3-9-2.3-13.8-2.9-3.1-.5-7.1-1-12-1.7-5.5-.8-11.4-1.4-17.6-1.9-7-.5-13.9-.4-20.5.3-8.4.9-16.1,3.1-22.8,6.5-4.7,2.4-8.8,5.5-12.2,9.2-6.6-5.6-14.2-10.1-22.5-13.3-9.7-3.8-20-6.4-30.7-7.8-9.9-1.3-19.4-1.7-28.2-1.4-10.2.3-19.1,2.7-26.4,7.2-4.3-4.6-9.6-8.1-15.9-10.6-5.3-2.1-10.8-3.4-16.3-3.8-6-.5-11.3-.2-16.2,1.1h-.3c-9,2.5-17.1,7.3-24.1,14.3-6.4,6.4-11.2,13.8-14.2,22.1-3.6,9.8-4.1,20.2-1.4,30v.5c2,6.2,4.4,11.2,7.2,15.3-.7,1.9-1.4,3.9-1.9,5.9-.2.8-.4,1.7-.6,2.5l-.8-2.4c-1.5-4.4-3-9.3-4.7-14.4-2.1-6.7-4.7-13.2-7.7-19.3-4.2-8.5-9.9-15.6-16.9-21.1-8.8-6.9-19.9-10.3-32.1-9.9-22.3.6-35.9,9.8-43.3,17.3-8.9,8.9-15.6,20.3-19.9,33.8-3.8,11.5-7.4,23.2-10.9,34.8-3.5,11.8-6.8,23.8-9.7,35.7-1,4.1-2.2,8.7-3.6,13.8-1.9,6.8-3.2,13.8-3.8,20.7v.2c-.9,10.2.8,19.6,4.9,28.1v.3c3.9,7.6,11.9,17.6,28.6,22.4,5.3,1.5,10.7,2.3,16.2,2.3,2.6,0,5.3-.2,7.9-.5h.2c11.3-1.6,21-7,28.1-15.6,5.1-6.1,8.3-13.8,9.8-22.7h.5v.6c1.8,6.1,4.3,11.6,7.3,16.2l.2.2c10.6,15.6,24.2,18.8,31.3,19.3,7.4.5,18.6-.8,30.5-9.8,3.9,3.7,8.3,6.7,13.2,8.9h.2c5.3,2.4,10.8,3.6,16.4,3.6,8.5,0,17-2.7,24.7-8.1l.6-.4c2.2-1.6,4.1-3.3,5.9-5.2,1.6,1.7,3.4,3.3,5.3,4.8h.1c5.4,4.3,14.1,8.8,26.7,8.8s4.6-.1,7.1-.5h.2c13.9-1.9,22.3-8.7,27-14.2,5.2-6.1,8.8-13.3,10.7-21.4,1.4-5.8,2.1-11.8,2.2-17.9,0-4.4.1-8.4.1-12s0-7.3.1-11.5c0-1.5.1-2.9.4-4.2.3-.1.7-.2,1.1-.3,7.6-2.2,14.4-5.2,20.2-8.8.9-.5,1.7-1.1,2.6-1.7,0,1.8-.2,3.7-.3,5.5l-.9,19.9c-.1,3.1-.4,6.7-.7,10.6v.2c-.5,6.2-.2,12.3.7,18.2v.3c1.6,9.3,6,17.8,12.7,24.5l.6.6c6.2,5.8,13.4,9.7,21.6,11.4h.3c4.3.9,8.6,1.4,13,1.4s2.9,0,4.3-.1c3-.2,5.8-.3,8.3-.3h1.1c6.9-.3,13.9-.5,20.8-.6,7.4,0,15-.3,22.6-.7,8.6-.4,16.4-2,23.3-4.5,8-3,18.9-9.9,25.4-26l.4-1c1.6-4.4,2.7-9.4,3.4-14.7.8-6.4.6-12.8-.7-19.1l.2.1Z" style="fill:#fff6e9;"/><path d="M217.1,418.4c-2.2-3.5-3.3-7.9-3.3-13.2s1.6-14.8,4.9-25.8l1.9-7c4.7-19.6,11.3-42.4,20-68.5,3.4-10.2,8.1-18.2,14.2-23.9,6.1-5.7,14.2-8.7,24.4-9,6.4-.2,11.6,1.6,15.7,5.1,4.1,3.6,7.3,7.8,9.5,12.8s4.7,11.6,7.3,19.8l2.8,9.1,27.2,76.6c1.9,5.1,2.8,9.1,2.8,11.9,0,5.1-2.4,9.6-7.2,13.5-4.2,3.3-8.1,4.9-11.9,4.9s-8.9-2.6-12.3-7.7c-1.2-1.5-2.3-3.7-3.1-6.5-.9-2.8-1.4-4.5-1.5-5.1-1.2-3.9-2.4-7.1-3.5-9.5-1.1-2.5-2.4-4.4-4-5.8-.3-.3-3.5-.7-9.5-1.2-6.1-.5-11.6-.7-16.8-.7s-10.2.4-11.2,1.2c-1.6,1.4-2.7,3.3-3.5,5.8s-1.6,5.8-2.3,10c-.8,4-1.5,7.3-2.2,9.7s-1.7,4.4-2.9,5.9c-3.4,4.3-8.5,6.5-15.4,6.5s-6.3-.5-9.1-1.4c-5.3-1.6-9-4.1-11.2-7.6l.2.1ZM287,354c-3.3-9.6-5.3-15.8-6.1-18.6l-6.5,21,12.6-2.3v-.1Z" style="fill:#fe9191;"/><path d="M361,274.6c0-6.1,2.1-11.8,6.4-17.2,4.3-5.4,9.4-9,15.3-10.7,1.5-.3,3-.5,4.4-.5,4.7,0,9.2,1,13.5,3.1s6.5,5,6.5,8.7-.2,1.3-.5,2.6c.6,1.7.9,3.6.9,5.6,0,4.7-1.5,9.2-4.4,13.6s-6.7,8-11.2,10.8-9,4.2-13.5,4.2-7.3-1.2-10.2-3.5c-3-2.3-5.1-6-6.5-10.9-.5-1.9-.7-3.8-.7-5.8h0ZM382.9,427.3c-3.4,0-6.6-1.1-9.4-3.4-2.9-2.2-5.2-5.2-7.1-8.7-3.6-7.8-5.4-18.5-5.4-32.4s.7-17.8,2.1-32.8c.3-2,.6-5.4.9-10.2l.5-4.9c.5-7,1.2-12.9,2.2-17.7,1-4.8,2.8-8.6,5.5-11.4,3.1-3.3,6.6-4.9,10.5-4.9s7.3,1.3,10.6,4c3.3,2.6,5.9,5.9,7.8,9.8,4.5,9.9,6.8,22.3,6.8,37s-2,30.9-6.1,50.8c-.2.9-.6,3.1-1.3,6.5-.7,3.4-1.7,6.4-3,9s-3.1,4.6-5.2,6.2c-3.1,2.2-6.2,3.3-9.3,3.3l-.1-.2Z" style="fill:#f0bf60;"/><path d="M428.2,414.2c-3.2-8.8-4.5-18.4-4.1-29,.6-12.4.9-26.5.9-42.1.3-18.6.7-32.6,1.2-41.9.2-1.7.2-4.2.2-7.5.3-8.7.9-15.6,1.9-20.8.9-5.2,3.2-9.6,6.8-13.3,3.6-3.6,9.1-5.6,16.5-5.9,19.1-.6,36.3,2.3,51.6,8.6,15.3,6.4,23.9,17.8,26,34.2.2.9.2,2.3.2,4.2,0,8.1-2.6,15.4-7.9,22.1-5.3,6.7-12.1,12.6-20.5,17.7-1.7,1.1-3.9,2.1-6.5,3.1s-4.3,1.7-5.1,2-2.9,1.1-6.3,2.4c-3.4,1.3-6.2,2.9-8.4,4.8-3.3,2.8-5.4,6.6-6.4,11.3-1,4.7-1.5,10.4-1.5,16.9v7c0,8.2-.2,14.7-.7,19.6-.5,4.8-2.2,9.3-5.1,13.5-3,4.2-7.8,6.3-14.4,6.3s-15.1-4.4-18.3-13.2h-.1ZM493.1,306.5c0-4-1-8-3.1-11.9s-4.9-6.8-8.3-8.6c-2.2-1.1-4-1.6-5.6-1.6-4.2,0-6.3,4.3-6.3,13l.2,8.4c.2,1.6.2,3.6.2,6.1-.3,4-.5,6.6-.5,7.7,0,2.2.3,3.8,1,4.8s1.9,1.5,3.6,1.5,3.3-.4,6.1-1.2c8.4-2.8,12.6-8.8,12.6-18.2h.1Z" style="fill:#e09d94;"/><path d="M572,427.1l-6.1.2c-8.2,0-14.2-1.9-17.9-5.6-3.9-3.9-5.8-9.9-5.8-18.2s.2-5.9.5-10.2c.3-2.5.5-4.3.5-5.4l1.9-39.8c.9-20.8,1.6-36.4,1.9-46.8.2-1.9.2-3.5.1-5,0-1.5-.1-2.8-.1-3.8v-4.9c0-6.5.6-11.5,1.9-14.9,2.9-8.5,13-12.8,30.3-12.8s11.6.4,18,1.2c6.4.8,11.9,1.6,16.4,2.3,5,.8,9,1.7,12,2.7s5.6,2.8,7.7,5.4c2.1,2.6,3.1,6.2,3.1,10.8s-1,7.3-3,10.4c-2,3-4.8,5.2-8.4,6.6-1.9.8-4.2,1.2-7,1.2s-4.7-.3-8.4-.9c-3.4-.6-6.1-.9-7.9-.9s-2.6.2-4.4.5c-2,.3-4,1.6-5.8,4-1.9,2.3-2.8,4.8-2.8,7.5s1.2,4.8,3.5,6.5c1.9,1.2,4.7,1.9,8.6,1.9s4.1-.2,7.2-.5l7.2-.2c2.8,0,5,.3,6.8.9,3.9,1.6,6.7,3.5,8.4,5.9s2.7,5.7,3,9.9c.2.9.2,2.4.2,4.4,0,4.7-.9,8.8-2.8,12.5-1.9,3.6-4.8,6.1-8.8,7.3-1.6.3-2.9.5-4,.5s-3-.2-4.8-.5-3.1-.5-3.8-.7c-3.1-.8-6-1.2-8.6-1.2s-6.4,1-8.4,3c-2.6,2.5-4,4.9-4,7.2,0,3.6,2.6,6.5,7.7,8.8,5.1,2.3,10,3.6,14.7,4,1.7.2,3.3.2,4.7.1,1.4,0,2.6-.1,3.5-.1,1.4-.2,3.5-.2,6.3-.2,7.8,0,13.6,1.4,17.5,4.2,3.7,3,5.6,7.7,5.6,14.2s-.8,9.4-2.3,13.3c-2.2,5.3-5.2,8.8-9.1,10.6-3.9,1.8-9.3,2.9-16.3,3.4-4.8.3-9,.5-12.6.6-3.6,0-6.5.1-8.8.1-4.8,0-12,.2-21.7.5-2.3,0-4.1,0-5.4.2l-.2-.2Z" style="fill:#9bbdd6;"/></svg>